AmiriLatin-Italic.sfdir
StartChar: exclam
Encoding: 33 33 0
Width: 228
VWidth: 0
Flags: W
HStem: -14 113<36 109>
VStem: 20 106<3 83> 130 88<481 600>
LayerCount: 2
Fore
SplineSet
20 35 m 27
 20 71 48 100 84 100 c 27
 107 100 126 78 126 55 c 27
 126 18 99 -14 62 -14 c 27
 37 -14 20 10 20 35 c 27
188 616 m 3
 209 616 218 595 218 574 c 3
 218 548 156 344 111 166 c 0
 108 152 88 145 84 145 c 3
 79 145 78 155 78 162 c 3
 78 166 109 418 130 563 c 0
 133 582 157 616 188 616 c 3
EndSplineSet
Substitution2: "'smcp' Lowercase to Small Capitals in Latin lookup 3-1" exclam.sc
EndChar
StartChar: quotedbl
Encoding: 34 34 1
Width: 323
VWidth: 0
Flags: HW
LayerCount: 2
Fore
SplineSet
316 682 m 27
 322 682 327 682 331 681 c 128
 335 680 338 678 341 676 c 128
 344 674 346 670 347 665 c 128
 348 660 348 655 348 647 c 128
 348 639 346 629 344 618 c 0
 340 598 331 567 316 526 c 128
 301 485 291 456 286 438 c 0
 285 433 282 431 278 428 c 128
 274 425 270 424 266 424 c 128
 262 424 258 425 255 427 c 128
 252 429 251 433 251 437 c 0
 254 463 255 487 255 510 c 128
 255 533 254 555 253 576 c 128
 252 597 251 612 251 621 c 1
 253 632 260 646 273 660 c 128
 286 674 300 682 316 682 c 27
170 682 m 27
 176 682 181 682 185 681 c 128
 189 680 191 678 194 676 c 128
 197 674 199 670 200 665 c 128
 201 660 201 655 201 647 c 128
 201 639 199 629 197 618 c 0
 193 598 184 567 169 526 c 128
 154 485 145 456 140 438 c 0
 139 433 135 431 131 428 c 128
 127 425 123 424 119 424 c 128
 115 424 112 425 109 427 c 128
 106 429 104 433 104 437 c 0
 107 463 108 487 108 510 c 128
 108 533 107 555 106 576 c 128
 105 597 104 612 104 621 c 1
 106 632 114 646 127 660 c 128
 140 674 154 682 170 682 c 27
EndSplineSet
EndChar
StartChar: numbersign
Encoding: 35 35 2
Width: 436
VWidth: 0
Flags: HW
LayerCount: 2
Fore
SplineSet
342 361 m 1
 420 361 l 2
 423 361 425 360 425 359 c 0
 425 351 423 342 417 330 c 128
 411 318 406 312 402 312 c 2
 325 312 l 1
 296 223 l 1
 373 223 l 2
 376 223 378 222 378 220 c 0
 378 212 376 202 370 191 c 128
 364 180 359 174 355 174 c 2
 278 174 l 1
 229 24 l 1
 229 19 218 18 198 18 c 0
 190 18 184 19 180 21 c 1
 181 24 185 37 193 62 c 128
 201 87 210 110 218 134 c 128
 226 158 230 170 230 170 c 2
 232 174 l 1
 142 174 l 1
 92 24 l 1
 92 19 82 18 62 18 c 0
 54 18 47 19 43 21 c 1
 44 24 49 37 57 62 c 128
 65 87 74 110 82 134 c 128
 90 158 94 170 94 170 c 2
 96 174 l 1
 18 174 l 2
 15 174 13 175 13 177 c 0
 13 185 15 195 21 206 c 128
 27 217 31 223 35 223 c 2
 112 223 l 1
 142 312 l 1
 64 312 l 2
 61 312 60 313 60 315 c 0
 60 323 62 333 68 344 c 128
 74 355 78 361 82 361 c 2
 159 361 l 1
 209 511 l 1
 209 516 219 518 239 518 c 0
 246 518 253 517 258 514 c 1
 257 512 252 499 244 474 c 128
 236 449 227 425 219 401 c 128
 211 377 207 365 207 365 c 2
 205 361 l 1
 296 361 l 1
 346 511 l 1
 346 516 356 518 376 518 c 0
 383 518 390 517 395 514 c 1
 394 512 389 499 381 474 c 128
 373 449 364 425 356 401 c 128
 348 377 344 365 344 365 c 2
 342 361 l 1
278 312 m 1
 188 312 l 1
 159 223 l 1
 249 223 l 1
 278 312 l 1
EndSplineSet
EndChar
StartChar: dollar
Encoding: 36 36 3
Width: 870
UnlinkRmOvrlpSave: 1
Flags: HW
LayerCount: 2
Fore
SplineSet
573 1281 m 0
 599.666666667 1281 625.666666667 1279.5 651 1276.5 c 128
 676.333333333 1273.5 695.666666667 1270.5 709 1267.5 c 128
 722.333333333 1264.5 744.333333333 1259 775 1251 c 128
 805.666666667 1243 826.333333333 1237.66666667 837 1235 c 1
 828.333333333 1140.33333333 814.666666667 1048 796 958 c 0
 794 949.333333333 787.666666667 945 777 945 c 0
 758.333333333 945 744.666666667 949.333333333 736 958 c 1
 741.333333333 1041.33333333 729.833333333 1104.83333333 701.5 1148.5 c 128
 673.166666667 1192.16666667 620.666666667 1214 544 1214 c 0
 494 1214 451.333333333 1202.66666667 416 1180 c 128
 380.666666667 1157.33333333 355.666666667 1130.33333333 341 1099 c 128
 326.333333333 1067.66666667 319 1034.66666667 319 1000 c 0
 319 974.666666667 322.5 950.666666667 329.5 928 c 128
 336.5 905.333333333 344.166666667 886.333333333 352.5 871 c 128
 360.833333333 855.666666667 374 838.833333333 392 820.5 c 128
 410 802.166666667 424.666666667 788.5 436 779.5 c 128
 447.333333333 770.5 465.166666667 756.833333333 489.5 738.5 c 128
 513.833333333 720.166666667 530.666666667 707.333333333 540 700 c 0
 550.666666667 691.333333333 568.166666667 678.166666667 592.5 660.5 c 128
 616.833333333 642.833333333 635.833333333 628.666666667 649.5 618 c 128
 663.166666667 607.333333333 679.666666667 592.333333333 699 573 c 128
 718.333333333 553.666666667 733.166666667 535.166666667 743.5 517.5 c 128
 753.833333333 499.833333333 763 478.166666667 771 452.5 c 128
 779 426.833333333 783 399.666666667 783 371 c 0
 783 313.666666667 769.166666667 260 741.5 210 c 128
 713.833333333 160 678.333333333 119 635 87 c 128
 591.666666667 55 544.5 29.8333333333 493.5 11.5 c 128
 442.5 -6.83333333333 392.666666667 -16 344 -16 c 0
 310 -16 274.5 -11.3333333333 237.5 -2 c 128
 200.5 7.33333333333 170.166666667 16.8333333333 146.5 26.5 c 128
 122.833333333 36.1666666667 94.3333333333 49 61 65 c 1
 50.3333333333 111 43.1666666667 166.5 39.5 231.5 c 128
 35.8333333333 296.5 35.3333333333 337.333333333 38 354 c 1
 43.3333333333 361.333333333 59.3333333333 365 86 365 c 0
 95.3333333333 365 101.666666667 361.333333333 105 354 c 1
 105 325.333333333 110 294.5 120 261.5 c 128
 130 228.5 144.833333333 195.833333333 164.5 163.5 c 128
 184.166666667 131.166666667 212.166666667 104.333333333 248.5 83 c 128
 284.833333333 61.6666666667 326 51 372 51 c 0
 434 51 489.333333333 71.6666666667 538 113 c 128
 586.666666667 154.333333333 611 210.666666667 611 282 c 0
 611 296 610 309.333333333 608 322 c 128
 606 334.666666667 603.833333333 346 601.5 356 c 128
 599.166666667 366 595 376.5 589 387.5 c 128
 583 398.5 578.166666667 407.666666667 574.5 415 c 128
 570.833333333 422.333333333 564.333333333 431.166666667 555 441.5 c 128
 545.666666667 451.833333333 538.666666667 459.666666667 534 465 c 128
 529.333333333 470.333333333 521.166666667 478 509.5 488 c 128
 497.833333333 498 489.5 505 484.5 509 c 128
 479.5 513 470 520.5 456 531.5 c 128
 442 542.5 432.666666667 550 428 554 c 0
 416 563.333333333 396.5 578.166666667 369.5 598.5 c 128
 342.5 618.833333333 322 634.666666667 308 646 c 128
 294 657.333333333 276.5 673.666666667 255.5 695 c 128
 234.5 716.333333333 218.833333333 736.5 208.5 755.5 c 128
 198.166666667 774.5 188.833333333 798 180.5 826 c 128
 172.166666667 854 168 884 168 916 c 0
 168 986 189.5 1049.66666667 232.5 1107 c 128
 275.5 1164.33333333 327.666666667 1207.66666667 389 1237 c 128
 450.333333333 1266.33333333 511.666666667 1281 573 1281 c 0
240 -104 m 17
 233.333333333 -104 225.5 -103.5 216.5 -102.5 c 128
 207.5 -101.5 198.666666667 -99.5 190 -96.5 c 128
 181.333333333 -93.5 177.333333333 -90 178 -86 c 1
 684 1366 l 1
 726.666666667 1366 747.333333333 1361.33333333 746 1352 c 1
 240 -104 l 17
EndSplineSet
EndChar
StartChar: percent
Encoding: 37 37 4
Width: 615
VWidth: 0
Flags: W
HStem: -8 27<372 441> 293 26<409 477> 330 27<165 234> 628 20G<601 611> 631 26<202 270>
VStem: 72 62<381 546> 279 62<43 208> 297 63<441 609> 504 63<103 272>
LayerCount: 2
Fore
SplineSet
447 293 m 3xe680
 385 293 341 205 341 129 c 27
 341 79 357 20 404 20 c 3
 466 20 504 113 504 190 c 27
 504 236 491 293 447 293 c 3xe680
457 319 m 3
 532 319 567 256 567 190 c 3
 567 96 489 -8 393 -8 c 3
 319 -8 279 54 279 120 c 3
 279 216 357 319 457 319 c 3
240 631 m 3xed80
 178 631 134 543 134 467 c 27
 134 417 150 357 197 357 c 3
 259 357 297 451 297 528 c 27
 297 574 284 631 240 631 c 3xed80
250 657 m 3
 325 657 360 594 360 528 c 3
 360 434 282 330 186 330 c 3
 112 330 72 392 72 458 c 3
 72 554 150 657 250 657 c 3
632 635 m 9
 50 0 l 2
 46 -4 31 -12 17 -12 c 27
 10 -12 4 -9 2 -1 c 9
 584 637 l 2
 588 641 595 647 605 647 c 27xf480
 617 647 628 645 632 635 c 9
EndSplineSet
EndChar
StartChar: ampersand
Encoding: 38 38 5
Width: 762
UnlinkRmOvrlpSave: 1
Flags: W
HStem: -5 31<320 462> 482 41<316 431>
VStem: -7 49<97 176> 399 91<373 475> 421 36<127 203> 583 62<143 232> 720 41<425 519>
LayerCount: 2
Fore
SplineSet
408 523 m 27xee
 453 523 490 486 490 441 c 27
 490 293 242 236 181 222 c 0
 113 207 42 191 42 150 c 3
 42 132 54 127 62 120 c 0
 71 112 80 104 80 88 c 3
 80 60 60 46 37 46 c 27
 27 46 20 47 13 51 c 1
 0 62 -7 88 -7 104 c 0
 -7 165 31 212 100 232 c 0
 176 253 399 306 399 425 c 3xf6
 399 459 387 482 350 482 c 3
 283 482 216 385 216 249 c 3
 216 100 283 26 400 26 c 3
 490 26 583 97 583 188 c 0
 583 205 574 226 568 232 c 1
 519 216 457 185 457 142 c 3
 457 133 458 125 461 120 c 1
 457 118 446 119 441 125 c 1
 430 134 421 157 421 181 c 3
 421 225 461 255 533 286 c 0
 622 324 729 392 720 529 c 1
 729 530 736 524 739 521 c 1
 751 498 761 471 761 430 c 3
 761 352 707 291 639 258 c 1
 643 250 645 238 645 223 c 0
 645 106 513 -5 369 -5 c 0
 241 -5 136 55 136 219 c 3
 136 362 249 523 408 523 c 27xee
EndSplineSet
EndChar
StartChar: quotesingle
Encoding: 39 39 6
Width: 362
VWidth: 0
Flags: HW
LayerCount: 2
Fore
SplineSet
348 1396 m 27
 360.666666667 1396 370.666666667 1395.33333333 378 1394 c 128
 385.333333333 1392.66666667 392 1389.5 398 1384.5 c 128
 404 1379.5 408 1372.16666667 410 1362.5 c 128
 412 1352.83333333 412.666666667 1340.16666667 412 1324.5 c 128
 411.333333333 1308.83333333 408.666666667 1289.33333333 404 1266 c 0
 396 1224.66666667 376.833333333 1162 346.5 1078 c 128
 316.166666667 994 296 934 286 898 c 0
 283.333333333 888.666666667 277.666666667 881.333333333 269 876 c 128
 260.333333333 870.666666667 252 868 244 868 c 128
 236 868 228.833333333 870.5 222.5 875.5 c 128
 216.166666667 880.5 213.333333333 886.666666667 214 894 c 0
 219.333333333 947.333333333 222 997.5 222 1044.5 c 128
 222 1091.5 220.666666667 1136.66666667 218 1180 c 128
 215.333333333 1223.33333333 214 1254 214 1272 c 1
 218 1295.33333333 233.333333333 1321.83333333 260 1351.5 c 128
 286.666666667 1381.16666667 316 1396 348 1396 c 27
EndSplineSet
EndChar
StartChar: parenleft
Encoding: 40 40 7
Width: 520
VWidth: 0
Flags: W
LayerCount: 2
Fore
SplineSet
553 1496 m 1,0,1
 567 1490 567 1490 567 1470 c 1,2,3
 526 1423 526 1423 478 1346 c 128,-1,4
 430 1269 430 1269 377 1152.5 c 128,-1,5
 324 1036 324 1036 284 909 c 128,-1,6
 244 782 244 782 223 627.5 c 128,-1,7
 202 473 202 473 215 328 c 0,8,9
 232 124 232 124 278.5 -4 c 128,-1,10
 325 -132 325 -132 405 -218 c 1,11,12
 405 -238 405 -238 395 -242 c 1,13,14
 295 -205 295 -205 206.5 -46 c 128,-1,15
 118 113 118 113 97 354 c 0,16,17
 82 523 82 523 110 687 c 128,-1,18
 138 851 138 851 188 971.5 c 128,-1,19
 238 1092 238 1092 309.5 1203 c 128,-1,20
 381 1314 381 1314 438.5 1379 c 128,-1,21
 496 1444 496 1444 553 1496 c 1,0,1
EndSplineSet
Substitution2: "'smcp' Lowercase to Small Capitals in Latin lookup 3-1" parenleft.sc
EndChar
StartChar: parenright
Encoding: 41 41 8
Width: 253
VWidth: 0
Flags: HW
LayerCount: 2
Fore
SplineSet
2 -118 m 1
 0 -117 -3 -116 -4 -113 c 128
 -5 -110 -6 -107 -5 -105 c 1
 8 -90 23 -70 39 -45 c 128
 55 -20 71 12 88 50 c 128
 105 88 120 127 133 168 c 128
 146 209 156 256 163 306 c 128
 170 356 171 405 167 452 c 0
 161 518 151 572 136 614 c 128
 121 656 100 691 74 719 c 1
 74 726 76 729 79 730 c 1
 112 718 142 687 171 635 c 128
 200 583 218 517 225 439 c 0
 230 384 227 330 218 277 c 128
 209 224 196 177 180 138 c 128
 164 99 144 61 121 25 c 128
 98 -11 77 -40 58 -61 c 128
 39 -82 21 -101 2 -118 c 1
EndSplineSet
Substitution2: "'smcp' Lowercase to Small Capitals in Latin lookup 3-1" parenright.sc
EndChar
StartChar: asterisk
Encoding: 42 42 9
Width: 800
Flags: W
LayerCount: 2
Fore
SplineSet
512 1028 m 0,0,1
 528 1028 528 1028 557.5 1065 c 128,-1,2
 587 1102 587 1102 615.5 1147 c 128,-1,3
 644 1192 644 1192 683.5 1229 c 128,-1,4
 723 1266 723 1266 758 1266 c 0,5,6
 779 1266 779 1266 791.5 1252.5 c 128,-1,7
 804 1239 804 1239 804 1218 c 0,8,9
 804 1179 804 1179 762.5 1142 c 128,-1,10
 721 1105 721 1105 671 1081 c 128,-1,11
 621 1057 621 1057 579.5 1030 c 128,-1,12
 538 1003 538 1003 538 982 c 0,13,14
 538 965 538 965 577 952 c 128,-1,15
 616 939 616 939 662 930.5 c 128,-1,16
 708 922 708 922 747 898.5 c 128,-1,17
 786 875 786 875 786 838 c 0,18,19
 786 809 786 809 764 787.5 c 128,-1,20
 742 766 742 766 712 766 c 0,21,22
 683 766 683 766 651.5 792 c 128,-1,23
 620 818 620 818 597.5 849 c 128,-1,24
 575 880 575 880 550.5 906 c 128,-1,25
 526 932 526 932 510 932 c 0,26,27
 490 932 490 932 483 896.5 c 128,-1,28
 476 861 476 861 470 794 c 128,-1,29
 464 727 464 727 450 682 c 0,30,31
 437 640 437 640 414 618 c 128,-1,32
 391 596 391 596 368 596 c 0,33,34
 348 596 348 596 335 611.5 c 128,-1,35
 322 627 322 627 322 652 c 0,36,37
 322 686 322 686 354.5 744 c 128,-1,38
 387 802 387 802 419.5 854.5 c 128,-1,39
 452 907 452 907 452 928 c 0,40,41
 452 946 452 946 434 946 c 0,42,43
 417 946 417 946 323.5 905 c 128,-1,44
 230 864 230 864 188 864 c 0,45,46
 161 864 161 864 144.5 876.5 c 128,-1,47
 128 889 128 889 128 912 c 0,48,49
 128 924 128 924 132.5 937 c 128,-1,50
 137 950 137 950 148 965.5 c 128,-1,51
 159 981 159 981 185.5 990.5 c 128,-1,52
 212 1000 212 1000 250 1000 c 0,53,54
 281 1000 281 1000 334.5 993 c 128,-1,55
 388 986 388 986 406 986 c 0,56,57
 456 986 456 986 456 1020 c 0,58,59
 456 1039 456 1039 430.5 1078 c 128,-1,60
 405 1117 405 1117 379.5 1163 c 128,-1,61
 354 1209 354 1209 354 1246 c 0,62,63
 354 1282 354 1282 374.5 1305 c 128,-1,64
 395 1328 395 1328 422 1328 c 0,65,66
 444 1328 444 1328 458 1314 c 128,-1,67
 472 1300 472 1300 478 1272.5 c 128,-1,68
 484 1245 484 1245 486 1221 c 128,-1,69
 488 1197 488 1197 488 1160 c 0,70,71
 488 1028 488 1028 512 1028 c 0,0,1
EndSplineSet
EndChar
StartChar: plus
Encoding: 43 43 10
Width: 443
Flags: W
HStem: 212 42<19 190 245 414>
LayerCount: 2
Fore
SplineSet
22 212 m 2
 19 212 18 215 18 220 c 0
 18 233 20 241 30 254 c 1
 198 254 l 1
 230 425 l 2
 233 438 267 440 271 440 c 0
 279 440 280 437 279 433 c 2
 245 254 l 1
 412 254 l 2
 414 254 415 251 415 246 c 0
 415 233 414 224 403 212 c 1
 237 212 l 1
 203 38 l 2
 201 28 185 22 169 22 c 0
 159 22 155 26 155 30 c 2
 190 212 l 1
 22 212 l 2
EndSplineSet
EndChar
StartChar: comma
Encoding: 44 44 11
Width: 400
VWidth: 0
Flags: HW
LayerCount: 2
Fore
SplineSet
-56 -178 m 1
 -30.6666666667 -166 -1.66666666667 -143.833333333 31 -111.5 c 128
 63.6666666667 -79.1666666667 80 -43.3333333333 80 -4 c 0
 80 31.3333333333 74.3333333333 62.3333333333 63 89 c 128
 51.6666666667 115.666666667 46 138.666666667 46 158 c 0
 46 188 56.8333333333 212.166666667 78.5 230.5 c 128
 100.166666667 248.833333333 126 258 156 258 c 0
 182.666666667 258 201.333333333 251.333333333 212 238 c 1
 216 228 218 212 218 190 c 0
 218 104.666666667 194 22.6666666667 146 -56 c 0
 120.666666667 -97.3333333333 91 -132.5 57 -161.5 c 128
 23 -190.5 -5.33333333333 -209.333333333 -28 -218 c 1
 -32 -218 -37.6666666667 -213.166666667 -45 -203.5 c 128
 -52.3333333333 -193.833333333 -56 -185.333333333 -56 -178 c 1
EndSplineSet
EndChar
StartChar: hyphen
Encoding: 45 45 12
Width: 742
VWidth: 0
Flags: HW
LayerCount: 2
Fore
SplineSet
148 522 m 2
 602 546 l 2
 610 546 614 538 614 522 c 0
 614 507.333333333 608.666666667 486.833333333 598 460.5 c 128
 587.333333333 434.166666667 577.333333333 420.666666667 568 420 c 2
 116 398 l 2
 109.333333333 398 106 408 106 428 c 0
 106 442 110.5 461 119.5 485 c 128
 128.5 509 138 521.333333333 148 522 c 2
EndSplineSet
EndChar
StartChar: period
Encoding: 46 46 13
Width: 203
VWidth: 0
Flags: W
HStem: -14 113<27 95>
VStem: 8 107<6 81>
LayerCount: 2
Fore
SplineSet
8 32 m 0
 8 68 41 100 73 100 c 0
 98 100 115 81 115 56 c 0
 115 20 83 -14 51 -14 c 0
 26 -14 8 6 8 32 c 0
EndSplineSet
Substitution2: "'smcp' Lowercase to Small Capitals in Latin lookup 3-1" period.sc
EndChar
StartChar: slash
Encoding: 47 47 14
Width: 764
VWidth: 0
Flags: HW
LayerCount: 2
Fore
SplineSet
902 1510 m 1
 54 -24 l 2
 49.3333333333 -31.3333333333 37.5 -40.5 18.5 -51.5 c 128
 -0.5 -62.5 -20 -68 -40 -68 c 0
 -44 -68 -48.6666666667 -66.5 -54 -63.5 c 128
 -59.3333333333 -60.5 -62.6666666667 -58 -64 -56 c 1
 786 1478 l 2
 790.666666667 1487.33333333 802.833333333 1497 822.5 1507 c 128
 842.166666667 1517 860.666666667 1522 878 1522 c 0
 888.666666667 1522 896.666666667 1518 902 1510 c 1
EndSplineSet
Substitution2: "'smcp' Lowercase to Small Capitals in Latin lookup 3-1" slash.sc
EndChar
StartChar: zero
Encoding: 48 48 15
Width: 487
Flags: W
HStem: -3 34<150 233> 592 34<256 339>
LayerCount: 2
Fore
SplineSet
126 312 m 0
 96 159 119 31 186 31 c 0
 267 31 333 164 363 317 c 0
 393 470 370 592 303 592 c 0
 227 592 156 465 126 312 c 0
46 312 m 0
 79 482 180 626 305 626 c 0
 432 626 474 482 441 312 c 0
 408 142 308 -3 183 -3 c 0
 60 -3 13 142 46 312 c 0
EndSplineSet
Substitution2: "'pnum' Proportional Numbers lookup 12-1" zero.prop
Substitution2: "'onum' Oldstyle Figures in Latin lookup 5-1" zero.onum
EndChar
StartChar: one
Encoding: 49 49 16
Width: 487
Flags: HW
LayerCount: 2
Fore
SplineSet
201 521 m 1
 194 525 191 532 192 541 c 1
 192 544 193 546 195 547 c 0
 308 600 366 627 369 627 c 2
 371 627 l 2
 374 627 376 624 377 620 c 128
 378 616 379 612 379 608 c 1
 369 587 360 557 352 517 c 2
 277 132 l 1
 270 92 267 63 268 45 c 0
 268 40 276 36 292 32 c 128
 308 28 318 25 324 25 c 0
 326 25 326 20 324 8 c 0
 323 2 322 -1 321 -3 c 1
 261 0 225 2 214 2 c 0
 206 2 170 0 108 -3 c 1
 106 0 106 5 108 13 c 128
 110 21 111 25 114 25 c 0
 122 25 135 28 152 32 c 128
 169 36 180 40 182 45 c 0
 187 56 191 75 197 101 c 1
 266 452 l 2
 269 469 271 482 273 491 c 128
 275 500 276 509 276 518 c 128
 276 527 275 533 273 536 c 128
 271 539 269 541 264 541 c 0
 260 541 251 538 236 534 c 128
 221 530 209 525 201 521 c 1
EndSplineSet
Substitution2: "'pnum' Proportional Numbers lookup 12-1" one.prop
Substitution2: "'onum' Oldstyle Figures in Latin lookup 5-1" one.onum
EndChar
StartChar: two
Encoding: 50 50 17
Width: 998
Flags: W
LayerCount: 2
Fore
SplineSet
944 1024 m 0,0,1
 944 897 944 897 886 795 c 128,-1,2
 828 693 828 693 708 572 c 0,3,4
 674 537 674 537 630.5 494.5 c 128,-1,5
 587 452 587 452 545 412 c 128,-1,6
 503 372 503 372 460 332 c 128,-1,7
 417 292 417 292 381.5 259 c 128,-1,8
 346 226 346 226 318 200.5 c 128,-1,9
 290 175 290 175 274.5 160.5 c 128,-1,10
 259 146 259 146 260 146 c 2,11,-1
 600 146 l 2,12,13
 743 146 743 146 810 294 c 1,14,15
 817 312 817 312 836 312 c 0,16,17
 842 312 842 312 855.5 307.5 c 128,-1,18
 869 303 869 303 870 300 c 1,19,20
 743 60 743 60 716 0 c 1,21,-1
 66 0 l 1,22,23
 54 12 54 12 54 30 c 1,24,25
 136 105 136 105 307.5 281 c 128,-1,26
 479 457 479 457 568 558 c 0,27,28
 671 675 671 675 718.5 773 c 128,-1,29
 766 871 766 871 766 972 c 0,30,31
 766 1055 766 1055 721 1104.5 c 128,-1,32
 676 1154 676 1154 602 1154 c 0,33,34
 550 1154 550 1154 498.5 1133.5 c 128,-1,35
 447 1113 447 1113 407.5 1082 c 128,-1,36
 368 1051 368 1051 343.5 1026.5 c 128,-1,37
 319 1002 319 1002 304 982 c 1,38,39
 294 982 294 982 284 994.5 c 128,-1,40
 274 1007 274 1007 276 1014 c 0,41,42
 286 1037 286 1037 320.5 1078 c 128,-1,43
 355 1119 355 1119 406.5 1167 c 128,-1,44
 458 1215 458 1215 529 1249.5 c 128,-1,45
 600 1284 600 1284 668 1284 c 0,46,47
 781 1284 781 1284 862.5 1211 c 128,-1,48
 944 1138 944 1138 944 1024 c 0,0,1
EndSplineSet
Substitution2: "'pnum' Proportional Numbers lookup 12-1" two.prop
Substitution2: "'onum' Oldstyle Figures in Latin lookup 5-1" two.onum
EndChar
StartChar: three
Encoding: 51 51 18
Width: 487
Flags: W
HStem: -5 39<145 243> 310 30<186 238> 574 53<256 348>
VStem: 342 83<153 286> 366 71<455 557>
LayerCount: 2
Fore
SplineSet
339 627 m 0xe8
 385 627 438 593 438 521 c 0xe8
 438 457 375 398 324 370 c 1
 379 363 425 297 425 238 c 0
 425 88 246 -5 160 -5 c 0
 113 -5 80 4 58 20 c 1
 54 25 49 36 49 47 c 0
 49 76 69 104 90 104 c 0
 122 104 127 75 141 58 c 0
 158 37 179 34 203 34 c 0
 259 34 342 104 342 214 c 0xf0
 342 279 307 319 247 319 c 0
 227 319 201 313 189 310 c 1
 186 315 186 318 186 323 c 0
 186 327 186 337 188 340 c 1
 266 354 366 415 366 501 c 0
 366 555 332 574 291 574 c 0
 233 574 193 523 183 516 c 1
 177 516 176 530 178 539 c 1
 215 584 268 627 339 627 c 0xe8
EndSplineSet
Substitution2: "'pnum' Proportional Numbers lookup 12-1" three.prop
Substitution2: "'onum' Oldstyle Figures in Latin lookup 5-1" three.onum
EndChar
StartChar: four
Encoding: 52 52 19
Width: 998
Flags: HW
LayerCount: 2
Fore
SplineSet
904 1288 m 0
 912.666666667 1288 919.666666667 1284 925 1276 c 128
 930.333333333 1268 932 1260 930 1252 c 2
 776 462 l 1
 888 462 l 2
 894 462 898.166666667 453.666666667 900.5 437 c 128
 902.833333333 420.333333333 902 401.333333333 898 380 c 0
 895.333333333 369.333333333 890.666666667 358.666666667 884 348 c 1
 754 348 l 1
 686 -2 l 1
 676.666666667 -8.66666666667 648 -12 600 -12 c 0
 588 -12 578.166666667 -11.8333333333 570.5 -11.5 c 128
 562.833333333 -11.1666666667 556 -10.5 550 -9.5 c 128
 544 -8.5 539.666666667 -6.83333333333 537 -4.5 c 128
 534.333333333 -2.16666666667 533.333333333 0.666666666667 534 4 c 2
 602 348 l 1
 78 348 l 1
 68 354.666666667 64.6666666667 367.333333333 68 386 c 1
 838 1238 l 2
 846.666666667 1248 858.333333333 1258.83333333 873 1270.5 c 128
 887.666666667 1282.16666667 898 1288 904 1288 c 0
738 1048 m 25
 210 462 l 1
 624 462 l 1
 738 1048 l 25
EndSplineSet
Substitution2: "'pnum' Proportional Numbers lookup 12-1" four.prop
Substitution2: "'onum' Oldstyle Figures in Latin lookup 5-1" four.onum
EndChar
StartChar: five
Encoding: 53 53 20
Width: 998
Flags: W
LayerCount: 2
Fore
SplineSet
845 494 m 0,0,1
 845 406 845 406 806 324 c 128,-1,2
 767 242 767 242 705.5 183 c 128,-1,3
 644 124 644 124 571 79.5 c 128,-1,4
 498 35 498 35 428 12.5 c 128,-1,5
 358 -10 358 -10 303 -10 c 0,6,7
 165 -10 165 -10 93 40 c 1,8,9
 75 62 75 62 75 96 c 0,10,11
 75 141 75 141 100.5 176.5 c 128,-1,12
 126 212 126 212 159 212 c 0,13,14
 189 212 189 212 207 198 c 128,-1,15
 225 184 225 184 241 155 c 128,-1,16
 257 126 257 126 263 118 c 0,17,18
 286 89 286 89 316.5 79.5 c 128,-1,19
 347 70 347 70 391 70 c 128,-1,20
 435 70 435 70 484 96.5 c 128,-1,21
 533 123 533 123 576 168.5 c 128,-1,22
 619 214 619 214 647 285.5 c 128,-1,23
 675 357 675 357 675 438 c 0,24,25
 675 464 675 464 671 489.5 c 128,-1,26
 667 515 667 515 652 548 c 128,-1,27
 637 581 637 581 612 605.5 c 128,-1,28
 587 630 587 630 540.5 647 c 128,-1,29
 494 664 494 664 433 664 c 0,30,31
 365 664 365 664 283 638 c 1,32,33
 271 646 271 646 255 666 c 1,34,35
 307 817 307 817 366 1026 c 128,-1,36
 425 1235 425 1235 435 1262 c 1,37,38
 843 1274 843 1274 903 1288 c 1,39,40
 923 1278 923 1278 923 1262 c 0,41,42
 923 1239 923 1239 900 1194.5 c 128,-1,43
 877 1150 877 1150 857 1122 c 1,44,45
 804 1110 804 1110 637.5 1106.5 c 128,-1,46
 471 1103 471 1103 465 1102 c 1,47,48
 462 1096 462 1096 443 1032.5 c 128,-1,49
 424 969 424 969 398.5 884 c 128,-1,50
 373 799 373 799 357 754 c 1,51,52
 388 766 388 766 451 778 c 128,-1,53
 514 790 514 790 551 790 c 0,54,55
 623 790 623 790 681 763 c 128,-1,56
 739 736 739 736 773.5 692 c 128,-1,57
 808 648 808 648 826.5 597 c 128,-1,58
 845 546 845 546 845 494 c 0,0,1
EndSplineSet
Substitution2: "'pnum' Proportional Numbers lookup 12-1" five.prop
Substitution2: "'onum' Oldstyle Figures in Latin lookup 5-1" five.onum
EndChar
StartChar: six
Encoding: 54 54 21
Width: 998
VWidth: 0
Flags: HW
LayerCount: 2
Fore
SplineSet
572 760 m 0
 647.333333333 760 709.5 730.666666667 758.5 672 c 128
 807.5 613.333333333 832 542.666666667 832 460 c 0
 832 384.666666667 809.5 310.166666667 764.5 236.5 c 128
 719.5 162.833333333 661.666666667 103 591 57 c 128
 520.333333333 11 449.333333333 -12 378 -12 c 0
 289.333333333 -12 218.166666667 20 164.5 84 c 128
 110.833333333 148 84 235.333333333 84 346 c 0
 84 430.666666667 104.833333333 525.5 146.5 630.5 c 128
 188.166666667 735.5 250 834.666666667 332 928 c 0
 392 996 473.333333333 1063 576 1129 c 128
 678.666666667 1195 786.666666667 1247.33333333 900 1286 c 1
 905.333333333 1286 909.333333333 1279.66666667 912 1267 c 128
 914.666666667 1254.33333333 915.333333333 1244 914 1236 c 1
 626 1113.33333333 432 934.666666667 332 700 c 0
 276 568 248 441.333333333 248 320 c 0
 248 275.333333333 252.5 234 261.5 196 c 128
 270.5 158 287 124.833333333 311 96.5 c 128
 335 68.1666666667 365.333333333 54 402 54 c 0
 429.333333333 54 458.666666667 63.6666666667 490 83 c 128
 521.333333333 102.333333333 550.5 128.5 577.5 161.5 c 128
 604.5 194.5 627 236.5 645 287.5 c 128
 663 338.5 672 392 672 448 c 0
 672 514 656.333333333 566.833333333 625 606.5 c 128
 593.666666667 646.166666667 545.333333333 666 480 666 c 0
 449.333333333 666 417.333333333 656.666666667 384 638 c 1
 376 643.333333333 372 650 372 658 c 0
 372 671.333333333 397.333333333 691.666666667 448 719 c 128
 498.666666667 746.333333333 540 760 572 760 c 0
EndSplineSet
Substitution2: "'pnum' Proportional Numbers lookup 12-1" six.prop
Substitution2: "'onum' Oldstyle Figures in Latin lookup 5-1" six.onum
EndChar
StartChar: seven
Encoding: 55 55 22
Width: 487
Flags: HW
LayerCount: 2
Fore
SplineSet
27 14 m 1
 65 62 115 131 174 219 c 128
 233 307 283 384 323 448 c 2
 384 544 l 1
 157 544 l 2
 149 544 140 542 132 537 c 128
 124 532 117 526 110 517 c 128
 103 508 97 501 93 494 c 128
 89 487 83 479 77 469 c 0
 76 467 74 466 70 466 c 0
 62 466 56 468 50 471 c 1
 51 474 61 496 80 537 c 128
 99 578 110 604 114 618 c 1
 394 618 l 2
 403 618 415 619 431 620 c 128
 447 621 454 621 455 621 c 0
 459 621 460 618 459 612 c 0
 458 609 457 605 454 600 c 128
 451 595 449 590 446 586 c 128
 443 582 439 575 433 566 c 128
 427 557 423 551 420 547 c 2
 74 -3 l 1
 72 -5 69 -6 64 -6 c 0
 57 -6 49 -3 40 1 c 128
 31 5 26 10 27 14 c 1
EndSplineSet
Substitution2: "'pnum' Proportional Numbers lookup 12-1" seven.prop
Substitution2: "'onum' Oldstyle Figures in Latin lookup 5-1" seven.onum
EndChar
StartChar: eight
Encoding: 56 56 23
Width: 487
Flags: HW
LayerCount: 2
Fore
SplineSet
318 628 m 0
 360 628 393 614 416 587 c 128
 439 560 446 524 438 479 c 0
 429 430 386 383 309 336 c 1
 305 335 305 333 308 330 c 1
 336 310 359 286 377 256 c 128
 395 226 401 195 395 163 c 0
 386 115 360 74 319 41 c 128
 278 8 234 -9 188 -9 c 0
 138 -9 100 6 74 35 c 128
 48 64 41 103 50 150 c 0
 53 165 58 181 66 195 c 128
 74 209 84 222 93 232 c 128
 102 242 113 253 126 263 c 128
 139 273 151 281 160 287 c 128
 169 293 179 299 190 305 c 0
 194 307 196 310 198 311 c 0
 202 314 203 315 200 316 c 1
 179 331 162 353 148 380 c 128
 134 407 131 436 137 469 c 1
 145 511 168 548 204 580 c 128
 240 612 278 628 318 628 c 0
307 594 m 0
 285 594 264 583 245 562 c 128
 226 541 213 514 206 480 c 1
 198 436 221 394 276 355 c 1
 279 354 280 354 281 354 c 0
 283 354 285 354 287 355 c 0
 334 384 362 425 372 475 c 0
 376 494 375 513 372 531 c 128
 369 549 362 564 350 576 c 128
 338 588 324 594 307 594 c 0
196 26 m 0
 226 26 252 36 274 56 c 128
 296 76 309 102 315 135 c 0
 318 150 318 165 313 181 c 128
 308 197 302 210 295 221 c 128
 288 232 279 243 268 254 c 128
 257 265 248 274 244 277 c 128
 240 280 235 284 229 288 c 1
 226 289 225 290 224 290 c 0
 222 290 221 290 220 289 c 0
 191 272 169 252 154 231 c 128
 139 210 128 184 122 153 c 0
 115 115 118 84 134 61 c 128
 150 38 170 26 196 26 c 0
EndSplineSet
Substitution2: "'pnum' Proportional Numbers lookup 12-1" eight.prop
Substitution2: "'onum' Oldstyle Figures in Latin lookup 5-1" eight.onum
EndChar
StartChar: nine
Encoding: 57 57 24
Width: 487
VWidth: 0
Flags: W
HStem: -6 21G<44 104> 251 46<190 270> 596 32<246 329>
VStem: 80 78<328 482> 365 80<337 553>
LayerCount: 2
Fore
SplineSet
207 251 m 0
 132 251 80 318 80 397 c 0
 80 510 196 628 302 628 c 0
 388 628 445 562 445 453 c 0
 445 377 409 266 324 169 c 0
 267 105 160 33 47 -6 c 1
 41 -6 39 13 40 19 c 1
 152 67 265 142 324 280 c 0
 357 358 365 412 365 466 c 0
 365 526 347 596 290 596 c 0
 237 596 158 518 158 403 c 0
 158 342 185 297 252 297 c 0
 275 297 290 306 299 311 c 1
 302 309 305 305 305 301 c 3
 305 289 240 251 207 251 c 0
EndSplineSet
Substitution2: "'pnum' Proportional Numbers lookup 12-1" nine.prop
Substitution2: "'onum' Oldstyle Figures in Latin lookup 5-1" nine.onum
EndChar
StartChar: colon
Encoding: 58 58 25
Width: 472
VWidth: 0
Flags: W
LayerCount: 2
Fore
SplineSet
166 734 m 0,0,1
 166 790 166 790 209 833 c 128,-1,2
 252 876 252 876 304 876 c 0,3,4
 344 876 344 876 369 849.5 c 128,-1,5
 394 823 394 823 394 782 c 0,6,7
 394 726 394 726 351.5 681 c 128,-1,8
 309 636 309 636 258 636 c 0,9,10
 218 636 218 636 192 664 c 128,-1,11
 166 692 166 692 166 734 c 0,0,1
38 68 m 0,12,13
 38 124 38 124 80 168 c 128,-1,14
 122 212 122 212 174 212 c 0,15,16
 214 212 214 212 239 184.5 c 128,-1,17
 264 157 264 157 264 116 c 0,18,19
 264 60 264 60 222 16 c 128,-1,20
 180 -28 180 -28 128 -28 c 0,21,22
 88 -28 88 -28 63 -0.5 c 128,-1,23
 38 27 38 27 38 68 c 0,12,13
EndSplineSet
Substitution2: "'smcp' Lowercase to Small Capitals in Latin lookup 3-1" colon.sc
EndChar
StartChar: semicolon
Encoding: 59 59 26
Width: 246
VWidth: 0
Flags: W
HStem: -106 232 311 117<117 187>
VStem: 33 84<0 117> 97 111<331 407>
LayerCount: 2
Fore
SplineSet
97 358 m 0xd0
 97 395 131 428 164 428 c 0
 190 428 208 408 208 382 c 0
 208 345 175 311 142 311 c 0
 116 311 97 331 97 358 c 0xd0
EndSplineSet
Refer: 11 44 N 1 0 0 1 11 0 2
Substitution2: "'smcp' Lowercase to Small Capitals in Latin lookup 3-1" semicolon.sc
EndChar
StartChar: less
Encoding: 60 60 27
Width: 436
VWidth: 0
Flags: HW
LayerCount: 2
Fore
SplineSet
85 204 m 1
 353 40 l 1
 353 40 354 39 354 35 c 0
 354 22 335 -14 330 -14 c 0
 329 -14 328 -14 326 -13 c 2
 21 173 l 2
 15 177 12 186 12 198 c 0
 12 212 17 226 34 235 c 2
 406 418 l 2
 408 419 409 419 410 419 c 0
 413 419 417 399 417 385 c 0
 417 382 416 367 412 365 c 2
 85 204 l 1
EndSplineSet
Substitution2: "'smcp' Lowercase to Small Capitals in Latin lookup 3-1" less.sc
EndChar
StartChar: equal
Encoding: 61 61 28
Width: 546
VWidth: 0
Flags: HW
LayerCount: 2
Fore
SplineSet
38 114 m 2
 35 114 33 116 33 120 c 0
 33 123 36 132 42 147 c 128
 48 162 52 169 56 169 c 2
 462 169 l 2
 466 169 468 167 468 164 c 0
 468 163 462 148 450 120 c 1
 443 114 l 1
 38 114 l 2
65 253 m 2
 62 253 62 255 62 259 c 0
 62 262 65 270 70 285 c 128
 75 300 79 308 83 308 c 2
 488 308 l 2
 492 308 494 306 494 303 c 0
 494 300 489 285 478 259 c 0
 477 257 475 256 474 255 c 128
 473 254 472 253 471 253 c 2
 470 253 l 1
 65 253 l 2
EndSplineSet
Substitution2: "'smcp' Lowercase to Small Capitals in Latin lookup 3-1" equal.sc
EndChar
StartChar: greater
Encoding: 62 62 29
Width: 896
VWidth: 0
Flags: HW
LayerCount: 2
Fore
SplineSet
678 418 m 1
 134 748 l 2
 131.333333333 749.333333333 130 752 130 756 c 0
 130 763.333333333 137.5 782.5 152.5 813.5 c 128
 167.5 844.5 177.333333333 860 182 860 c 1
 190 856 l 1
 804 482 l 2
 820 472.666666667 828 459.333333333 828 442 c 0
 828 438.666666667 827.5 434 826.5 428 c 128
 825.5 422 823.5 414.166666667 820.5 404.5 c 128
 817.5 394.833333333 812.5 385.333333333 805.5 376 c 128
 798.5 366.666666667 790 359.333333333 780 354 c 2
 10 -26 l 2
 4.66666666667 -28.6666666667 0.666666666667 -30 -2 -30 c 0
 -10 -30 -14 2 -14 66 c 0
 -14 68.6666666667 -13.1666666667 71.3333333333 -11.5 74 c 128
 -9.83333333333 76.6666666667 -8.16666666667 78.6666666667 -6.5 80 c 2
 -4 82 l 1
 678 418 l 1
EndSplineSet
Substitution2: "'smcp' Lowercase to Small Capitals in Latin lookup 3-1" greater.sc
EndChar
StartChar: question
Encoding: 63 63 30
Width: 312
VWidth: 0
Flags: W
HStem: -14 113<58 126> 568 48<178 260>
VStem: 39 107<7 81> 64 68<225 306> 271 50<456 557>
LayerCount: 2
Fore
SplineSet
39 31 m 0xe8
 39 68 71 100 103 100 c 0
 128 100 146 80 146 55 c 0
 146 19 112 -14 80 -14 c 0
 55 -14 39 6 39 31 c 0xe8
171 192 m 1
 171 188 166 180 161 177 c 1
 138 177 64 221 64 276 c 3
 64 317 87 339 112 357 c 0
 158 388 182 405 226 436 c 16
 246 450 271 473 271 510 c 3
 271 548 249 568 220 568 c 0
 177 568 177 523 140 523 c 0
 112 523 106 556 106 574 c 1
 111 589 153 616 190 616 c 0
 263 616 320 551 320 490 c 0
 320 449 309 418 277 389 c 0
 253 367 216 348 165 313 c 0
 141 296 133 281 133 255 c 27xd8
 133 227 160 200 171 192 c 1
EndSplineSet
Substitution2: "'smcp' Lowercase to Small Capitals in Latin lookup 3-1" question.sc
EndChar
StartChar: at
Encoding: 64 64 31
Width: 1518
VWidth: 0
Flags: W
LayerCount: 2
Fore
SplineSet
842 1154 m 3,0,1
 977 1154 977 1154 1084 1107.5 c 128,-1,2
 1191 1061 1191 1061 1258.5 979.5 c 128,-1,3
 1326 898 1326 898 1361 792 c 128,-1,4
 1396 686 1396 686 1396 564 c 0,5,6
 1396 446 1396 446 1364 346.5 c 128,-1,7
 1332 247 1332 247 1281.5 182.5 c 128,-1,8
 1231 118 1231 118 1168.5 72.5 c 128,-1,9
 1106 27 1106 27 1047 7.5 c 128,-1,10
 988 -12 988 -12 936 -12 c 0,11,12
 868 -12 868 -12 832 26.5 c 128,-1,13
 796 65 796 65 796 116 c 0,14,15
 796 144 796 144 806 196 c 0,16,17
 809 209 809 209 816 260 c 1,18,19
 796 225 796 225 766.5 184 c 128,-1,20
 737 143 737 143 696 97 c 128,-1,21
 655 51 655 51 608 20.5 c 128,-1,22
 561 -10 561 -10 520 -10 c 0,23,24
 439 -10 439 -10 391.5 56.5 c 128,-1,25
 344 123 344 123 344 230 c 0,26,27
 344 347 344 347 396 464.5 c 128,-1,28
 448 582 448 582 529.5 670.5 c 128,-1,29
 611 759 611 759 716 814.5 c 128,-1,30
 821 870 821 870 922 870 c 0,31,32
 997 870 997 870 1068 844 c 1,33,-1
 940 210 l 2,34,35
 925 140 925 140 941 100 c 128,-1,36
 957 60 957 60 994 60 c 0,37,38
 1066 60 1066 60 1141.5 134.5 c 128,-1,39
 1217 209 1217 209 1264.5 320.5 c 128,-1,40
 1312 432 1312 432 1312 534 c 0,41,42
 1312 788 1312 788 1186 936 c 128,-1,43
 1060 1084 1060 1084 826 1084 c 0,44,45
 725 1084 725 1084 624.5 1047 c 128,-1,46
 524 1010 524 1010 436 938.5 c 128,-1,47
 348 867 348 867 280.5 771 c 128,-1,48
 213 675 213 675 173.5 547.5 c 128,-1,49
 134 420 134 420 134 280 c 0,50,51
 134 163 134 163 186 56 c 128,-1,52
 238 -51 238 -51 320 -116 c 0,53,54
 371 -156 371 -156 412 -174 c 1,55,56
 395 -188 395 -188 348 -188 c 0,57,58
 314 -188 314 -188 269 -158 c 128,-1,59
 224 -128 224 -128 200 -98 c 0,60,61
 58 71 58 71 58 282 c 0,62,63
 58 430 58 430 99.5 565.5 c 128,-1,64
 141 701 141 701 214.5 807 c 128,-1,65
 288 913 288 913 386 991.5 c 128,-1,66
 484 1070 484 1070 601.5 1112 c 128,-1,67
 719 1154 719 1154 842 1154 c 3,0,1
826 790 m 3,68,69
 751 790 751 790 672.5 716 c 128,-1,70
 594 642 594 642 543 527 c 128,-1,71
 492 412 492 412 492 300 c 0,72,73
 492 106 492 106 594 106 c 0,74,75
 642 106 642 106 701.5 176 c 128,-1,76
 761 246 761 246 808 348 c 128,-1,77
 855 450 855 450 874 546 c 2,78,-1
 916 760 l 1,79,80
 904 774 904 774 876 782 c 128,-1,81
 848 790 848 790 826 790 c 3,68,69
EndSplineSet
Substitution2: "'smcp' Lowercase to Small Capitals in Latin lookup 3-1" at.sc
EndChar
StartChar: A
Encoding: 65 65 32
Width: 572
Flags: W
HStem: -3 28<-51 2 77 131 329 382 489 537> 250 32<188 359> 628 20G<373 378>
LayerCount: 2
Fore
SplineSet
333 25 m 1
 368 25 389 36 389 56 c 0
 389 66 389 85 386 104 c 2
 364 250 l 1
 170 250 l 1
 137 190 109 139 100 122 c 0
 82 88 72 64 72 49 c 0
 72 28 125 25 132 25 c 1
 134 22 131 3 128 -3 c 1
 92 -1 82 2 42 2 c 0
 0 2 -12 -1 -54 -3 c 1
 -56 0 -52 18 -48 25 c 1
 -37 25 -5 31 7 44 c 0
 31 69 48 101 68 136 c 2
 337 619 l 2
 346 635 368 647 376 647 c 0
 379 647 380 646 381 645 c 1
 465 123 l 2
 471 86 476 61 477 57 c 0
 483 29 531 25 538 25 c 1
 541 18 537 0 535 -3 c 1
 499 -1 468 2 428 2 c 0
 386 2 369 -1 327 -3 c 1
 323 2 327 20 333 25 c 1
188 282 m 1
 359 282 l 1
 321 522 l 1
 188 282 l 1
EndSplineSet
EndChar
StartChar: B
Encoding: 66 66 33
Width: 552
Flags: W
HStem: -3 28<-3 66 160 299> 331 30<213 342> 615 28<118 176 247 375>
VStem: 399 93<130 290> 423 86<444 579>
LayerCount: 2
Fore
SplineSet
213 361 m 1xe8
 305 361 l 2
 370 361 423 427 423 510 c 0
 423 565 396 615 312 615 c 0
 301 615 269 614 264 605 c 0
 257 593 251 561 246 532 c 2
 213 361 l 1xe8
206 331 m 1
 163 111 l 2
 160 97 153 49 158 42 c 0
 169 26 193 25 226 25 c 0
 326 25 399 94 399 215 c 0xf0
 399 244 402 331 262 331 c 2
 206 331 l 1
228 642 m 0
 263 642 303 644 357 644 c 0
 440 644 509 608 509 524 c 0xe8
 509 426 431 378 392 357 c 1
 436 353 492 301 492 221 c 0
 492 88 370 -3 205 -3 c 0
 -4 -3 l 1
 -8 2 -4 20 1 25 c 1
 12 25 62 30 67 41 c 0
 75 57 79 84 85 113 c 2
 166 530 l 2
 172 559 177 588 176 603 c 0
 176 615 128 618 117 618 c 1
 114 623 116 641 122 646 c 1
 159 644 193 642 228 642 c 0
EndSplineSet
EndChar
StartChar: C
Encoding: 67 67 34
Width: 1290
Flags: W
LayerCount: 2
Fore
SplineSet
1138 346 m 1,0,1
 1150 346 1150 346 1164 342 c 128,-1,2
 1178 338 1178 338 1186 334 c 2,3,-1
 1194 330 l 1,4,5
 1188 298 1188 298 1129.5 185.5 c 128,-1,6
 1071 73 1071 73 1050 56 c 1,7,8
 971 15 971 15 882.5 -0.5 c 128,-1,9
 794 -16 794 -16 660 -16 c 0,10,11
 502 -16 502 -16 377 59 c 128,-1,12
 252 134 252 134 185 258 c 128,-1,13
 118 382 118 382 118 530 c 0,14,15
 118 677 118 677 162.5 807 c 128,-1,16
 207 937 207 937 284.5 1033 c 128,-1,17
 362 1129 362 1129 464.5 1198 c 128,-1,18
 567 1267 567 1267 686.5 1300.5 c 128,-1,19
 806 1334 806 1334 930 1332 c 0,20,21
 1048 1330 1048 1330 1252 1280 c 1,22,23
 1240 1061 1240 1061 1232 988 c 0,24,25
 1230 978 1230 978 1216 978 c 0,26,27
 1190 978 1190 978 1170 988 c 1,28,29
 1177 1106 1177 1106 1088.5 1188 c 128,-1,30
 1000 1270 1000 1270 872 1270 c 0,31,32
 755 1270 755 1270 652 1220 c 128,-1,33
 549 1170 549 1170 472.5 1080.5 c 128,-1,34
 396 991 396 991 352 857 c 128,-1,35
 308 723 308 723 308 564 c 0,36,37
 308 489 308 489 321.5 418 c 128,-1,38
 335 347 335 347 366 278 c 128,-1,39
 397 209 397 209 442.5 157 c 128,-1,40
 488 105 488 105 558.5 73.5 c 128,-1,41
 629 42 629 42 716 42 c 0,42,43
 979 42 979 42 1138 346 c 1,0,1
EndSplineSet
EndChar
StartChar: D
Encoding: 68 68 35
Width: 667
Flags: W
HStem: -3 28<-3 66 156 315> 616 25<118 176 264 414>
LayerCount: 2
Fore
SplineSet
246 533 m 2
 163 109 l 2
 160 95 152 45 155 39 c 0
 160 28 194 25 227 25 c 0
 367 25 500 116 537 306 c 0
 580 527 479 616 330 616 c 0
 319 616 269 615 264 605 c 0
 256 589 251 561 246 533 c 2
360 643 m 0
 570 643 665 507 630 326 c 0
 598 160 488 -2 223 -3 c 1
 -4 -3 l 1
 -8 2 -4 20 1 25 c 1
 12 25 62 30 67 41 c 0
 75 57 79 84 85 113 c 2
 166 530 l 2
 172 559 178 587 176 603 c 0
 175 614 128 618 117 618 c 1
 114 623 116 641 122 646 c 1
 159 644 193 642 228 642 c 0
 263 642 320 643 360 643 c 0
EndSplineSet
EndChar
StartChar: E
Encoding: 69 69 36
Width: 1108
Flags: W
LayerCount: 2
Back
SplineSet
834 1260 m 1,0,-1
 674 1260 l 2,1,2
 553 1260 553 1260 542 1238 c 0,3,4
 521 1196 521 1196 502 1094 c 0
EndSplineSet
Fore
SplineSet
466 1314 m 0,0,1
 550 1314 550 1314 756 1321 c 128,-1,2
 962 1328 962 1328 1066 1328 c 1,3,4
 1062 1303 1062 1303 1065 1188 c 128,-1,5
 1068 1073 1068 1073 1068 1056 c 1,6,7
 1058 1046 1058 1046 1032 1046 c 0,8,9
 1010 1046 1010 1046 1010 1060 c 0,10,11
 1003 1173 1003 1173 958.5 1216.5 c 128,-1,12
 914 1260 914 1260 834 1260 c 2,13,-1
 674 1260 l 2,14,15
 553 1260 553 1260 542 1238 c 0,16,17
 521 1196 521 1196 502 1094 c 2,18,-1
 428 710 l 2,19,20
 427 706 427 706 433.5 703.5 c 128,-1,21
 440 701 440 701 451.5 700 c 128,-1,22
 463 699 463 699 476 698.5 c 128,-1,23
 489 698 489 698 506 698 c 2,24,-1
 604 698 l 2,25,26
 650 698 650 698 676 699 c 128,-1,27
 702 700 702 700 725.5 705 c 128,-1,28
 749 710 749 710 761 717.5 c 128,-1,29
 773 725 773 725 785 740 c 128,-1,30
 797 755 797 755 806 774 c 128,-1,31
 815 793 815 793 827.845623473 823.341505471 c 0,32,33
 833 835 833 835 836 842 c 0,34,35
 842 856 842 856 868 856 c 0,36,37
 889 856 889 856 896 846 c 1,38,-1
 824 468 l 1,39,40
 816 460 816 460 792 460 c 0,41,42
 769 460 769 460 766 476 c 1,43,44
 762 557 762 557 756.5 581.5 c 128,-1,45
 751 606 751 606 740 616 c 1,46,47
 719 632 719 632 546 632 c 0,48,49
 412 632 412 632 408 614 c 2,50,-1
 330 218 l 2,51,52
 305 91 305 91 316 80 c 0,53,54
 330 66 330 66 354 63 c 128,-1,55
 378 60 378 60 444 60 c 2,56,-1
 532 60 l 2,57,58
 686 60 686 60 780 122 c 0,59,60
 869 181 869 181 936 324 c 0,61,62
 942 336 942 336 966 336 c 0,63,64
 1002 336 1002 336 1010 324 c 1,65,66
 997 299 997 299 953 218 c 128,-1,67
 909 137 909 137 883 84.5 c 128,-1,68
 857 32 857 32 844 -8 c 1,69,70
 749 -8 749 -8 545.5 -4 c 128,-1,71
 342 0 342 0 212 0 c 0,72,73
 166 0 166 0 95 -3 c 128,-1,74
 24 -6 24 -6 -10 -6 c 1,75,76
 -16 2 -16 2 -12 23 c 128,-1,77
 -8 44 -8 44 0 52 c 1,78,79
 28 52 28 52 79 61 c 128,-1,80
 130 70 130 70 136 84 c 0,81,82
 150 112 150 112 174 232 c 2,83,-1
 340 1086 l 2,84,85
 362 1198 362 1198 358 1234 c 0,86,87
 357 1248 357 1248 310.5 1257 c 128,-1,88
 264 1266 264 1266 236 1266 c 1,89,90
 231 1273 231 1273 235 1295 c 128,-1,91
 239 1317 239 1317 248 1324 c 1,92,93
 438 1314 438 1314 466 1314 c 0,0,1
EndSplineSet
EndChar
StartChar: F
Encoding: 70 70 37
Width: 496
Flags: HW
LayerCount: 2
Fore
SplineSet
228 642 m 0
 255 642 302 643 369 645 c 128
 436 647 487 648 521 648 c 1
 520 640 519 617 520 580 c 128
 521 543 521 522 521 516 c 1
 518 513 512 511 504 511 c 0
 497 511 493 513 493 518 c 0
 491 555 482 580 468 594 c 128
 454 608 433 615 407 615 c 2
 329 615 l 2
 290 615 269 611 265 604 c 0
 258 590 251 567 245 534 c 2
 209 347 l 2
 209 346 210 345 212 344 c 128
 214 343 216 342 220 342 c 128
 224 342 228 341 232 341 c 128
 236 341 241 341 247 341 c 2
 295 341 l 2
 310 341 322 341 330 341 c 128
 338 341 346 342 354 344 c 128
 362 346 368 348 372 350 c 128
 376 352 379 356 383 361 c 128
 387 366 391 372 394 378 c 128
 397 384 400 392 404 402 c 0
 406 406 407 409 408 411 c 0
 410 416 416 418 424 418 c 0
 431 418 436 416 438 413 c 1
 402 229 l 1
 399 226 395 225 387 225 c 0
 380 225 375 227 374 232 c 1
 373 258 371 276 369 284 c 128
 367 292 365 298 361 301 c 1
 354 306 323 309 267 309 c 0
 223 309 200 306 199 300 c 2
 163 113 l 2
 156 77 153 53 154 41 c 0
 154 36 163 33 181 30 c 128
 199 27 213 25 223 25 c 1
 225 23 224 18 223 11 c 128
 222 4 220 -1 217 -3 c 1
 155 0 117 2 103 2 c 0
 88 2 69 2 46 -0 c 128
 23 -2 6 -3 -5 -3 c 1
 -7 0 -7 4 -6 11 c 128
 -5 18 -3 22 0 25 c 1
 9 25 22 27 39 30 c 128
 56 33 64 36 66 41 c 0
 71 50 77 74 85 113 c 2
 166 530 l 2
 173 566 176 591 175 603 c 0
 175 608 167 611 152 614 c 128
 137 617 124 618 115 618 c 1
 113 620 114 625 115 632 c 128
 116 639 118 644 121 646 c 1
 183 643 219 642 228 642 c 0
EndSplineSet
EndChar
StartChar: G
Encoding: 71 71 38
Width: 680
Flags: W
HStem: -8 28<276 418> 259 28<432 495 583 648> 620 30<344 493>
VStem: 58 93<156 387> 495 57<110 131> 571 30<478 549>
LayerCount: 2
Fore
SplineSet
571 482 m 1
 576 560 508 620 426 620 c 0
 274 620 149 487 150 275 c 0
 150 159 205 21 347 21 c 0
 394 21 435 40 456 54 c 0
 461 58 465 63 466 70 c 0
 471 96 485 171 485 171 c 2
 491 200 497 227 495 243 c 0
 494 254 442 259 431 259 c 1
 428 264 430 282 436 287 c 1
 473 285 506 282 541 282 c 0
 576 282 610 285 648 287 c 1
 652 282 650 264 645 259 c 1
 634 259 587 254 582 243 c 0
 574 227 569 200 563 171 c 2
 550 102 l 2
 546 81 552 76 552 66 c 0
 552 60 547 54 530 45 c 0
 485 22 436 -8 316 -8 c 0
 166 -8 58 114 58 259 c 0
 58 505 251 654 454 650 c 0
 511 649 563 637 611 625 c 1
 609 590 604 511 602 482 c 0
 602 479 598 478 594 478 c 1
 588 478 579 478 571 482 c 1
EndSplineSet
EndChar
StartChar: H
Encoding: 72 72 39
Width: 669
Flags: HW
LayerCount: 2
Fore
SplineSet
164 113 m 1
 157 72 153 48 154 41 c 0
 154 36 162 33 177 30 c 128
 192 27 204 25 213 25 c 1
 215 23 215 18 214 11 c 128
 213 4 211 -1 208 -3 c 1
 146 0 111 2 103 2 c 0
 94 2 58 0 -5 -3 c 1
 -7 0 -7 4 -6 11 c 128
 -5 18 -3 22 -0 25 c 1
 9 25 21 27 38 30 c 128
 55 33 64 36 66 41 c 0
 71 50 76 74 84 113 c 2
 166 530 l 2
 173 566 175 591 174 603 c 0
 174 608 166 611 151 614 c 128
 136 617 124 618 115 618 c 1
 113 620 113 625 114 632 c 128
 115 639 118 644 121 646 c 1
 183 643 218 642 227 642 c 0
 235 642 271 643 334 646 c 1
 336 643 337 639 335 632 c 128
 333 625 332 621 329 618 c 1
 320 618 307 617 291 614 c 128
 275 611 265 608 263 603 c 0
 257 592 252 567 245 530 c 2
 209 348 l 1
 495 348 l 1
 530 530 l 2
 537 568 540 593 539 603 c 0
 539 608 530 611 515 614 c 128
 500 617 488 618 479 618 c 1
 477 620 478 625 479 632 c 128
 480 639 482 644 485 646 c 1
 547 643 582 642 591 642 c 0
 599 642 636 643 699 646 c 1
 701 643 701 639 699 632 c 128
 697 625 696 621 693 618 c 1
 684 618 671 617 655 614 c 128
 639 611 629 608 627 603 c 0
 622 594 617 569 609 530 c 2
 528 113 l 1
 520 75 517 51 518 41 c 0
 518 36 526 33 541 30 c 128
 556 27 569 25 578 25 c 1
 580 23 579 18 578 11 c 128
 577 4 575 -1 572 -3 c 1
 510 0 474 2 466 2 c 0
 458 2 422 0 359 -3 c 1
 357 0 357 4 358 11 c 128
 359 18 361 22 364 25 c 1
 373 25 385 27 402 30 c 128
 419 33 428 36 430 41 c 0
 435 50 441 74 449 113 c 2
 487 309 l 1
 202 309 l 1
 164 113 l 1
EndSplineSet
EndChar
StartChar: I
Encoding: 73 73 40
Width: 626
Flags: W
LayerCount: 2
Fore
SplineSet
465 1314 m 0,0,1
 490 1314 490 1314 685 1324 c 1,2,3
 691 1316 691 1316 686 1295 c 128,-1,4
 681 1274 681 1274 673 1266 c 1,5,6
 645 1266 645 1266 595 1257 c 128,-1,7
 545 1248 545 1248 539 1234 c 0,8,9
 525 1206 525 1206 501 1086 c 2,10,-1
 335 232 l 1,11,12
 311 114 311 114 315 84 c 0,13,14
 316 70 316 70 362.5 61 c 128,-1,15
 409 52 409 52 437 52 c 1,16,17
 442 45 442 45 438 23 c 128,-1,18
 434 1 434 1 425 -6 c 1,19,20
 235 4 235 4 211 4 c 0,21,22
 184 4 184 4 -11 -6 c 1,23,24
 -17 2 -17 2 -13 23 c 128,-1,25
 -9 44 -9 44 -1 52 c 1,26,27
 27 52 27 52 78 61 c 128,-1,28
 129 70 129 70 135 84 c 0,29,30
 149 112 149 112 173 232 c 2,31,-1
 339 1086 l 2,32,33
 361 1198 361 1198 357 1234 c 0,34,35
 356 1248 356 1248 309.5 1257 c 128,-1,36
 263 1266 263 1266 235 1266 c 1,37,38
 230 1273 230 1273 234 1295 c 128,-1,39
 238 1317 238 1317 247 1324 c 1,40,41
 437 1314 437 1314 465 1314 c 0,0,1
EndSplineSet
EndChar
StartChar: J
Encoding: 74 74 41
Width: 305
Flags: HW
LayerCount: 2
Fore
SplineSet
160 530 m 2
 167 568 169 593 168 603 c 0
 168 608 160 611 145 614 c 128
 130 617 118 618 109 618 c 1
 107 620 107 625 108 632 c 128
 109 639 112 644 115 646 c 1
 177 643 212 642 221 642 c 0
 229 642 266 643 329 646 c 1
 331 643 331 639 329 632 c 128
 327 625 326 621 323 618 c 1
 314 618 301 617 285 614 c 128
 269 611 259 608 257 603 c 0
 251 592 246 567 239 530 c 2
 160 113 l 2
 151 64 138 19 122 -21 c 128
 106 -61 88 -93 69 -118 c 128
 50 -143 31 -164 10 -181 c 128
 -11 -198 -31 -210 -50 -217 c 128
 -69 -224 -86 -228 -103 -228 c 1
 -105 -225 -105 -221 -105 -215 c 1
 -104 -209 l 1
 -51 -192 -12 -160 15 -112 c 128
 42 -64 64 8 82 106 c 2
 160 530 l 2
EndSplineSet
EndChar
StartChar: K
Encoding: 75 75 42
Width: 1228
Flags: W
LayerCount: 2
Fore
SplineSet
961 144 m 1,0,1
 994 104 994 104 1035 81 c 128,-1,2
 1076 58 1076 58 1145 52 c 1,3,4
 1150 46 1150 46 1144 24.5 c 128,-1,5
 1138 3 1138 3 1133 -6 c 1,6,7
 926 -6 926 -6 873 16 c 0,8,9
 807 44 807 44 763 102 c 1,10,11
 716 168 716 168 443 608 c 1,12,13
 441 614 441 614 427 614 c 0,14,15
 417 614 417 614 409 610 c 1,16,-1
 335 232 l 2,17,18
 313 120 313 120 317 84 c 0,19,20
 318 70 318 70 364.5 61 c 128,-1,21
 411 52 411 52 439 52 c 1,22,23
 444 45 444 45 440 23 c 128,-1,24
 436 1 436 1 427 -6 c 1,25,26
 237 4 237 4 211 4 c 0,27,28
 186 4 186 4 -9 -6 c 1,29,30
 -15 2 -15 2 -11 23 c 128,-1,31
 -7 44 -7 44 1 52 c 1,32,33
 29 52 29 52 79 61 c 128,-1,34
 129 70 129 70 135 84 c 0,35,36
 149 112 149 112 173 232 c 2,37,-1
 339 1086 l 1,38,39
 363 1204 363 1204 359 1234 c 0,40,41
 358 1248 358 1248 311.5 1257 c 128,-1,42
 265 1266 265 1266 237 1266 c 1,43,44
 232 1273 232 1273 236 1295 c 128,-1,45
 240 1317 240 1317 249 1324 c 1,46,47
 439 1314 439 1314 467 1314 c 0,48,49
 490 1314 490 1314 685 1324 c 1,50,51
 691 1316 691 1316 687 1295 c 128,-1,52
 683 1274 683 1274 675 1266 c 1,53,54
 647 1266 647 1266 596 1257 c 128,-1,55
 545 1248 545 1248 539 1234 c 0,56,57
 525 1206 525 1206 501 1086 c 2,58,-1
 423 680 l 1,59,60
 486 717 486 717 671 878 c 0,61,62
 694 898 694 898 735.5 934.5 c 128,-1,63
 777 971 777 971 787 979.5 c 128,-1,64
 797 988 797 988 823 1011.5 c 128,-1,65
 849 1035 849 1035 856.5 1042.5 c 128,-1,66
 864 1050 864 1050 884.5 1070.5 c 128,-1,67
 905 1091 905 1091 920 1107.5 c 128,-1,68
 935 1124 935 1124 961 1152 c 1,69,70
 994 1190 994 1190 999 1214 c 0,71,72
 1002 1231 1002 1231 991.5 1242.5 c 128,-1,73
 981 1254 981 1254 960.5 1258 c 128,-1,74
 940 1262 940 1262 929 1263 c 128,-1,75
 918 1264 918 1264 905 1264 c 1,76,77
 902 1273 902 1273 906 1291.5 c 128,-1,78
 910 1310 910 1310 917 1324 c 1,79,80
 939 1323 939 1323 982.5 1319.5 c 128,-1,81
 1026 1316 1026 1316 1061.5 1314 c 128,-1,82
 1097 1312 1097 1312 1127 1312 c 0,83,84
 1175 1312 1175 1312 1244 1317.5 c 128,-1,85
 1313 1323 1313 1323 1331 1324 c 1,86,87
 1333 1313 1333 1313 1327.5 1288.5 c 128,-1,88
 1322 1264 1322 1264 1315 1264 c 0,89,90
 1314 1264 1314 1264 1303 1263.5 c 128,-1,91
 1292 1263 1292 1263 1281.5 1261.5 c 128,-1,92
 1271 1260 1271 1260 1254.5 1257.5 c 128,-1,93
 1238 1255 1238 1255 1221.5 1249.5 c 128,-1,94
 1205 1244 1205 1244 1187.5 1236.5 c 128,-1,95
 1170 1229 1170 1229 1151.5 1217 c 128,-1,96
 1133 1205 1133 1205 1117 1190 c 0,97,98
 1047 1123 1047 1123 974.5 1057 c 128,-1,99
 902 991 902 991 866 959.5 c 128,-1,100
 830 928 830 928 730.5 842 c 128,-1,101
 631 756 631 756 603 732 c 0,102,103
 588 719 588 719 599 700 c 0,104,105
 692 546 692 546 733.5 479.5 c 128,-1,106
 775 413 775 413 841.5 312.5 c 128,-1,107
 908 212 908 212 961 144 c 1,0,1
EndSplineSet
EndChar
StartChar: L
Encoding: 76 76 43
Width: 517
Flags: W
HStem: 0 29<-1 68 155 348> 618 28<118 176 265 333>
LayerCount: 2
Fore
SplineSet
162 109 m 2
 159 94 149 44 154 39 c 0
 164 29 179 29 217 29 c 2
 269 29 l 2
 303 29 344 39 374 56 c 0
 403 73 433 106 457 158 c 0
 459 162 465 164 472 164 c 0
 481 164 492 161 494 158 c 1
 467 105 428 39 413 -4 c 1
 314 -4 225 0 104 0 c 0
 61 0 31 -3 -4 -3 c 1
 -8 2 -4 20 1 25 c 1
 12 25 62 30 67 41 c 0
 75 57 79 84 85 113 c 2
 166 530 l 2
 172 559 178 587 176 603 c 0
 175 614 128 618 117 618 c 1
 114 623 116 641 122 646 c 1
 159 644 193 642 228 642 c 0
 263 642 297 644 335 646 c 1
 339 641 335 623 330 618 c 1
 319 618 269 614 264 603 c 0
 256 587 251 559 246 530 c 2
 162 109 l 2
EndSplineSet
EndChar
StartChar: M
Encoding: 77 77 44
Width: 1676
Flags: W
LayerCount: 2
Fore
SplineSet
794 98 m 2,0,1
 783 78 783 78 750.5 38.5 c 128,-1,2
 718 -1 718 -1 704 -4 c 0,3,4
 702 -5 702 -5 688 0 c 1,5,-1
 460 1168 l 1,6,7
 419 976 419 976 364.5 726 c 128,-1,8
 310 476 310 476 274.5 314.5 c 128,-1,9
 239 153 239 153 238 150 c 0,10,11
 230 116 230 116 234 88 c 1,12,13
 238 69 238 69 290.5 60.5 c 128,-1,14
 343 52 343 52 374 52 c 1,15,16
 378 44 378 44 374 22 c 128,-1,17
 370 -0 370 -0 366 -6 c 1,18,19
 341 -5 341 -5 304.5 -2 c 128,-1,20
 268 1 268 1 238.5 2.5 c 128,-1,21
 209 4 209 4 172 4 c 0,22,23
 134 4 134 4 100 2.5 c 128,-1,24
 66 1 66 1 24 -2 c 128,-1,25
 -18 -5 -18 -5 -48 -6 c 1,26,27
 -50 -2 -50 -2 -46.5 19.5 c 128,-1,28
 -43 41 -43 41 -36 52 c 1,29,30
 -6 52 -6 52 50 61.5 c 128,-1,31
 106 71 106 71 120 88 c 0,32,33
 145 118 145 118 162 188 c 0,34,35
 355 1031 355 1031 374 1144 c 1,36,37
 386 1201 386 1201 382 1224 c 1,38,39
 381 1240 381 1240 332.5 1253 c 128,-1,40
 284 1266 284 1266 260 1266 c 1,41,42
 257 1275 257 1275 261.5 1297.5 c 128,-1,43
 266 1320 266 1320 272 1324 c 1,44,45
 388 1316 388 1316 452 1316 c 0,46,47
 530 1316 530 1316 614 1324 c 1,48,49
 619 1269 619 1269 669.5 1007 c 128,-1,50
 720 745 720 745 767.5 511.5 c 128,-1,51
 815 278 815 278 814 278 c 128,-1,52
 813 278 813 278 925.5 479.5 c 128,-1,53
 1038 681 1038 681 1151 882.5 c 2,54,-1
 1264 1084 l 1,55,-1
 1392 1324 l 1,56,57
 1508 1316 1508 1316 1532 1316 c 0,58,59
 1620 1316 1620 1316 1716 1324 c 1,60,-1
 1712 1266 l 1,61,62
 1686 1266 1686 1266 1633.5 1254.5 c 128,-1,63
 1581 1243 1581 1243 1572 1230 c 1,64,65
 1556 1201 1556 1201 1548 1154 c 2,66,-1
 1396 280 l 2,67,68
 1372 146 1372 146 1382 86 c 0,69,70
 1385 68 1385 68 1430.5 60 c 128,-1,71
 1476 52 1476 52 1504 52 c 1,72,73
 1508 37 1508 37 1505 18.5 c 128,-1,74
 1502 -0 1502 -0 1498 -6 c 1,75,76
 1313 4 1313 4 1278 4 c 0,77,78
 1267 4 1267 4 1052 -6 c 1,79,80
 1050 -2 1050 -2 1053.5 19.5 c 128,-1,81
 1057 41 1057 41 1064 52 c 1,82,83
 1086 52 1086 52 1129.5 58.5 c 128,-1,84
 1173 65 1173 65 1190 74 c 0,85,86
 1206 83 1206 83 1222 158 c 0,87,88
 1225 170 1225 170 1250 324.5 c 128,-1,89
 1275 479 1275 479 1315.5 731 c 128,-1,90
 1356 983 1356 983 1380 1132 c 1,91,-1
 794 98 l 2,0,1
EndSplineSet
EndChar
StartChar: N
Encoding: 78 78 45
Width: 1464
Flags: HW
LayerCount: 2
Fore
SplineSet
1256 1082 m 2
 1269.33333333 1152 1271.33333333 1200 1262 1226 c 0
 1257.33333333 1238 1239.33333333 1247.66666667 1208 1255 c 128
 1176.66666667 1262.33333333 1150 1266 1128 1266 c 1
 1125.33333333 1273.33333333 1124.83333333 1283.5 1126.5 1296.5 c 128
 1128.16666667 1309.5 1130.66666667 1318.66666667 1134 1324 c 1
 1232.66666667 1318.66666667 1300.66666667 1316 1338 1316 c 0
 1362 1316 1431.33333333 1318.66666667 1546 1324 c 1
 1553.33333333 1305.33333333 1550.66666667 1286 1538 1266 c 1
 1520.66666667 1266 1493.33333333 1262.33333333 1456 1255 c 128
 1418.66666667 1247.66666667 1396 1238.66666667 1388 1228 c 0
 1377.33333333 1213.33333333 1369.16666667 1197 1363.5 1179 c 128
 1357.83333333 1161 1351.33333333 1132 1344 1092 c 2
 1186 278 l 2
 1161.33333333 149.333333333 1144.66666667 56 1136 -2 c 1
 1130.66666667 -7.33333333333 1119.33333333 -10 1102 -10 c 0
 1093.33333333 -10 1083.83333333 -5.66666666667 1073.5 3 c 128
 1063.16666667 11.6666666667 1054.66666667 22.6666666667 1048 36 c 2
 448 1138 l 1
 272 230 l 2
 264 189.333333333 259.333333333 161.333333333 258 146 c 128
 256.666666667 130.666666667 258.666666667 112.666666667 264 92 c 1
 267.333333333 82.6666666667 286 73.6666666667 320 65 c 128
 354 56.3333333333 380 52 398 52 c 1
 400.666666667 44 400.833333333 34.1666666667 398.5 22.5 c 128
 396.166666667 10.8333333333 393.333333333 1.33333333333 390 -6 c 1
 266.666666667 0.666666666667 197.333333333 4 182 4 c 0
 156.666666667 4 133.666666667 3.5 113 2.5 c 128
 92.3333333333 1.5 69.5 0 44.5 -2 c 128
 19.5 -4 -3.33333333333 -5.33333333333 -24 -6 c 1
 -26.6666666667 -2 -27 6.16666666667 -25 18.5 c 128
 -23 30.8333333333 -18.6666666667 42 -12 52 c 1
 5.33333333333 52 33 56 71 64 c 128
 109 72 132 81.3333333333 140 92 c 0
 158.666666667 117.333333333 174 162.666666667 186 228 c 2
 354 1096 l 2
 361.333333333 1136.66666667 365.666666667 1165 367 1181 c 128
 368.333333333 1197 366.666666667 1214 362 1232 c 0
 358.666666667 1242.66666667 340 1251 306 1257 c 128
 272 1263 245.333333333 1266 226 1266 c 1
 220 1288.66666667 223.333333333 1308 236 1324 c 1
 348 1318.66666667 404.666666667 1316 406 1316 c 0
 446 1316 500.666666667 1318.66666667 570 1324 c 1
 590.666666667 1272 673 1118.83333333 817 864.5 c 128
 961 610.166666667 1058 430 1108 324 c 1
 1256 1082 l 2
EndSplineSet
EndChar
StartChar: O
Encoding: 79 79 46
Width: 693
Flags: W
HStem: -11 28<255 383> 620 29<332 462>
VStem: 60 92<146 395> 564 92<240 489>
LayerCount: 2
Fore
SplineSet
396 620 m 0
 273 620 151 467 151 262 c 0
 151 150 186 18 320 18 c 0
 469 18 564 209 564 384 c 0
 564 478 534 620 396 620 c 0
405 649 m 0
 559 649 656 529 656 373 c 0
 656 144 500 -11 312 -11 c 0
 154 -11 60 113 60 267 c 0
 60 492 227 649 405 649 c 0
EndSplineSet
EndChar
StartChar: P
Encoding: 80 80 47
Width: 499
Flags: HW
LayerCount: 2
Fore
SplineSet
510 496 m 0
 510 455 499 418 478 384 c 128
 457 350 429 323 394 304 c 128
 359 285 322 275 283 275 c 0
 274 275 264 277 256 279 c 128
 248 281 242 283 239 285 c 1
 234 290 231 296 231 301 c 0
 231 302 232 304 235 305 c 1
 240 302 252 301 268 301 c 0
 286 301 305 305 323 314 c 128
 341 323 358 335 373 350 c 128
 388 365 400 385 409 408 c 128
 418 431 423 456 423 482 c 0
 423 571 386 615 311 615 c 0
 283 615 268 612 264 605 c 0
 260 598 253 574 245 532 c 2
 163 113 l 1
 156 75 153 51 154 41 c 0
 154 36 162 33 177 30 c 128
 192 27 204 25 213 25 c 1
 215 23 215 18 214 11 c 128
 213 4 211 -1 208 -3 c 1
 146 0 110 2 102 2 c 0
 94 2 58 0 -5 -3 c 1
 -7 0 -7 4 -6 11 c 128
 -5 18 -3 22 -0 25 c 1
 9 25 21 27 38 30 c 128
 55 33 64 36 66 41 c 0
 71 50 76 74 84 113 c 2
 166 530 l 2
 173 566 175 591 174 603 c 0
 174 608 166 611 151 614 c 128
 136 617 124 618 115 618 c 1
 113 620 113 625 114 632 c 128
 115 639 118 644 121 646 c 1
 183 643 219 642 229 642 c 0
 239 642 254 642 274 643 c 128
 294 644 314 644 334 644 c 0
 386 644 428 630 461 603 c 128
 494 576 510 540 510 496 c 0
EndSplineSet
EndChar
StartChar: Q
Encoding: 81 81 48
Width: 1420
Flags: HW
LayerCount: 2
Fore
SplineSet
830 1330 m 0
 932.666666667 1330 1023.33333333 1305 1102 1255 c 128
 1180.66666667 1205 1240.66666667 1137.33333333 1282 1052 c 128
 1323.33333333 966.666666667 1344 870.666666667 1344 764 c 0
 1344 663.333333333 1329.33333333 568.333333333 1300 479 c 128
 1270.66666667 389.666666667 1230.33333333 312.166666667 1179 246.5 c 128
 1127.66666667 180.833333333 1067.16666667 125.833333333 997.5 81.5 c 128
 927.833333333 37.1666666667 852.666666667 7 772 -9 c 1
 794.666666667 -22.3333333333 825.5 -41.6666666667 864.5 -67 c 128
 903.5 -92.3333333333 932.166666667 -109.833333333 950.5 -119.5 c 128
 968.833333333 -129.166666667 995.666666667 -138.666666667 1031 -148 c 128
 1066.33333333 -157.333333333 1105.66666667 -162 1149 -162 c 0
 1210.33333333 -162 1271.33333333 -153.333333333 1332 -136 c 1
 1338.66666667 -136 1346.66666667 -139.333333333 1356 -146 c 128
 1365.33333333 -152.666666667 1370 -158 1370 -162 c 1
 1226 -235.333333333 1108.66666667 -272 1018 -272 c 0
 973.333333333 -272 927 -261 879 -239 c 128
 831 -217 788.166666667 -191.833333333 750.5 -163.5 c 128
 712.833333333 -135.166666667 666.666666667 -103.833333333 612 -69.5 c 128
 557.333333333 -35.1666666667 505.333333333 -9.33333333333 456 8 c 0
 351.333333333 45.3333333333 269.5 112.5 210.5 209.5 c 128
 151.5 306.5 122 418.666666667 122 546 c 0
 122 658 141.833333333 763.333333333 181.5 862 c 128
 221.166666667 960.666666667 273.666666667 1043.83333333 339 1111.5 c 128
 404.333333333 1179.16666667 479.833333333 1232.5 565.5 1271.5 c 128
 651.166666667 1310.5 739.333333333 1330 830 1330 c 0
812 1270 m 0
 749.333333333 1270 687.833333333 1251.16666667 627.5 1213.5 c 128
 567.166666667 1175.83333333 513.5 1125 466.5 1061 c 128
 419.5 997 381.666666667 919 353 827 c 128
 324.333333333 735 310 638 310 536 c 0
 310 486.666666667 313.166666667 439.666666667 319.5 395 c 128
 325.833333333 350.333333333 337.166666667 305.666666667 353.5 261 c 128
 369.833333333 216.333333333 390.5 177.833333333 415.5 145.5 c 128
 440.5 113.166666667 473.666666667 86.8333333333 515 66.5 c 128
 556.333333333 46.1666666667 603.333333333 36 656 36 c 0
 730 36 798.833333333 58.1666666667 862.5 102.5 c 128
 926.166666667 146.833333333 979 204.833333333 1021 276.5 c 128
 1063 348.166666667 1096 428.5 1120 517.5 c 128
 1144 606.5 1156 696 1156 786 c 0
 1156 828.666666667 1153.16666667 870.333333333 1147.5 911 c 128
 1141.83333333 951.666666667 1131.16666667 994.333333333 1115.5 1039 c 128
 1099.83333333 1083.66666667 1079.66666667 1122.5 1055 1155.5 c 128
 1030.33333333 1188.5 997.166666667 1215.83333333 955.5 1237.5 c 128
 913.833333333 1259.16666667 866 1270 812 1270 c 0
EndSplineSet
EndChar
StartChar: R
Encoding: 82 82 49
Width: 565
Flags: W
HStem: -3 28<-4 65 154 212 494 542> 296 29<205 272> 615 28<117 175 248 374>
VStem: 425 87<428 575>
LayerCount: 2
Fore
SplineSet
540 -3 m 1
 460 -3 398 1 375 46 c 0
 346 104 304 199 272 284 c 0
 269 293 260 296 247 296 c 2
 199 296 l 1
 164 113 l 2
 158 84 152 57 154 41 c 0
 155 30 203 25 214 25 c 1
 217 20 214 2 208 -3 c 1
 171 -1 138 2 103 2 c 0
 68 2 33 -1 -5 -3 c 1
 -9 2 -5 20 -0 25 c 1
 11 25 61 30 66 41 c 0
 74 57 79 84 85 113 c 2
 166 530 l 2
 172 559 176 587 174 603 c 0
 173 614 126 618 115 618 c 1
 112 623 115 641 121 646 c 1
 158 644 195 642 230 642 c 0
 265 642 305 644 359 644 c 0
 442 644 512 597 512 506 c 0
 512 412 427 339 352 312 c 1
 384 224 431 126 455 84 c 0
 478 44 497 29 546 25 c 1
 550 20 541 -1 540 -3 c 1
205 325 m 1
 254 325 l 2
 331 325 425 381 425 500 c 0
 425 540 412 615 311 615 c 0
 300 615 268 614 263 605 c 0
 256 593 251 561 245 532 c 2
 205 325 l 1
EndSplineSet
EndChar
StartChar: S
Encoding: 83 83 50
Width: 944
Flags: HW
LayerCount: 2
Fore
SplineSet
624 1332 m 0
 651.333333333 1332 678.166666667 1330.33333333 704.5 1327 c 128
 730.833333333 1323.66666667 751 1320.5 765 1317.5 c 128
 779 1314.5 801.666666667 1308.83333333 833 1300.5 c 128
 864.333333333 1292.16666667 886 1286.66666667 898 1284 c 1
 895.333333333 1251.33333333 889.166666667 1203 879.5 1139 c 128
 869.833333333 1075 862 1027.33333333 856 996 c 0
 854 986.666666667 847.333333333 982 836 982 c 0
 817.333333333 982 803.333333333 986.666666667 794 996 c 1
 799.333333333 1080 786.666666667 1146.66666667 756 1196 c 128
 725.333333333 1245.33333333 676 1270 608 1270 c 0
 532 1270 471.666666667 1246 427 1198 c 128
 382.333333333 1150 360 1097.33333333 360 1040 c 0
 360 1014 363.666666667 989.166666667 371 965.5 c 128
 378.333333333 941.833333333 386.333333333 922 395 906 c 128
 403.666666667 890 417.5 872.5 436.5 853.5 c 128
 455.5 834.5 470.666666667 820.333333333 482 811 c 128
 493.333333333 801.666666667 511.666666667 787.5 537 768.5 c 128
 562.333333333 749.5 580 736 590 728 c 0
 601.333333333 719.333333333 619.5 705.666666667 644.5 687 c 128
 669.5 668.333333333 689 653.5 703 642.5 c 128
 717 631.5 734.166666667 615.833333333 754.5 595.5 c 128
 774.833333333 575.166666667 790.333333333 556 801 538 c 128
 811.666666667 520 821.166666667 497.666666667 829.5 471 c 128
 837.833333333 444.333333333 842 416 842 386 c 0
 842 326 828.333333333 270.333333333 801 219 c 128
 773.666666667 167.666666667 738.166666667 125.166666667 694.5 91.5 c 128
 650.833333333 57.8333333333 602.166666667 31.5 548.5 12.5 c 128
 494.833333333 -6.5 440.666666667 -16 386 -16 c 0
 286.666666667 -16 188.666666667 12 92 68 c 1
 80.6666666667 115.333333333 73.1666666667 172.833333333 69.5 240.5 c 128
 65.8333333333 308.166666667 65.3333333333 350.666666667 68 368 c 1
 74 376 90.6666666667 380 118 380 c 0
 127.333333333 380 134 376 138 368 c 1
 138 344.666666667 141 319.333333333 147 292 c 128
 153 264.666666667 163 236.166666667 177 206.5 c 128
 191 176.833333333 208.166666667 150 228.5 126 c 128
 248.833333333 102 274.666666667 82.3333333333 306 67 c 128
 337.333333333 51.6666666667 372 44 410 44 c 0
 479.333333333 44 539 66.6666666667 589 112 c 128
 639 157.333333333 664 218 664 294 c 0
 664 317.333333333 662 339.166666667 658 359.5 c 128
 654 379.833333333 646.666666667 399.166666667 636 417.5 c 128
 625.333333333 435.833333333 615.833333333 451.333333333 607.5 464 c 128
 599.166666667 476.666666667 585.666666667 491.666666667 567 509 c 128
 548.333333333 526.333333333 534 539.166666667 524 547.5 c 128
 514 555.833333333 497.333333333 569.333333333 474 588 c 0
 459.333333333 599.333333333 438.833333333 614.5 412.5 633.5 c 128
 386.166666667 652.5 365 668 349 680 c 128
 333 692 314.833333333 708.166666667 294.5 728.5 c 128
 274.166666667 748.833333333 258.166666667 768.666666667 246.5 788 c 128
 234.833333333 807.333333333 224.833333333 831.166666667 216.5 859.5 c 128
 208.166666667 887.833333333 204 918.666666667 204 952 c 0
 204 1007.33333333 217.166666667 1059.33333333 243.5 1108 c 128
 269.833333333 1156.66666667 303.5 1197 344.5 1229 c 128
 385.5 1261 430.666666667 1286.16666667 480 1304.5 c 128
 529.333333333 1322.83333333 577.333333333 1332 624 1332 c 0
EndSplineSet
EndChar
StartChar: T
Encoding: 84 84 51
Width: 573
Flags: HW
LayerCount: 2
Fore
SplineSet
537 640 m 2
 544 640 553 642 566 645 c 128
 579 648 589 651 595 654 c 0
 602 658 608 659 612 656 c 1
 606 584 604 528 604 488 c 1
 598 482 591 480 584 481 c 1
 577 481 573 483 572 486 c 1
 573 522 568 551 558 573 c 128
 548 595 531 605 510 605 c 2
 395 605 l 1
 298 113 l 2
 290 75 287 51 288 41 c 0
 288 36 296 33 311 30 c 128
 326 27 339 25 348 25 c 1
 350 23 350 18 349 11 c 128
 348 4 346 -1 343 -3 c 1
 281 0 245 2 237 2 c 0
 228 2 192 0 129 -3 c 1
 127 0 126 4 128 11 c 128
 130 18 132 22 135 25 c 1
 144 25 157 27 173 30 c 128
 189 33 198 36 200 41 c 0
 205 50 211 74 219 113 c 2
 315 605 l 1
 198 605 l 2
 177 605 156 595 137 573 c 128
 118 551 102 522 88 486 c 1
 86 483 81 481 74 481 c 1
 67 480 62 482 58 488 c 1
 77 535 95 591 114 656 c 1
 119 659 126 658 134 653 c 0
 139 650 147 647 157 644 c 128
 167 641 176 640 183 640 c 2
 537 640 l 2
EndSplineSet
EndChar
StartChar: U
Encoding: 85 85 52
Width: 1322
Flags: HW
LayerCount: 2
Fore
SplineSet
435 1314 m 0
 451.666666667 1314 525 1317.33333333 655 1324 c 1
 659 1318.66666667 659.333333333 1309 656 1295 c 128
 652.666666667 1281 648.333333333 1271.33333333 643 1266 c 1
 624.333333333 1266 598.333333333 1263 565 1257 c 128
 531.666666667 1251 513 1243.33333333 509 1234 c 0
 499.666666667 1215.33333333 487 1166 471 1086 c 2
 375 592 l 2
 345 434.666666667 349 317.333333333 387 240 c 0
 430.333333333 152 510.333333333 108 627 108 c 0
 677.666666667 108 723 115 763 129 c 128
 803 143 841 166.166666667 877 198.5 c 128
 913 230.833333333 944.5 276.166666667 971.5 334.5 c 128
 998.5 392.833333333 1020.66666667 464 1038 548 c 1
 1144 1090 l 2
 1152 1130.66666667 1156.66666667 1158.66666667 1158 1174 c 128
 1159.33333333 1189.33333333 1157.33333333 1207.33333333 1152 1228 c 1
 1148.66666667 1237.33333333 1131.33333333 1246.33333333 1100 1255 c 128
 1068.66666667 1263.66666667 1044 1268 1026 1268 c 1
 1023.33333333 1276 1023.16666667 1285.83333333 1025.5 1297.5 c 128
 1027.83333333 1309.16666667 1030.66666667 1318.66666667 1034 1326 c 1
 1050 1325.33333333 1070.83333333 1324 1096.5 1322 c 128
 1122.16666667 1320 1145.33333333 1318.5 1166 1317.5 c 128
 1186.66666667 1316.5 1209.33333333 1316 1234 1316 c 0
 1259.33333333 1316 1282.16666667 1316.5 1302.5 1317.5 c 128
 1322.83333333 1318.5 1345.33333333 1320 1370 1322 c 128
 1394.66666667 1324 1417.33333333 1325.33333333 1438 1326 c 1
 1444.66666667 1308.66666667 1441.33333333 1289.33333333 1428 1268 c 1
 1410.66666667 1268 1382.66666667 1264 1344 1256 c 128
 1305.33333333 1248 1282 1238.66666667 1274 1228 c 0
 1263.33333333 1213.33333333 1255.16666667 1197 1249.5 1179 c 128
 1243.83333333 1161 1237.33333333 1132 1230 1092 c 2
 1124 552 l 2
 1086 356.666666667 1020.66666667 214.5 928 125.5 c 128
 835.333333333 36.5 714.333333333 -8 565 -8 c 0
 422.333333333 -8 317 40 249 136 c 0
 183.666666667 229.333333333 165.666666667 351.333333333 195 502 c 2
 309 1086 l 2
 325 1164.66666667 331.666666667 1214 329 1234 c 0
 328.333333333 1243.33333333 312.5 1251 281.5 1257 c 128
 250.5 1263 225.666666667 1266 207 1266 c 1
 203.666666667 1270.66666667 203.333333333 1280.33333333 206 1295 c 128
 208.666666667 1309.66666667 213 1319.33333333 219 1324 c 1
 345.666666667 1317.33333333 417.666666667 1314 435 1314 c 0
EndSplineSet
EndChar
StartChar: V
Encoding: 86 86 53
Width: 1192
Flags: W
LayerCount: 2
Fore
SplineSet
351 1314 m 0,0,1
 393 1314 393 1314 583 1324 c 1,2,3
 585 1314 585 1314 580 1290.5 c 128,-1,4
 575 1267 575 1267 569 1266 c 1,5,6
 556 1266 556 1266 532.5 1262 c 128,-1,7
 509 1258 509 1258 479 1241.5 c 128,-1,8
 449 1225 449 1225 445 1200 c 0,9,10
 437 1160 437 1160 451 1058 c 0,11,12
 463 976 463 976 492.5 779 c 128,-1,13
 522 582 522 582 546.5 420.5 c 128,-1,14
 571 259 571 259 572 256 c 1,15,-1
 1023 1048 l 1,16,17
 1066 1121 1066 1121 1077 1188 c 0,18,19
 1081 1210 1081 1210 1069 1227 c 128,-1,20
 1057 1244 1057 1244 1036.5 1251.5 c 128,-1,21
 1016 1259 1016 1259 999 1262.5 c 128,-1,22
 982 1266 982 1266 971 1266 c 1,23,24
 965 1269 965 1269 968.5 1293 c 128,-1,25
 972 1317 972 1317 981 1324 c 1,26,27
 1151 1314 1151 1314 1177 1314 c 0,28,29
 1215 1314 1215 1314 1242.5 1315.5 c 128,-1,30
 1270 1317 1270 1317 1302 1320 c 128,-1,31
 1334 1323 1334 1323 1361 1324 c 1,32,33
 1364 1317 1364 1317 1358 1291.5 c 128,-1,34
 1352 1266 1352 1266 1347 1266 c 0,35,36
 1327 1266 1327 1266 1285 1253 c 128,-1,37
 1243 1240 1243 1240 1217 1214 c 0,38,39
 1171 1168 1171 1168 1085 1012 c 1,40,-1
 539 64 l 1,41,42
 501 -4 501 -4 455 -4 c 0,43,44
 451 -4 451 -4 449 1.5 c 128,-1,45
 447 7 447 7 445 17.5 c 2,46,-1
 443 28 l 1,47,48
 418 182 418 182 369 500.5 c 128,-1,49
 320 819 320 819 285 1028 c 1,50,51
 266 1151 266 1151 237 1220 c 0,52,53
 228 1241 228 1241 189 1253.5 c 128,-1,54
 150 1266 150 1266 125 1266 c 0,55,56
 123 1266 123 1266 125.5 1279.5 c 128,-1,57
 128 1293 128 1293 131.5 1307.5 c 128,-1,58
 135 1322 135 1322 137 1324 c 1,59,60
 166 1323 166 1323 206.5 1320 c 128,-1,61
 247 1317 247 1317 280 1315.5 c 128,-1,62
 313 1314 313 1314 351 1314 c 0,0,1
EndSplineSet
EndChar
StartChar: W
Encoding: 87 87 54
Width: 821
Flags: HW
LayerCount: 2
Back
SplineSet
246.486328125 159.1796875 m 9
 462.306640625 614.2578125 l 2
 466.436523438 622.9765625 472.643554688 630.52734375 480.927734375 636.91015625 c 0
 489.211914062 643.29296875 496.025390625 646.484375 501.369140625 646.484375 c 0
 503.135742188 646.484375 504.432617188 645.521484375 505.2578125 643.595703125 c 0
 506.083007812 641.668945312 507.391601562 637.423828125 509.181640625 630.859375 c 1
 514.149414062 576.211914062 532.37890625 418.333984375 563.869140625 157.2265625 c 1
 563.869140625 152.359375 565.91796875 151.483398438 570.016601562 154.596679688 c 0
 571.7265625 155.895507812 572.931640625 157.422851562 573.634765625 159.1796875 c 2
 732.814453125 511.71875 l 1
 747.282226562 546.44140625 755.419921875 569.227539062 757.228515625 580.078125 c 0
 758.584960938 587.315429688 757.137695312 593.645507812 752.885742188 599.068359375 c 0
 748.633789062 604.4921875 742.96875 608.463867188 735.890625 610.983398438 c 0
 728.8125 613.50390625 722.40234375 615.330078125 716.661132812 616.463867188 c 0
 710.919921875 617.59765625 706.213867188 618.1640625 702.541015625 618.1640625 c 1
 700.526367188 619.08984375 700.282226562 623.443359375 701.80859375 631.225585938 c 0
 703.333984375 639.0078125 705.53125 644.09375 708.400390625 646.484375 c 1
 763.739257812 643.229492188 795.965820312 641.6015625 805.080078125 641.6015625 c 0
 817.491210938 641.6015625 828.184570312 641.849609375 837.16015625 642.346679688 c 0
 846.135742188 642.84375 855.782226562 643.540039062 866.098632812 644.436523438 c 0
 876.416015625 645.333984375 886.024414062 646.015625 894.923828125 646.484375 c 1
 895.888671875 644.071289062 895.361328125 638.748046875 893.341796875 630.514648438 c 0
 891.322265625 622.28125 889.571289062 618.1640625 888.087890625 618.1640625 c 0
 883.037109375 618.1640625 873.548828125 615.750976562 859.623046875 610.924804688 c 0
 845.697265625 606.099609375 834.026367188 600.048828125 824.611328125 592.7734375 c 0
 811.388671875 582.1953125 795.763671875 557.456054688 777.736328125 518.5546875 c 2
 550.197265625 31.25 l 2
 546.422851562 22.7568359375 540.169921875 15.099609375 531.438476562 8.2783203125 c 0
 522.70703125 1.45703125 515.288085938 -1.953125 509.181640625 -1.953125 c 0
 507.4609375 -1.953125 506.053710938 -0.041015625 504.9609375 3.7841796875 c 0
 503.868164062 7.609375 503.322265625 10.9052734375 503.322265625 13.671875 c 0
 495.040039062 84.443359375 484.340820312 171.674804688 471.224609375 275.368164062 c 0
 458.107421875 379.061523438 449.275390625 449.381835938 444.728515625 486.328125 c 0
 444.728515625 487.84765625 444.118164062 488.7421875 442.897460938 489.013671875 c 0
 441.676757812 489.28515625 440.333984375 488.71484375 438.869140625 487.3046875 c 1
 221.095703125 31.25 l 2
 217.294921875 22.6982421875 211.18359375 15.0263671875 202.76171875 8.234375 c 0
 194.33984375 1.4423828125 187.104492188 -1.953125 181.056640625 -1.953125 c 0
 179.3125 -1.953125 177.737304688 0.0166015625 176.331054688 3.955078125 c 0
 174.923828125 7.8935546875 174.220703125 11.1328125 174.220703125 13.671875 c 2
 127.345703125 519.53125 l 2
 127.133789062 522.359375 126.806640625 526.91796875 126.366210938 533.20703125 c 0
 125.924804688 539.497070312 125.611328125 543.799804688 125.423828125 546.115234375 c 0
 125.237304688 548.431640625 124.904296875 552.017578125 124.423828125 556.874023438 c 0
 123.944335938 561.73046875 123.489257812 565.223632812 123.05859375 567.35546875 c 0
 122.62890625 569.487304688 122.024414062 572.356445312 121.24609375 575.962890625 c 0
 120.46875 579.568359375 119.61328125 582.4375 118.6796875 584.567382812 c 0
 117.74609375 586.698242188 116.612304688 589.033203125 115.276367188 591.572265625 c 0
 113.94140625 594.111328125 112.4296875 596.46484375 110.744140625 598.6328125 c 0
 106.366210938 604.32421875 98.6796875 609.001953125 87.685546875 612.666992188 c 0
 76.69140625 616.33203125 67.775390625 618.1640625 60.939453125 618.1640625 c 0
 60.3310546875 618.1640625 60.3876953125 620.385742188 61.109375 624.828125 c 0
 61.83203125 629.271484375 62.8037109375 633.834960938 64.025390625 638.517578125 c 0
 65.2470703125 643.201171875 66.171875 645.856445312 66.798828125 646.484375 c 1
 75.5849609375 646.06640625 87.3359375 645.389648438 102.052734375 644.456054688 c 0
 116.76953125 643.521484375 129.833984375 642.8125 141.245117188 642.328125 c 0
 152.657226562 641.84375 164.625 641.6015625 177.150390625 641.6015625 c 0
 189.075195312 641.6015625 200.129882812 641.844726562 210.313476562 642.33203125 c 0
 220.49609375 642.819335938 231.916015625 643.525390625 244.573242188 644.452148438 c 0
 257.23046875 645.377929688 267.633789062 646.055664062 275.783203125 646.484375 c 1
 276.310546875 643.3203125 275.602539062 637.924804688 273.658203125 630.296875 c 0
 271.713867188 622.669921875 269.818359375 618.625976562 267.970703125 618.1640625 c 1
 265.233398438 618.1640625 261.25390625 617.723632812 256.032226562 616.842773438 c 0
 250.810546875 615.961914062 244.548828125 614.493164062 237.245117188 612.435546875 c 0
 229.942382812 610.37890625 223.427734375 607.026367188 217.702148438 602.376953125 c 0
 211.9765625 597.728515625 208.55078125 592.248046875 207.423828125 585.9375 c 0
 205.10546875 573.189453125 213.140625 451.951171875 231.52734375 222.22265625 c 0
 233.844726562 193.27734375 235.575195312 171.612304688 236.720703125 157.2265625 c 1024
EndSplineSet
Fore
SplineSet
168 642 m 0
 180 642 217 643 279 646 c 1
 280 643 279 638 277 630 c 128
 275 622 273 618 271 618 c 1
 267 618 261 617 253 616 c 128
 245 615 237 611 227 606 c 128
 217 601 211 594 210 586 c 0
 209 581 209 563 211 532 c 0
 213 491 223 360 241 141 c 1
 465 614 l 2
 469 623 476 631 484 637 c 128
 492 643 499 646 504 646 c 0
 506 646 507 646 508 644 c 128
 509 642 510 638 512 631 c 1
 517 575 536 412 569 141 c 1
 737 512 l 1
 750 542 757 564 760 580 c 0
 761 587 760 593 756 599 c 128
 752 605 746 609 739 611 c 128
 732 613 726 615 720 616 c 128
 714 617 710 618 706 618 c 1
 704 619 704 623 705 631 c 128
 706 639 708 644 711 646 c 1
 766 643 799 642 808 642 c 0
 820 642 831 642 840 642 c 128
 849 642 859 644 869 645 c 128
 879 646 889 646 898 646 c 1
 899 644 898 639 896 631 c 128
 894 623 893 618 891 618 c 0
 886 618 877 616 863 611 c 128
 849 606 837 600 828 593 c 0
 815 583 799 558 781 519 c 2
 553 31 l 2
 549 23 543 15 534 8 c 128
 525 1 518 -2 512 -2 c 0
 510 -2 509 0 508 4 c 128
 507 8 506 11 506 14 c 0
 500 68 494 120 488 170 c 128
 482 220 474 276 466 338 c 128
 458 400 452 453 446 499 c 1
 224 31 l 2
 220 23 214 15 206 8 c 128
 198 1 190 -2 184 -2 c 0
 182 -2 180 0 179 4 c 128
 178 8 177 11 177 14 c 2
 130 520 l 2
 130 523 129 527 129 533 c 128
 129 539 128 544 128 546 c 128
 128 548 127 552 127 557 c 128
 127 562 126 565 126 567 c 128
 126 569 125 572 124 576 c 128
 123 580 123 583 122 585 c 128
 121 587 119 590 118 592 c 128
 117 594 116 597 114 599 c 0
 110 605 102 609 91 613 c 128
 80 617 71 618 64 618 c 0
 63 618 63 621 64 625 c 128
 65 629 66 633 67 638 c 128
 68 643 69 645 70 646 c 1
 80 646 91 646 103 645 c 128
 115 644 125 642 135 642 c 128
 145 642 156 642 168 642 c 0
EndSplineSet
EndChar
StartChar: X
Encoding: 88 88 55
Width: 1240
Flags: W
LayerCount: 2
Fore
SplineSet
449 1314 m 0,0,1
 499 1314 499 1314 689 1324 c 1,2,3
 691 1313 691 1313 686.5 1289.5 c 128,-1,4
 682 1266 682 1266 675 1266 c 0,5,6
 657 1266 657 1266 633 1261.5 c 128,-1,7
 609 1257 609 1257 582.5 1241.5 c 128,-1,8
 556 1226 556 1226 551 1202 c 1,9,10
 545 1180 545 1180 561 1142 c 2,11,-1
 709 784 l 1,12,13
 1017 1131 1017 1131 1053 1184 c 0,14,15
 1067 1205 1067 1205 1069 1216 c 0,16,17
 1070 1224 1070 1224 1062 1234 c 128,-1,18
 1054 1244 1054 1244 1024 1254 c 128,-1,19
 994 1264 994 1264 947 1264 c 1,20,21
 941 1266 941 1266 945 1288.5 c 128,-1,22
 949 1311 949 1311 955 1322 c 1,23,24
 1078 1312 1078 1312 1153 1312 c 0,25,26
 1244 1312 1244 1312 1359 1322 c 1,27,28
 1362 1314 1362 1314 1357.5 1293 c 128,-1,29
 1353 1272 1353 1272 1343 1264 c 1,30,31
 1329 1264 1329 1264 1304.5 1260 c 128,-1,32
 1280 1256 1280 1256 1236.5 1236 c 128,-1,33
 1193 1216 1193 1216 1163 1184 c 2,34,-1
 737 722 l 1,35,-1
 983 132 l 2,36,37
 1000 92 1000 92 1048 72 c 128,-1,38
 1096 52 1096 52 1149 52 c 1,39,40
 1153 46 1153 46 1147.5 23 c 128,-1,41
 1142 0 1142 0 1139 -6 c 1,42,43
 1113 -5 1113 -5 1077.5 -2 c 128,-1,44
 1042 1 1042 1 1013.5 2.5 c 128,-1,45
 985 4 985 4 951 4 c 0,46,47
 937 4 937 4 677 -6 c 1,48,49
 671 2 671 2 675.5 27 c 128,-1,50
 680 52 680 52 687 52 c 0,51,52
 712 52 712 52 757 67.5 c 128,-1,53
 802 83 802 83 807 108 c 0,54,55
 809 114 809 114 803 132 c 1,56,-1
 611 600 l 1,57,58
 515 492 515 492 384 337 c 128,-1,59
 253 182 253 182 213 132 c 0,60,61
 200 116 200 116 197 100 c 0,62,63
 196 92 196 92 206.5 82 c 128,-1,64
 217 72 217 72 249.5 62 c 128,-1,65
 282 52 282 52 329 52 c 1,66,67
 333 44 333 44 329 22 c 128,-1,68
 325 -0 325 -0 321 -6 c 1,69,70
 151 4 151 4 113 4 c 0,71,72
 73 4 73 4 -117 -6 c 1,73,74
 -120 2 -120 2 -113.5 24 c 128,-1,75
 -107 46 -107 46 -103 52 c 1,76,77
 -86 52 -86 52 -56.5 56 c 128,-1,78
 -27 60 -27 60 24 80 c 128,-1,79
 75 100 75 100 105 132 c 1,80,-1
 579 664 l 1,81,-1
 401 1096 l 1,82,83
 380 1151 380 1151 359.5 1180.5 c 128,-1,84
 339 1210 339 1210 305 1234 c 0,85,86
 285 1248 285 1248 255.5 1257 c 128,-1,87
 226 1266 226 1266 207 1266 c 1,88,89
 203 1268 203 1268 203 1279 c 128,-1,90
 203 1290 203 1290 208 1304.5 c 128,-1,91
 213 1319 213 1319 219 1324 c 1,92,93
 250 1323 250 1323 294 1320 c 128,-1,94
 338 1317 338 1317 373 1315.5 c 128,-1,95
 408 1314 408 1314 449 1314 c 0,0,1
EndSplineSet
EndChar
StartChar: Y
Encoding: 89 89 56
Width: 542
Flags: W
HStem: -3 28<118 187 276 334> 618 28<59 103 237 290 426 480 557 616>
LayerCount: 2
Fore
SplineSet
206 113 m 2
 234 261 l 2
 235 268 236 278 233 288 c 2
 152 535 l 2
 140 571 128 587 106 603 c 0
 92 613 69 618 58 618 c 0
 53 618 58 641 64 646 c 1
 108 644 131 642 176 642 c 0
 221 642 256 644 293 646 c 1
 294 640 291 618 286 618 c 0
 273 618 231 612 226 587 c 0
 224 579 227 571 231 558 c 2
 309 323 l 1
 371 409 465 548 481 578 c 0
 483 581 485 587 486 593 c 0
 487 599 476 617 425 617 c 1
 422 620 426 642 429 646 c 1
 462 644 487 641 520 641 c 0
 567 641 583 644 620 646 c 1
 620 643 615 617 612 617 c 0
 605 617 553 617 525 578 c 2
 325 294 l 2
 317 283 317 273 315 264 c 2
 285 113 l 2
 279 84 273 57 275 41 c 0
 276 30 324 25 335 25 c 1
 338 20 336 2 330 -3 c 1
 293 -1 260 2 225 2 c 0
 190 2 154 -1 116 -3 c 1
 112 2 117 20 122 25 c 1
 133 25 183 30 188 41 c 0
 196 57 200 84 206 113 c 2
EndSplineSet
EndChar
StartChar: Z
Encoding: 90 90 57
Width: 1204
Flags: HW
LayerCount: 2
Fore
SplineSet
559 1258 m 2
 497.666666667 1257.33333333 440.333333333 1232.5 387 1183.5 c 128
 333.666666667 1134.5 288.333333333 1068 251 984 c 1
 247.666666667 978.666666667 240.333333333 976 229 976 c 0
 221 976 211.833333333 977.833333333 201.5 981.5 c 128
 191.166666667 985.166666667 185 988.666666667 183 992 c 1
 225.666666667 1071.33333333 268.333333333 1186.66666667 311 1338 c 1
 378.333333333 1327.33333333 428.333333333 1322 461 1322 c 2
 823 1322 l 2
 910.333333333 1322 1041.66666667 1328.66666667 1217 1342 c 1
 1221.66666667 1340.66666667 1227.33333333 1334.83333333 1234 1324.5 c 128
 1240.66666667 1314.16666667 1243 1305.33333333 1241 1298 c 0
 1239 1292 1182.33333333 1221.5 1071 1086.5 c 128
 959.666666667 951.5 819.5 783.666666667 650.5 583 c 128
 481.5 382.333333333 333.333333333 209.333333333 206 64 c 1
 695 64 l 2
 775 64 848 99.6666666667 914 171 c 0
 945.333333333 205 983 262.666666667 1027 344 c 0
 1029 348 1037.66666667 350 1053 350 c 0
 1072.33333333 350 1086.33333333 344 1095 332 c 1
 1032.33333333 201.333333333 983.666666667 90.6666666667 949 0 c 1
 9 0 l 2
 -1 0 -9.5 3.16666666667 -16.5 9.5 c 128
 -23.5 15.8333333333 -24.3333333333 22 -19 28 c 2
 1017 1260 l 1
 559 1258 l 2
EndSplineSet
EndChar
StartChar: bracketleft
Encoding: 91 91 58
Width: 520
Flags: HW
LayerCount: 2
Fore
SplineSet
323 1434 m 2
 323 1436 324.333333333 1440.33333333 327 1447 c 128
 329.666666667 1453.66666667 334.833333333 1460.83333333 342.5 1468.5 c 128
 350.166666667 1476.16666667 359 1480 369 1480 c 0
 429 1480 494 1483 564 1489 c 2
 669 1498 l 2
 675.666666667 1498 679 1494 679 1486 c 0
 679 1479.33333333 677.833333333 1472.5 675.5 1465.5 c 128
 673.166666667 1458.5 670.333333333 1452.5 667 1447.5 c 128
 663.666666667 1442.5 659.833333333 1437.66666667 655.5 1433 c 128
 651.166666667 1428.33333333 647.333333333 1424.66666667 644 1422 c 128
 640.666666667 1419.33333333 637.666666667 1417 635 1415 c 2
 631 1412 l 1
 569.666666667 1397.33333333 505.666666667 1390 439 1390 c 0
 435.666666667 1390 432.666666667 1388.66666667 430 1386 c 128
 427.333333333 1383.33333333 425.5 1380.66666667 424.5 1378 c 2
 423 1374 l 1
 135 -98 l 2
 133.666666667 -108 137 -113.333333333 145 -114 c 0
 178.333333333 -118 214.333333333 -125.333333333 253 -136 c 128
 291.666666667 -146.666666667 317.666666667 -156 331 -164 c 0
 335 -166.666666667 340.333333333 -172.333333333 347 -181 c 128
 353.666666667 -189.666666667 357 -198 357 -206 c 0
 357 -212.666666667 355.833333333 -218.5 353.5 -223.5 c 128
 351.166666667 -228.5 348.833333333 -231.833333333 346.5 -233.5 c 2
 343 -236 l 1
 235 -214.666666667 130.333333333 -204 29 -204 c 0
 24.3333333333 -204 20.5 -202 17.5 -198 c 128
 14.5 -194 13.6666666667 -188.666666667 15 -182 c 2
 323 1434 l 2
EndSplineSet
Substitution2: "'smcp' Lowercase to Small Capitals in Latin lookup 3-1" bracketleft.sc
EndChar
StartChar: backslash
Encoding: 92 92 59
Width: 736
Flags: W
LayerCount: 2
Fore
SplineSet
580 -8 m 2,0,1
 584 -31 584 -31 564 -55.5 c 128,-1,2
 544 -80 544 -80 526 -80 c 0,3,4
 510 -80 510 -80 502 -74 c 1,5,-1
 230 1510 l 1,6,7
 239 1524 239 1524 258 1524 c 0,8,9
 286 1524 286 1524 307 1497.5 c 128,-1,10
 328 1471 328 1471 332 1450 c 2,11,-1
 580 -8 l 2,0,1
EndSplineSet
Substitution2: "'smcp' Lowercase to Small Capitals in Latin lookup 3-1" backslash.sc
EndChar
StartChar: bracketright
Encoding: 93 93 60
Width: 516
Flags: HW
LayerCount: 2
Back
SplineSet
62 -228 m 0
 57.015625 -224.660416667 54.5234375 -218.748958333 54.5234375 -210.265625 c 0
 54.5234375 -189.809375 67.6822916667 -169.054166667 94 -148 c 1
 155.333333333 -125.333333333 219.333333333 -114 286 -114 c 0
 289.333333333 -114 292.5 -112.666666667 295.5 -110 c 0
 298.5 -107.333333333 300.666666667 -104.666666667 302 -102 c 2
 304 -98 l 1025
EndSplineSet
Fore
SplineSet
218 1498 m 2
 235 1496 l 2
 246.333333333 1494.66666667 261.5 1493.16666667 280.5 1491.5 c 128
 299.5 1489.83333333 320.666666667 1488.16666667 344 1486.5 c 128
 367.333333333 1484.83333333 394.333333333 1483.33333333 425 1482 c 128
 455.666666667 1480.66666667 485.333333333 1480 514 1480 c 0
 531.333333333 1480 540 1470 540 1450 c 0
 540 1443.33333333 539.333333333 1438 538 1434 c 2
 230 -158 l 2
 230 -160 228.833333333 -164.333333333 226.5 -171 c 128
 224.166666667 -177.666666667 219.333333333 -184.833333333 212 -192.5 c 128
 204.666666667 -200.166666667 196 -204 186 -204 c 0
 140.666666667 -204 93.5 -206 44.5 -210 c 128
 -4.5 -214 -42.1666666667 -218 -68.5 -222 c 2
 -108 -228 l 1
 -113.333333333 -224 -116 -218 -116 -210 c 0
 -116 -204.666666667 -115 -199.166666667 -113 -193.5 c 128
 -111 -187.833333333 -108.166666667 -182.5 -104.5 -177.5 c 128
 -100.833333333 -172.5 -97.5 -168.5 -94.5 -165.5 c 128
 -91.5 -162.5 -87.8333333333 -159 -83.5 -155 c 128
 -79.1666666667 -151 -76.6666666667 -148.666666667 -76 -148 c 0
 -10.6666666667 -125.333333333 53.3333333333 -114 116 -114 c 0
 119.333333333 -114 122.5 -112.666666667 125.5 -110 c 128
 128.5 -107.333333333 130.666666667 -104.666666667 132 -102 c 2
 134 -98 l 1
 420 1374 l 1
 421.333333333 1384.66666667 418 1390 410 1390 c 0
 380.666666667 1390 350.666666667 1391.83333333 320 1395.5 c 128
 289.333333333 1399.16666667 266 1402.83333333 250 1406.5 c 2
 226 1412 l 1
 222.5 1415 l 2
 220.166666667 1417 218 1419 216 1421 c 128
 214 1423 211.833333333 1425.5 209.5 1428.5 c 128
 207.166666667 1431.5 205.333333333 1435.5 204 1440.5 c 128
 202.666666667 1445.5 202 1450.66666667 202 1456 c 0
 202 1466 203.5 1475.5 206.5 1484.5 c 128
 209.5 1493.5 213.333333333 1498 218 1498 c 2
EndSplineSet
Substitution2: "'smcp' Lowercase to Small Capitals in Latin lookup 3-1" bracketright.sc
EndChar
StartChar: asciicircum
Encoding: 94 94 61
Width: 295
Flags: W
HStem: 464 210
VStem: 13 276
LayerCount: 2
Fore
SplineSet
13 487 m 1
 22 502 102 552 170 661 c 0
 176 671 175 674 182 674 c 0
 203 674 191 654 231 574 c 0
 246 545 288 493 289 488 c 1
 287 480 279 464 272 464 c 0
 252 464 186 551 168 583 c 1
 120 527 32 464 21 464 c 0
 13 464 13 479 13 487 c 1
EndSplineSet
Substitution2: "'smcp' Lowercase to Small Capitals in Latin lookup 3-1" asciicircum.sc
EndChar
StartChar: underscore
Encoding: 95 95 62
Width: 950
Flags: HW
LayerCount: 2
Fore
SplineSet
-78 -74 m 0
 -78 -66.6666666667 -71.8333333333 -48.1666666667 -59.5 -18.5 c 128
 -47.1666666667 11.1666666667 -37.3333333333 26 -30 26 c 2
 798 26 l 2
 806 26 810 23.3333333333 810 18 c 0
 810 9.33333333333 798 -21.3333333333 774 -74 c 0
 772 -77.3333333333 770 -80 768 -82 c 128
 766 -84 764.5 -85.1666666667 763.5 -85.5 c 2
 762 -86 l 1
 -68 -86 l 2
 -74.6666666667 -86 -78 -82 -78 -74 c 0
EndSplineSet
EndChar
StartChar: a
Encoding: 97 97 64
Width: 438
Flags: W
HStem: -6 54<80 155 280 320> 386 39<217 315>
VStem: 19 72<64 217>
LayerCount: 2
Fore
SplineSet
298 425 m 0
 332 425 355 419 374 412 c 1
 314 104 l 2
 311 93 304 48 320 48 c 0
 341 48 386 101 389 104 c 1
 392 104 398 92 398 86 c 1
 387 67 317 -6 271 -6 c 0
 250 -6 237 16 237 45 c 0
 237 53 240 76 244 97 c 0
 247 115 248 120 249 127 c 1
 229 92 162 -5 105 -5 c 0
 52 -5 19 42 19 110 c 0
 19 280 179 425 298 425 c 0
253 386 m 0
 178 386 91 259 91 147 c 0
 91 86 107 52 141 52 c 0
 190 52 258 174 277 268 c 2
 298 371 l 1
 289 381 266 386 253 386 c 0
EndSplineSet
Substitution2: "'smcp' Lowercase to Small Capitals in Latin lookup 3-1" a.sc
EndChar
StartChar: b
Encoding: 98 98 65
Width: 858
Flags: W
LayerCount: 2
Fore
SplineSet
550 760 m 0,0,1
 518 760 518 760 470.5 720.5 c 128,-1,2
 423 681 423 681 376.5 619.5 c 128,-1,3
 330 558 330 558 290.5 474.5 c 128,-1,4
 251 391 251 391 236 312 c 1,5,6
 211 190 211 190 234.5 122 c 128,-1,7
 258 54 258 54 328 54 c 0,8,9
 387 54 387 54 445 117 c 128,-1,10
 503 180 503 180 541.5 268.5 c 128,-1,11
 580 357 580 357 604 449 c 128,-1,12
 628 541 628 541 628 604 c 0,13,14
 628 637 628 637 625.5 660.5 c 128,-1,15
 623 684 623 684 615.5 709 c 128,-1,16
 608 734 608 734 591.5 747 c 128,-1,17
 575 760 575 760 550 760 c 0,0,1
286 570 m 1,18,19
 336 653 336 653 390 715 c 128,-1,20
 444 777 444 777 490.5 808.5 c 128,-1,21
 537 840 537 840 573 855 c 128,-1,22
 609 870 609 870 636 870 c 0,23,24
 704 870 704 870 740 809.5 c 128,-1,25
 776 749 776 749 776 644 c 0,26,27
 776 515 776 515 727.5 391 c 128,-1,28
 679 267 679 267 604.5 180.5 c 128,-1,29
 530 94 530 94 441 41 c 128,-1,30
 352 -12 352 -12 272 -12 c 0,31,32
 187 -12 187 -12 136.5 50 c 128,-1,33
 86 112 86 112 86 222 c 0,34,35
 86 244 86 244 98 316 c 1,36,-1
 256 1118 l 1,37,38
 274 1199 274 1199 274 1224 c 0,39,40
 274 1262 274 1262 152 1262 c 1,41,42
 148 1268 148 1268 151 1283 c 128,-1,43
 154 1298 154 1298 160 1304 c 1,44,45
 270 1314 270 1314 424 1370 c 1,46,47
 436 1363 436 1363 436 1332 c 0,48,49
 436 1312 436 1312 410 1182 c 2,50,-1
 286 570 l 1,18,19
EndSplineSet
Substitution2: "'smcp' Lowercase to Small Capitals in Latin lookup 3-1" b.sc
EndChar
StartChar: c
Encoding: 99 99 66
Width: 350
Flags: HW
LayerCount: 2
Fore
SplineSet
269 425 m 0
 290 425 310 416 329 400 c 1
 335 392 338 384 338 374 c 0
 338 362 335 352 329 343 c 128
 323 334 316 330 305 330 c 0
 298 330 291 331 284 335 c 128
 277 339 273 344 270 350 c 1
 265 357 261 362 258 366 c 128
 255 370 250 374 243 378 c 128
 236 382 228 385 219 385 c 0
 206 385 191 379 177 367 c 128
 163 355 151 341 139 321 c 128
 127 301 118 278 111 249 c 128
 104 220 100 190 100 158 c 0
 100 147 101 136 102 126 c 128
 103 116 106 105 110 93 c 128
 114 81 121 70 131 63 c 128
 141 56 153 52 167 52 c 0
 172 52 178 53 184 55 c 128
 190 57 196 59 201 62 c 128
 206 65 212 69 218 73 c 128
 224 77 229 80 233 84 c 128
 237 88 242 93 246 97 c 128
 250 101 254 104 257 107 c 128
 260 110 262 113 264 115 c 2
 268 119 l 1
 270 119 272 117 275 112 c 128
 278 107 279 103 279 100 c 1
 276 94 270 86 260 75 c 128
 250 64 239 53 225 40 c 128
 211 27 196 17 179 8 c 128
 162 -1 146 -6 132 -6 c 0
 97 -6 71 6 52 31 c 128
 33 56 23 91 23 137 c 0
 23 174 32 211 48 247 c 128
 64 283 84 315 108 340 c 128
 132 365 159 385 188 401 c 128
 217 417 244 425 269 425 c 0
EndSplineSet
Substitution2: "'smcp' Lowercase to Small Capitals in Latin lookup 3-1" c.sc
EndChar
StartChar: d
Encoding: 100 100 67
Width: 438
Flags: W
HStem: -5 57<75 155 280 321> 386 39<218 284> 616 21<281 336> 649 20G<402 416>
VStem: 19 72<64 214> 237 73<21 159> 340 79<532 651>
LayerCount: 2
Fore
SplineSet
289 333 m 2
 293 355 281 386 255 386 c 0
 176 386 91 258 91 146 c 0
 91 92 105 52 141 52 c 0
 191 52 258 175 277 270 c 1
 289 333 l 2
331 546 m 2
 334 564 340 587 340 598 c 0
 340 617 296 616 280 616 c 1
 277 620 280 633 284 637 c 1
 338 642 392 661 413 669 c 1
 418 666 419 656 419 650 c 0
 419 642 411 601 406 577 c 2
 314 104 l 2
 313 100 311 76 311 71 c 0
 311 62 310 48 320 48 c 0
 341 48 386 101 389 104 c 1
 392 104 398 92 398 86 c 1
 387 67 317 -6 271 -6 c 0
 250 -6 237 16 237 45 c 0
 237 53 240 76 244 97 c 0
 248 116 248 120 249 127 c 1
 234 98 163 -5 104 -5 c 0
 43 -5 19 56 19 113 c 0
 19 266 169 425 296 425 c 0
 320 425 303 425 309 425 c 1
 331 546 l 2
EndSplineSet
Substitution2: "'smcp' Lowercase to Small Capitals in Latin lookup 3-1" d.sc
EndChar
StartChar: e
Encoding: 101 101 68
Width: 726
Flags: W
LayerCount: 2
Fore
SplineSet
548 870 m 0,0,1
 618 870 618 870 649 834 c 128,-1,2
 680 798 680 798 680 746 c 0,3,4
 680 678 680 678 623.5 609.5 c 128,-1,5
 567 541 567 541 489 493.5 c 128,-1,6
 411 446 411 446 332.5 416 c 128,-1,7
 254 386 254 386 206 386 c 1,8,9
 202 374 202 374 202 322 c 0,10,11
 202 224 202 224 235.5 165 c 128,-1,12
 269 106 269 106 340 106 c 0,13,14
 356 106 356 106 374.5 112 c 128,-1,15
 393 118 393 118 409.5 127 c 128,-1,16
 426 136 426 136 443.5 148.5 c 128,-1,17
 461 161 461 161 474.5 173 c 128,-1,18
 488 185 488 185 501.5 198 c 128,-1,19
 515 211 515 211 523.5 220 c 128,-1,20
 532 229 532 229 539 236.5 c 2,21,-1
 546 244 l 1,22,23
 551 244 551 244 560.5 228.5 c 128,-1,24
 570 213 570 213 570 204 c 1,25,26
 558 184 558 184 528 151 c 128,-1,27
 498 118 498 118 456 80 c 128,-1,28
 414 42 414 42 362 15 c 128,-1,29
 310 -12 310 -12 266 -12 c 0,30,31
 160 -12 160 -12 103 63 c 128,-1,32
 46 138 46 138 46 278 c 0,33,34
 46 385 46 385 92.5 494.5 c 128,-1,35
 139 604 139 604 210.5 685.5 c 128,-1,36
 282 767 282 767 372.5 818.5 c 128,-1,37
 463 870 463 870 548 870 c 0,0,1
210 436 m 1,38,39
 241 436 241 436 293.5 458.5 c 128,-1,40
 346 481 346 481 400 516 c 128,-1,41
 454 551 454 551 493 603.5 c 128,-1,42
 532 656 532 656 532 708 c 0,43,44
 532 746 532 746 506 767 c 128,-1,45
 480 788 480 788 448 788 c 0,46,47
 399 788 399 788 354.5 748 c 128,-1,48
 310 708 310 708 280.5 650 c 128,-1,49
 251 592 251 592 232.5 535 c 128,-1,50
 214 478 214 478 210 436 c 1,38,39
EndSplineSet
Substitution2: "'smcp' Lowercase to Small Capitals in Latin lookup 3-1" e.sc
EndChar
StartChar: f
Encoding: 102 102 69
Width: 289
Flags: W
HStem: -228 42<-83 -7> 367 36<44 120 198 300> 627 42<266 342>
LayerCount: 2
Fore
SplineSet
328 669 m 0
 356 669 374 658 381 645 c 1
 381 642 381 639 381 636 c 0
 379 614 371 590 352 590 c 0
 335 590 325 600 314 612 c 0
 307 619 300 627 286 627 c 0
 248 627 228 558 198 403 c 1
 296 403 l 2
 300 403 301 397 301 392 c 0
 301 382 297 375 292 367 c 1
 191 367 l 1
 191 367 157 165 134 42 c 0
 103 -118 10 -228 -68 -228 c 0
 -96 -228 -114 -216 -121 -203 c 1
 -121 -198 -121 -193 -120 -188 c 0
 -117 -168 -109 -148 -92 -148 c 0
 -75 -148 -66 -159 -55 -171 c 0
 -48 -178 -40 -186 -26 -186 c 0
 12 -186 32 -117 62 38 c 1
 120 367 l 1
 37 367 l 2
 36 367 35 368 35 370 c 0
 35 380 58 403 80 403 c 2
 126 403 l 1
 157 563 250 669 328 669 c 0
EndSplineSet
Substitution2: "'smcp' Lowercase to Small Capitals in Latin lookup 3-1" f.sc
EndChar
StartChar: g
Encoding: 103 103 70
Width: 824
Flags: HW
LayerCount: 2
Fore
SplineSet
556 -236 m 0
 556 -212 548.833333333 -189.166666667 534.5 -167.5 c 128
 520.166666667 -145.833333333 503.5 -127.666666667 484.5 -113 c 128
 465.5 -98.3333333333 440.5 -83.8333333333 409.5 -69.5 c 128
 378.5 -55.1666666667 352.5 -44.3333333333 331.5 -37 c 128
 310.5 -29.6666666667 284.666666667 -21.3333333333 254 -12 c 1
 234.666666667 -20 217.166666667 -28 201.5 -36 c 128
 185.833333333 -44 168.166666667 -54.5 148.5 -67.5 c 128
 128.833333333 -80.5 112.5 -94 99.5 -108 c 128
 86.5 -122 75.3333333333 -138.833333333 66 -158.5 c 128
 56.6666666667 -178.166666667 52 -198.666666667 52 -220 c 0
 52 -337.333333333 147.333333333 -396 338 -396 c 0
 402.666666667 -396 455.166666667 -380.333333333 495.5 -349 c 128
 535.833333333 -317.666666667 556 -280 556 -236 c 0
424 814 m 0
 384 814 348.5 796.666666667 317.5 762 c 128
 286.5 727.333333333 263.833333333 686.166666667 249.5 638.5 c 128
 235.166666667 590.833333333 228 542.666666667 228 494 c 0
 228 440.666666667 238.666666667 395.333333333 260 358 c 128
 281.333333333 320.666666667 312 302 352 302 c 0
 392.666666667 302 428.333333333 317.5 459 348.5 c 128
 489.666666667 379.5 511.833333333 416.166666667 525.5 458.5 c 128
 539.166666667 500.833333333 546 544 546 588 c 0
 546 642.666666667 534.666666667 694 512 742 c 128
 489.333333333 790 460 814 424 814 c 0
666 762 m 1
 666 760.666666667 668.5 751.666666667 673.5 735 c 128
 678.5 718.333333333 683.166666667 699.666666667 687.5 679 c 128
 691.833333333 658.333333333 694 640 694 624 c 0
 694 584 688.833333333 546 678.5 510 c 128
 668.166666667 474 656 444.5 642 421.5 c 128
 628 398.5 611.5 377 592.5 357 c 128
 573.5 337 558.166666667 322.5 546.5 313.5 c 128
 534.833333333 304.5 523.333333333 296.666666667 512 290 c 0
 495.333333333 280 466.333333333 267 425 251 c 128
 383.666666667 235 349.5 219.833333333 322.5 205.5 c 128
 295.5 191.166666667 282 177.333333333 282 164 c 0
 282 152.666666667 295.833333333 141 323.5 129 c 128
 351.166666667 117 384.666666667 103.833333333 424 89.5 c 128
 463.333333333 75.1666666667 502.666666667 58.5 542 39.5 c 128
 581.333333333 20.5 614.833333333 -6 642.5 -40 c 128
 670.166666667 -74 684 -112.666666667 684 -156 c 0
 684 -250.666666667 641.833333333 -326 557.5 -382 c 128
 473.166666667 -438 359.333333333 -466 216 -466 c 0
 124 -466 49 -448.5 -9 -413.5 c 128
 -67 -378.5 -96 -330.666666667 -96 -270 c 0
 -96 -243.333333333 -89.5 -217.5 -76.5 -192.5 c 128
 -63.5 -167.5 -47.8333333333 -145.666666667 -29.5 -127 c 128
 -11.1666666667 -108.333333333 12 -89.6666666667 40 -71 c 128
 68 -52.3333333333 93.1666666667 -37 115.5 -25 c 128
 137.833333333 -13 163.333333333 -0.666666666667 192 12 c 1
 156 36 l 2
 122.666666667 58 106 82 106 108 c 0
 106 130.666666667 129.666666667 156.666666667 177 186 c 128
 224.333333333 215.333333333 267.333333333 234.666666667 306 244 c 1
 288.666666667 244 267.833333333 249 243.5 259 c 128
 219.166666667 269 194.5 283 169.5 301 c 128
 144.5 319 123.333333333 343.666666667 106 375 c 128
 88.6666666667 406.333333333 80 440.666666667 80 478 c 0
 80 550.666666667 98.6666666667 617.666666667 136 679 c 128
 173.333333333 740.333333333 220.833333333 787.833333333 278.5 821.5 c 128
 336.166666667 855.166666667 396 872 458 872 c 0
 482 872 504.666666667 869.666666667 526 865 c 128
 547.333333333 860.333333333 564.5 855.5 577.5 850.5 c 128
 590.5 845.5 607.333333333 838 628 828 c 0
 636 824 648.333333333 824.166666667 665 828.5 c 128
 681.666666667 832.833333333 699.166666667 838.666666667 717.5 846 c 128
 735.833333333 853.333333333 748 857.333333333 754 858 c 1
 769.333333333 853.333333333 786.833333333 843.5 806.5 828.5 c 128
 826.166666667 813.5 836 800 836 788 c 0
 836 780.666666667 833.833333333 774.166666667 829.5 768.5 c 128
 825.166666667 762.833333333 819.333333333 760 812 760 c 0
 809.333333333 760 786.833333333 760.5 744.5 761.5 c 128
 702.166666667 762.5 676 762.666666667 666 762 c 1
EndSplineSet
Substitution2: "'smcp' Lowercase to Small Capitals in Latin lookup 3-1" g.sc
EndChar
StartChar: h
Encoding: 104 104 71
Width: 940
Flags: W
LayerCount: 2
Fore
SplineSet
414 1182 m 2,0,-1
 312 660 l 1,1,-1
 276 476 l 1,2,3
 285 494 285 494 314.5 536.5 c 128,-1,4
 344 579 344 579 390 636.5 c 128,-1,5
 436 694 436 694 484.5 746 c 128,-1,6
 533 798 533 798 585 834 c 128,-1,7
 637 870 637 870 674 870 c 0,8,9
 730 870 730 870 757 834 c 128,-1,10
 784 798 784 798 784 738 c 0,11,12
 784 653 784 653 756 520 c 2,13,-1
 690 212 l 1,14,15
 682 180 682 180 682 148 c 0,16,17
 682 98 682 98 702 98 c 0,18,19
 712 98 712 98 726.5 106.5 c 128,-1,20
 741 115 741 115 755.5 127 c 128,-1,21
 770 139 770 139 785.5 154 c 128,-1,22
 801 169 801 169 812 181 c 128,-1,23
 823 193 823 193 832.5 203.5 c 2,24,-1
 842 214 l 1,25,26
 847 214 847 214 854.5 199.5 c 128,-1,27
 862 185 862 185 862 176 c 1,28,29
 837 134 837 134 749.5 61 c 128,-1,30
 662 -12 662 -12 600 -12 c 0,31,32
 568 -12 568 -12 550 17 c 128,-1,33
 532 46 532 46 532 92 c 0,34,35
 532 139 532 139 546 198 c 1,36,-1
 616 528 l 2,37,38
 630 591 630 591 630 636 c 0,39,40
 630 678 630 678 622.5 700 c 128,-1,41
 615 722 615 722 592 722 c 0,42,43
 565 722 565 722 512 678.5 c 128,-1,44
 459 635 459 635 403.5 568.5 c 128,-1,45
 348 502 348 502 299 411.5 c 128,-1,46
 250 321 250 321 234 238 c 0,47,48
 220 165 220 165 184 0 c 1,49,50
 157 -8 157 -8 112 -8 c 0,51,52
 76 -8 76 -8 44 0 c 1,53,-1
 260 1118 l 2,54,55
 262 1130 262 1130 267 1154.5 c 128,-1,56
 272 1179 272 1179 275 1196.5 c 128,-1,57
 278 1214 278 1214 278 1224 c 0,58,59
 278 1262 278 1262 156 1262 c 1,60,61
 152 1268 152 1268 155 1283 c 128,-1,62
 158 1298 158 1298 164 1304 c 1,63,64
 274 1314 274 1314 428 1370 c 1,65,66
 440 1363 440 1363 440 1332 c 0,67,68
 440 1312 440 1312 414 1182 c 2,0,-1
EndSplineSet
Substitution2: "'smcp' Lowercase to Small Capitals in Latin lookup 3-1" h.sc
EndChar
StartChar: i
Encoding: 105 105 72
Width: 255
Flags: W
HStem: -6 54<75 137> 371 54<95 158> 533 98<124 187>
VStem: 52 73<45 124> 112 73<295 374> 113 86<545 621>
LayerCount: 2
Fore
SplineSet
108 315 m 2xf0
 109 321 112 342 112 347 c 0
 112 356 113 371 103 371 c 0
 82 371 37 317 34 314 c 1
 31 314 24 327 24 333 c 1
 35 352 101 425 147 425 c 0
 168 425 186 403 186 374 c 0xe8
 186 366 183 343 179 322 c 2
 129 104 l 2
 127 94 125 77 125 72 c 0
 125 63 125 48 135 48 c 0
 156 48 200 101 203 104 c 1
 206 104 213 92 213 86 c 1
 202 67 131 -6 85 -6 c 0
 64 -6 52 16 52 45 c 0
 52 53 55 76 59 97 c 2
 108 315 l 2xf0
164 631 m 0
 185 631 199 613 199 592 c 0
 199 562 176 533 146 533 c 0
 125 533 113 554 113 575 c 0xe4
 113 604 135 631 164 631 c 0
EndSplineSet
Substitution2: "'ccmp' Turkish i-1" i.TRK
Substitution2: "'smcp' Lowercase to Small Capitals in Latin lookup 3-1" i.sc
EndChar
StartChar: j
Encoding: 106 106 73
Width: 243
Flags: W
HStem: 371 54<101 164> 533 98<141 203>
VStem: 118 73<245 397> 130 86<545 621>
LayerCount: 2
Fore
SplineSet
114 315 m 2xe0
 115 321 118 342 118 347 c 0
 118 356 118 371 108 371 c 0
 87 371 43 317 40 314 c 1
 37 314 30 327 30 333 c 1
 41 352 107 425 153 425 c 0
 174 425 191 403 191 374 c 0
 191 366 189 343 185 322 c 2
 131 44 l 2
 124 9 104 -65 62 -121 c 0
 21 -175 -40 -215 -74 -229 c 1
 -78 -226 -83 -217 -83 -210 c 1
 -18 -173 35 -87 56 21 c 2
 114 315 l 2xe0
181 631 m 0
 202 631 216 613 216 592 c 0
 216 562 193 533 163 533 c 0
 142 533 130 554 130 575 c 0xd0
 130 604 152 631 181 631 c 0
EndSplineSet
Substitution2: "'smcp' Lowercase to Small Capitals in Latin lookup 3-1" j.sc
EndChar
StartChar: k
Encoding: 107 107 74
Width: 920
Flags: HW
LayerCount: 2
Fore
SplineSet
650 870 m 0
 690 870 725 856.833333333 755 830.5 c 128
 785 804.166666667 800 772 800 734 c 0
 800 690 788.666666667 650 766 614 c 128
 743.333333333 578 711.833333333 547.666666667 671.5 523 c 128
 631.166666667 498.333333333 586.833333333 477.833333333 538.5 461.5 c 128
 490.166666667 445.166666667 436.666666667 432 378 422 c 1
 466 290.666666667 530 204.5 570 163.5 c 128
 610 122.5 650.666666667 102 692 102 c 0
 706.666666667 102 729 115.5 759 142.5 c 128
 789 169.5 812 193.333333333 828 214 c 1
 830.666666667 214 834.666666667 209 840 199 c 128
 845.333333333 189 848 181.333333333 848 176 c 1
 834 151.333333333 799.333333333 114.5 744 65.5 c 128
 688.666666667 16.5 642 -8 604 -8 c 0
 578.666666667 -8 553.666666667 -1.33333333333 529 12 c 128
 504.333333333 25.3333333333 482.666666667 41.3333333333 464 60 c 128
 445.333333333 78.6666666667 425.5 103.333333333 404.5 134 c 128
 383.5 164.666666667 366.333333333 192 353 216 c 128
 339.666666667 240 323.333333333 269.5 304 304.5 c 128
 284.666666667 339.5 270 365.333333333 260 382 c 1
 186 0 l 1
 161.333333333 -6.66666666667 138 -10 116 -10 c 0
 94.6666666667 -10 70.6666666667 -6.66666666667 44 0 c 1
 262 1118 l 1
 274 1172 280 1207.33333333 280 1224 c 0
 280 1249.33333333 239.333333333 1262 158 1262 c 1
 155.333333333 1266 155 1273 157 1283 c 128
 159 1293 162 1300 166 1304 c 1
 239.333333333 1310.66666667 327.333333333 1332.66666667 430 1370 c 1
 438 1365.33333333 442 1352.66666667 442 1332 c 0
 442 1318.66666667 433.333333333 1268.66666667 416 1182 c 2
 312 644 l 1
 333.5 670 l 2
 347.833333333 687.333333333 365.5 706.5 386.5 727.5 c 128
 407.5 748.5 431.5 770.166666667 458.5 792.5 c 128
 485.5 814.833333333 516.166666667 833.333333333 550.5 848 c 128
 584.833333333 862.666666667 618 870 650 870 c 0
578 776 m 0
 522.666666667 776 461.666666667 739.5 395 666.5 c 128
 328.333333333 593.5 288.666666667 524.666666667 276 460 c 1
 304 460 334 463.166666667 366 469.5 c 128
 398 475.833333333 430.5 485.833333333 463.5 499.5 c 128
 496.5 513.166666667 526.333333333 529.5 553 548.5 c 128
 579.666666667 567.5 601.5 590.833333333 618.5 618.5 c 128
 635.5 646.166666667 644 676 644 708 c 0
 644 729.333333333 639.333333333 746 630 758 c 128
 620.666666667 770 603.333333333 776 578 776 c 0
EndSplineSet
Substitution2: "'smcp' Lowercase to Small Capitals in Latin lookup 3-1" k.sc
EndChar
StartChar: l
Encoding: 108 108 75
Width: 486
Flags: W
LayerCount: 2
Fore
SplineSet
268 1118 m 1,0,1
 286 1199 286 1199 286 1224 c 0,2,3
 286 1262 286 1262 164 1262 c 1,4,5
 160 1268 160 1268 163 1283 c 128,-1,6
 166 1298 166 1298 172 1304 c 1,7,8
 282 1314 282 1314 436 1370 c 1,9,10
 448 1363 448 1363 448 1332 c 0,11,12
 448 1312 448 1312 422 1182 c 2,13,-1
 232 212 l 1,14,15
 224 180 224 180 224 148 c 0,16,17
 224 98 224 98 244 98 c 0,18,19
 254 98 254 98 268.5 106.5 c 128,-1,20
 283 115 283 115 297.5 127 c 128,-1,21
 312 139 312 139 327.5 154 c 128,-1,22
 343 169 343 169 354 181 c 128,-1,23
 365 193 365 193 374.5 203.5 c 2,24,-1
 384 214 l 1,25,26
 389 214 389 214 396.5 199.5 c 128,-1,27
 404 185 404 185 404 176 c 1,28,29
 379 134 379 134 291.5 61 c 128,-1,30
 204 -12 204 -12 142 -12 c 0,31,32
 110 -12 110 -12 92 17 c 128,-1,33
 74 46 74 46 74 92 c 0,34,35
 74 124 74 124 88 198 c 2,36,-1
 268 1118 l 1,0,1
EndSplineSet
Substitution2: "'smcp' Lowercase to Small Capitals in Latin lookup 3-1" l.sc
EndChar
StartChar: m
Encoding: 109 109 76
Width: 1428
Flags: W
LayerCount: 2
Fore
SplineSet
1034 198 m 1,0,-1
 1104 528 l 2,1,2
 1118 591 1118 591 1118 636 c 0,3,4
 1118 682 1118 682 1111.5 702 c 128,-1,5
 1105 722 1105 722 1080 722 c 0,6,7
 1040 722 1040 722 964.5 651 c 128,-1,8
 889 580 889 580 819.5 469.5 c 128,-1,9
 750 359 750 359 732 264 c 2,10,-1
 682 0 l 1,11,12
 640 -6 640 -6 608 -6 c 0,13,14
 577 -6 577 -6 538 0 c 1,15,-1
 650 568 l 2,16,17
 658 611 658 611 658 644 c 0,18,19
 658 722 658 722 618 722 c 0,20,21
 574 722 574 722 500 643.5 c 128,-1,22
 426 565 426 565 360.5 450.5 c 128,-1,23
 295 336 295 336 276 244 c 2,24,-1
 226 0 l 1,25,26
 197 -8 197 -8 154 -8 c 0,27,28
 132 -8 132 -8 84 0 c 1,29,-1
 216 646 l 1,30,31
 224 694 224 694 224 710 c 0,32,33
 224 760 224 760 204 760 c 0,34,35
 194 760 194 760 179.5 751.5 c 128,-1,36
 165 743 165 743 150.5 731 c 128,-1,37
 136 719 136 719 120.5 704 c 128,-1,38
 105 689 105 689 94 677 c 128,-1,39
 83 665 83 665 73.5 654.5 c 2,40,-1
 64 644 l 1,41,42
 59 644 59 644 51.5 658.5 c 128,-1,43
 44 673 44 673 44 682 c 1,44,45
 70 726 70 726 152.5 798 c 128,-1,46
 235 870 235 870 296 870 c 0,47,48
 328 870 328 870 351 840 c 128,-1,49
 374 810 374 810 374 766 c 0,50,51
 374 744 374 744 358 660 c 0,52,53
 349 612 349 612 318 474 c 1,54,55
 363 552 363 552 419.5 634.5 c 128,-1,56
 476 717 476 717 551 793.5 c 128,-1,57
 626 870 626 870 674 870 c 0,58,59
 808 870 808 870 808 680 c 0,60,61
 808 645 808 645 798.5 586.5 c 128,-1,62
 789 528 789 528 780 502 c 1,63,64
 846 618 846 618 962 744 c 128,-1,65
 1078 870 1078 870 1148 870 c 0,66,67
 1214 870 1214 870 1243 836.5 c 128,-1,68
 1272 803 1272 803 1272 738 c 0,69,70
 1272 648 1272 648 1244 520 c 2,71,-1
 1178 212 l 2,72,73
 1170 172 1170 172 1170 148 c 0,74,75
 1170 98 1170 98 1190 98 c 0,76,77
 1200 98 1200 98 1214.5 106.5 c 128,-1,78
 1229 115 1229 115 1243.5 127 c 128,-1,79
 1258 139 1258 139 1273.5 154 c 128,-1,80
 1289 169 1289 169 1300 181 c 128,-1,81
 1311 193 1311 193 1320.5 203.5 c 2,82,-1
 1330 214 l 1,83,84
 1335 214 1335 214 1342.5 199.5 c 128,-1,85
 1350 185 1350 185 1350 176 c 1,86,87
 1325 134 1325 134 1237.5 61 c 128,-1,88
 1150 -12 1150 -12 1088 -12 c 0,89,90
 1057 -12 1057 -12 1038.5 17 c 128,-1,91
 1020 46 1020 46 1020 92 c 0,92,93
 1020 124 1020 124 1034 198 c 1,0,-1
EndSplineSet
Substitution2: "'smcp' Lowercase to Small Capitals in Latin lookup 3-1" m.sc
EndChar
StartChar: n
Encoding: 110 110 77
Width: 485
Flags: HW
LayerCount: 2
Fore
SplineSet
175 322 m 1
 157 240 l 1
 160 246 167 256 176 269 c 128
 185 282 196 298 211 316 c 128
 226 334 242 351 257 367 c 128
 272 383 288 397 305 408 c 128
 322 419 337 425 349 425 c 0
 370 425 386 419 395 408 c 128
 404 397 409 381 409 360 c 0
 409 333 405 298 396 254 c 1
 363 104 l 2
 360 91 359 80 359 72 c 0
 359 56 362 48 369 48 c 0
 372 48 376 49 381 52 c 128
 386 55 390 58 395 62 c 128
 400 66 405 70 410 75 c 128
 415 80 419 84 423 88 c 128
 427 92 430 96 433 99 c 2
 438 104 l 1
 440 104 442 102 444 97 c 128
 446 92 447 89 447 86 c 1
 439 72 420 54 392 30 c 128
 364 6 339 -6 319 -6 c 0
 309 -6 301 -1 295 8 c 128
 289 17 286 30 286 45 c 0
 286 55 288 73 293 97 c 1
 327 258 l 2
 332 279 334 296 334 311 c 0
 334 326 333 336 331 343 c 128
 329 350 323 353 315 353 c 0
 306 353 293 346 275 333 c 128
 257 320 239 303 220 282 c 128
 201 261 184 237 168 207 c 128
 152 177 141 148 135 119 c 0
 132 106 124 66 110 0 c 1
 100 -3 88 -4 75 -4 c 0
 63 -4 51 -3 41 0 c 1
 105 315 l 1
 108 331 109 342 109 347 c 0
 109 363 107 371 100 371 c 0
 97 371 93 370 88 367 c 128
 83 364 78 361 73 357 c 128
 68 353 64 349 59 344 c 128
 54 339 50 335 46 331 c 128
 42 327 39 323 36 320 c 2
 31 314 l 1
 29 314 27 317 25 322 c 128
 23 327 21 330 21 333 c 1
 29 347 47 367 74 390 c 128
 101 413 125 425 145 425 c 0
 155 425 164 420 171 410 c 128
 178 400 183 388 183 374 c 0
 183 361 180 344 175 322 c 1
EndSplineSet
Substitution2: "'smcp' Lowercase to Small Capitals in Latin lookup 3-1" n.sc
EndChar
StartChar: o
Encoding: 111 111 78
Width: 404
Flags: HW
LayerCount: 2
Fore
SplineSet
231 394 m 0
 211 394 194 386 177 370 c 128
 160 354 146 335 135 311 c 128
 124 287 115 261 109 233 c 128
 103 205 100 179 100 154 c 0
 100 115 104 84 114 61 c 128
 124 38 137 26 155 26 c 0
 174 26 192 34 209 50 c 128
 226 66 240 86 250 110 c 128
 260 134 268 160 274 188 c 128
 280 216 283 242 283 267 c 0
 283 307 279 338 270 360 c 128
 261 382 248 394 231 394 c 0
245 425 m 0
 283 425 312 412 331 386 c 128
 350 360 359 325 359 281 c 0
 359 247 353 214 340 179 c 128
 327 144 310 114 290 87 c 128
 270 60 246 38 219 21 c 128
 192 4 164 -5 137 -5 c 0
 99 -5 71 7 52 32 c 128
 33 57 23 91 23 135 c 0
 23 169 29 203 42 238 c 128
 55 273 72 304 92 331 c 128
 112 358 136 380 163 398 c 128
 190 416 218 425 245 425 c 0
EndSplineSet
Substitution2: "'smcp' Lowercase to Small Capitals in Latin lookup 3-1" o.sc
EndChar
StartChar: p
Encoding: 112 112 79
Width: 437
Flags: W
HStem: -229 28<-53 -13> -221 26<86 132> -5 34<142 220> 371 54<252 345>
VStem: 325 72<194 360>
LayerCount: 2
Fore
SplineSet
274 371 m 0x38
 242 371 184 330 158 293 c 1
 126 128 l 2
 115 70 143 29 172 29 c 0
 255 29 325 180 325 296 c 0
 325 350 305 371 274 371 c 0x38
313 425 m 0
 375 425 398 375 398 307 c 0
 398 156 271 -5 152 -5 c 0
 135 -5 113 -2 107 8 c 1
 74 -142 l 2
 72 -151 72 -159 72 -169 c 0
 72 -174 75 -188 85 -191 c 0
 102 -195 128 -194 131 -194 c 0
 135 -195 133 -220 128 -222 c 1
 115 -222 105 -221 94 -221 c 0x78
 44 -221 6 -222 -51 -229 c 1
 -56 -228 -55 -204 -50 -201 c 1xb8
 -32 -201 -19 -197 -10 -186 c 0
 -3 -177 0 -166 5 -144 c 2
 82 244 l 1
 35 197 l 1
 31 202 30 212 30 217 c 0
 30 221 32 223 33 224 c 2
 90 285 l 1
 116 423 l 1
 127 426 142 427 153 427 c 0
 164 427 174 425 184 420 c 1
 180 401 169 345 168 338 c 1
 194 362 263 425 313 425 c 0
EndSplineSet
Substitution2: "'smcp' Lowercase to Small Capitals in Latin lookup 3-1" p.sc
EndChar
StartChar: q
Encoding: 113 113 80
Width: 852
Flags: W
LayerCount: 2
Fore
SplineSet
634 -456 m 1,0,1
 620 -456 620 -456 593.5 -455 c 128,-1,2
 567 -454 567 -454 554 -454 c 0,3,4
 402 -454 402 -454 254 -470 c 1,5,6
 250 -467 250 -467 251 -441.5 c 128,-1,7
 252 -416 252 -416 260 -416 c 0,8,9
 384 -403 384 -403 396 -342 c 2,10,-1
 508 260 l 1,11,12
 490 227 490 227 460.5 186.5 c 128,-1,13
 431 146 431 146 390.5 99 c 128,-1,14
 350 52 350 52 302.5 21 c 128,-1,15
 255 -10 255 -10 214 -10 c 0,16,17
 128 -10 128 -10 83 62 c 128,-1,18
 38 134 38 134 38 232 c 0,19,20
 38 384 38 384 125.5 534 c 128,-1,21
 213 684 213 684 345.5 777 c 128,-1,22
 478 870 478 870 606 870 c 0,23,24
 693 870 693 870 764 844 c 1,25,-1
 642 212 l 1,26,-1
 550 -300 l 1,27,28
 546 -332 546 -332 546 -342 c 0,29,30
 546 -355 546 -355 548.5 -363.5 c 128,-1,31
 551 -372 551 -372 559 -382 c 128,-1,32
 567 -392 567 -392 587 -397 c 128,-1,33
 607 -402 607 -402 638 -402 c 0,34,35
 642 -402 642 -402 643 -414 c 128,-1,36
 644 -426 644 -426 641.5 -439.5 c 128,-1,37
 639 -453 639 -453 634 -456 c 1,0,1
592 682 m 2,38,39
 599 720 599 720 579.5 755 c 128,-1,40
 560 790 560 790 522 790 c 0,41,42
 443 790 443 790 364 716 c 128,-1,43
 285 642 285 642 235.5 527.5 c 128,-1,44
 186 413 186 413 186 300 c 0,45,46
 186 211 186 211 210.5 158.5 c 128,-1,47
 235 106 235 106 288 106 c 0,48,49
 337 106 337 106 396.5 177 c 128,-1,50
 456 248 456 248 502.5 351.5 c 128,-1,51
 549 455 549 455 568 552 c 1,52,-1
 592 682 l 2,38,39
EndSplineSet
Substitution2: "'smcp' Lowercase to Small Capitals in Latin lookup 3-1" q.sc
EndChar
StartChar: r
Encoding: 114 114 81
Width: 347
Flags: W
HStem: -3 21G<76 87> 356 68<260 332> 371 54<92 154>
VStem: 108 73<237 397>
LayerCount: 2
Fore
SplineSet
300 425 m 0xd0
 321 425 339 414 348 404 c 0
 352 399 356 387 356 377 c 0
 356 352 343 334 321 334 c 0
 312 334 300 340 292 349 c 0
 288 354 280 356 272 356 c 0xd0
 237 356 156 221 137 119 c 2
 115 0 l 1
 104 -2 93 -3 82 -3 c 0
 69 -3 58 -2 46 0 c 1
 104 315 l 2
 105 321 108 342 108 347 c 0
 108 356 109 371 99 371 c 0
 78 371 33 317 30 314 c 1
 27 314 21 327 21 333 c 1
 32 352 98 425 144 425 c 0xb0
 165 425 182 403 182 374 c 0
 182 366 178 343 174 322 c 0
 168 290 164 272 157 240 c 1
 184 305 254 425 300 425 c 0xd0
EndSplineSet
Substitution2: "'smcp' Lowercase to Small Capitals in Latin lookup 3-1" r.sc
EndChar
StartChar: s
Encoding: 115 115 82
Width: 644
Flags: W
LayerCount: 2
Fore
SplineSet
398 876 m 0,0,1
 507 876 507 876 570 822 c 1,2,3
 577 812 577 812 583.5 790.5 c 128,-1,4
 590 769 590 769 590 758 c 0,5,6
 590 723 590 723 571 699.5 c 128,-1,7
 552 676 552 676 522 676 c 0,8,9
 479 676 479 676 428 746 c 0,10,11
 427 748 427 748 420.5 757.5 c 128,-1,12
 414 767 414 767 412 769.5 c 128,-1,13
 410 772 410 772 404 779.5 c 128,-1,14
 398 787 398 787 394.5 789.5 c 128,-1,15
 391 792 391 792 383.5 796.5 c 128,-1,16
 376 801 376 801 369.5 803 c 128,-1,17
 363 805 363 805 354 806.5 c 128,-1,18
 345 808 345 808 334 808 c 0,19,20
 287 808 287 808 261.5 771.5 c 128,-1,21
 236 735 236 735 236 696 c 0,22,23
 236 673 236 673 242 652 c 128,-1,24
 248 631 248 631 266 605.5 c 128,-1,25
 284 580 284 580 293 568 c 128,-1,26
 302 556 302 556 332 523.5 c 128,-1,27
 362 491 362 491 368 484 c 0,28,29
 426 416 426 416 458 358.5 c 128,-1,30
 490 301 490 301 490 234 c 0,31,32
 490 124 490 124 408.5 56 c 128,-1,33
 327 -12 327 -12 200 -12 c 0,34,35
 95 -12 95 -12 24 48 c 1,36,37
 4 81 4 81 4 108 c 0,38,39
 4 150 4 150 25.5 175 c 128,-1,40
 47 200 47 200 78 200 c 0,41,42
 92 200 92 200 104.5 191 c 128,-1,43
 117 182 117 182 124 171.5 c 128,-1,44
 131 161 131 161 144 140.5 c 128,-1,45
 157 120 157 120 164 110 c 0,46,47
 207 52 207 52 270 52 c 0,48,49
 323 52 323 52 345.5 88.5 c 128,-1,50
 368 125 368 125 368 168 c 0,51,52
 368 178 368 178 366 188.5 c 128,-1,53
 364 199 364 199 362.5 207.5 c 128,-1,54
 361 216 361 216 355.5 227.5 c 128,-1,55
 350 239 350 239 347 245.5 c 128,-1,56
 344 252 344 252 335.5 264 c 128,-1,57
 327 276 327 276 323.5 281 c 128,-1,58
 320 286 320 286 309 299.5 c 128,-1,59
 298 313 298 313 295 316.5 c 128,-1,60
 292 320 292 320 279 334.5 c 128,-1,61
 266 349 266 349 264 352 c 0,62,63
 227 393 227 393 210 413.5 c 128,-1,64
 193 434 193 434 167.5 472 c 128,-1,65
 142 510 142 510 131 546.5 c 128,-1,66
 120 583 120 583 120 624 c 0,67,68
 120 715 120 715 199.5 795.5 c 128,-1,69
 279 876 279 876 398 876 c 0,0,1
EndSplineSet
Substitution2: "'smcp' Lowercase to Small Capitals in Latin lookup 3-1" s.sc
EndChar
StartChar: t
Encoding: 116 116 83
Width: 556
Flags: W
LayerCount: 2
Fore
SplineSet
234 826 m 1,0,-1
 256 944 l 1,1,2
 280 974 280 974 327.5 1025 c 128,-1,3
 375 1076 375 1076 386 1076 c 0,4,5
 404 1076 404 1076 420 1064 c 1,6,-1
 376 826 l 1,7,-1
 526 826 l 2,8,9
 536 826 536 826 536 802 c 0,10,11
 536 781 536 781 518 752 c 1,12,-1
 362 752 l 1,13,-1
 256 212 l 2,14,15
 248 172 248 172 248 148 c 0,16,17
 248 98 248 98 268 98 c 0,18,19
 278 98 278 98 292.5 106.5 c 128,-1,20
 307 115 307 115 321.5 127 c 128,-1,21
 336 139 336 139 351.5 154 c 128,-1,22
 367 169 367 169 378 181 c 128,-1,23
 389 193 389 193 398.5 203.5 c 2,24,-1
 408 214 l 1,25,26
 413 214 413 214 420.5 199.5 c 128,-1,27
 428 185 428 185 428 176 c 1,28,29
 403 134 403 134 315.5 61 c 128,-1,30
 228 -12 228 -12 166 -12 c 0,31,32
 135 -12 135 -12 116.5 17 c 128,-1,33
 98 46 98 46 98 92 c 0,34,35
 98 124 98 124 112 198 c 2,36,-1
 220 752 l 1,37,-1
 86 752 l 2,38,39
 82 752 82 752 82 758 c 0,40,41
 82 775 82 775 112 800.5 c 128,-1,42
 142 826 142 826 174 826 c 2,43,-1
 234 826 l 1,0,-1
EndSplineSet
Substitution2: "'smcp' Lowercase to Small Capitals in Latin lookup 3-1" t.sc
EndChar
StartChar: u
Encoding: 117 117 84
Width: 479
Flags: W
HStem: -6 72<101 161> -6 54<301 363> 371 54<91 153>
VStem: 58 75<46 202> 107 73<252 397> 278 73<21 183>
LayerCount: 2
Fore
SplineSet
285 97 m 0x74
 291 130 296 149 303 182 c 1
 278 127 170 -6 106 -6 c 0
 68 -6 58 27 58 64 c 0xb4
 58 91 65 137 71 165 c 2
 104 315 l 2
 105 321 107 342 107 347 c 0
 107 356 108 371 98 371 c 0
 77 371 32 317 29 314 c 1
 26 314 20 327 20 333 c 1
 31 352 97 425 143 425 c 0
 164 425 181 403 181 374 c 0xac
 181 366 178 343 174 322 c 2
 140 161 l 2
 138 152 133 119 133 108 c 0
 133 86 134 66 151 66 c 0xb4
 186 66 302 190 326 312 c 0
 334 352 340 378 348 419 c 1
 358 422 368 423 378 423 c 0
 388 423 404 422 416 419 c 1
 355 104 l 2
 353 94 352 77 352 72 c 0
 352 63 351 48 361 48 c 0
 382 48 427 101 430 104 c 1
 433 104 439 92 439 86 c 1
 428 67 358 -6 312 -6 c 0
 291 -6 278 16 278 45 c 0
 278 53 281 76 285 97 c 0x74
EndSplineSet
Substitution2: "'smcp' Lowercase to Small Capitals in Latin lookup 3-1" u.sc
EndChar
StartChar: v
Encoding: 118 118 85
Width: 428
Flags: HW
LayerCount: 2
Fore
SplineSet
182 63 m 1
 215 91 240 117 257 139 c 128
 274 161 291 189 307 221 c 0
 315 237 321 255 325 275 c 128
 329 295 331 311 331 325 c 0
 331 349 323 370 306 387 c 1
 310 397 315 405 323 413 c 128
 331 421 341 425 352 425 c 0
 370 425 383 418 392 404 c 128
 401 390 405 371 405 347 c 0
 405 318 393 282 369 240 c 128
 345 198 316 159 284 124 c 128
 252 89 220 58 187 32 c 128
 154 6 129 -6 112 -6 c 1
 107 0 104 51 104 145 c 2
 104 347 l 2
 104 363 102 371 95 371 c 0
 92 371 88 370 83 367 c 128
 78 364 74 361 69 357 c 128
 64 353 59 349 54 344 c 128
 49 339 45 335 41 331 c 128
 37 327 34 323 31 320 c 2
 26 314 l 1
 24 314 22 317 20 322 c 128
 18 327 17 330 17 333 c 1
 25 347 43 367 70 390 c 128
 97 413 120 425 140 425 c 0
 150 425 160 419 167 409 c 128
 174 399 178 387 178 372 c 2
 178 320 l 1
 178 172 l 2
 178 118 179 81 182 63 c 1
EndSplineSet
Substitution2: "'smcp' Lowercase to Small Capitals in Latin lookup 3-1" v.sc
EndChar
StartChar: w
Encoding: 119 119 86
Width: 614
Flags: W
HStem: -6 21G<109 133 328 365> 371 54<88 150>
VStem: 104 73<89 371> 312 70<75 209> 515 74<260 398>
LayerCount: 2
Fore
SplineSet
376 366 m 1
 377 326 379 241 382 179 c 0
 384 137 386 90 396 74 c 1
 448 119 479 162 501 224 c 0
 515 261 515 303 515 325 c 0
 515 346 506 370 489 387 c 1
 495 404 512 425 535 425 c 0
 572 425 589 392 589 347 c 0
 589 224 398 -6 331 -6 c 1
 324 2 313 117 312 146 c 0
 311 171 310 209 310 209 c 1
 245 115 153 -6 112 -6 c 1
 105 2 104 116 104 145 c 2
 104 347 l 2
 104 356 105 371 95 371 c 0
 74 371 29 317 26 314 c 1
 23 314 17 327 17 333 c 1
 28 352 94 425 140 425 c 0
 161 425 178 401 178 372 c 2
 178 320 l 1
 178 172 l 2
 178 130 179 109 182 88 c 1
 226 135 274 218 292 249 c 0
 315 292 325 318 334 339 c 1
 342 349 363 363 376 366 c 1
EndSplineSet
Substitution2: "'smcp' Lowercase to Small Capitals in Latin lookup 3-1" w.sc
EndChar
StartChar: x
Encoding: 120 120 87
Width: 964
Flags: HW
LayerCount: 2
Fore
SplineSet
590 178 m 2
 600.666666667 128.666666667 624 104 660 104 c 0
 675.333333333 104 700 117.833333333 734 145.5 c 128
 768 173.166666667 792 196 806 214 c 1
 808.666666667 214 812.666666667 209 818 199 c 128
 823.333333333 189 826 181.333333333 826 176 c 1
 812 151.333333333 777.333333333 114.5 722 65.5 c 128
 666.666666667 16.5 620 -8 582 -8 c 0
 550.666666667 -8 522.5 7.5 497.5 38.5 c 128
 472.5 69.5 454.666666667 111.333333333 444 164 c 2
 409 336 l 1
 399 316 385.833333333 289.5 369.5 256.5 c 128
 353.166666667 223.5 340.666666667 198.5 332 181.5 c 128
 323.333333333 164.5 312.333333333 143.666666667 299 119 c 128
 285.666666667 94.3333333333 274 75.8333333333 264 63.5 c 128
 254 51.1666666667 242.5 38.5 229.5 25.5 c 128
 216.5 12.5 203.166666667 3.33333333333 189.5 -2 c 128
 175.833333333 -7.33333333333 161.333333333 -10 146 -10 c 0
 108.666666667 -10 77.3333333333 -2 52 14 c 1
 37.3333333333 33.3333333333 30 56 30 82 c 0
 30 106.666666667 36.6666666667 127.5 50 144.5 c 128
 63.3333333333 161.5 81.3333333333 170 104 170 c 0
 117.333333333 170 132.5 160.666666667 149.5 142 c 128
 166.5 123.333333333 182 113.333333333 196 112 c 0
 217.333333333 110.666666667 237.333333333 126 256 158 c 0
 303.333333333 237.333333333 349.333333333 321 394 409 c 1
 338 684 l 2
 327.333333333 734.666666667 306 760 274 760 c 0
 256 760 229.833333333 746.166666667 195.5 718.5 c 128
 161.166666667 690.833333333 136.666666667 667.333333333 122 648 c 1
 119.333333333 648 115.333333333 653 110 663 c 128
 104.666666667 673 102 680.666666667 102 686 c 1
 116 710.666666667 150.666666667 747.5 206 796.5 c 128
 261.333333333 845.5 308 870 346 870 c 0
 377.333333333 870 405.5 854.666666667 430.5 824 c 128
 455.5 793.333333333 473.333333333 751.333333333 484 698 c 2
 512 562 l 1
 517.333333333 572.666666667 525.091111552 588.487587602 535.273334657 609.462762807 c 0
 554.424444886 648.487587602 568.833333333 677.5 578.5 696.5 c 128
 588.166666667 715.5 601.166666667 738.5 617.5 765.5 c 128
 633.833333333 792.5 648 812 660 824 c 128
 672 836 686.5 846.666666667 703.5 856 c 128
 720.5 865.333333333 738 870 756 870 c 0
 793.333333333 870 824.666666667 862 850 846 c 1
 864.666666667 826.666666667 872 804 872 778 c 0
 872 753.333333333 865.333333333 732.5 852 715.5 c 128
 838.666666667 698.5 820.666666667 690 798 690 c 0
 784.666666667 690 769.5 699.333333333 752.5 718 c 128
 735.5 736.666666667 720 746.666666667 706 748 c 0
 684.666666667 749.333333333 664.666666667 734 646 702 c 0
 597.333333333 618.666666667 557.666666667 547.333333333 527 488 c 1
 590 178 l 2
EndSplineSet
Substitution2: "'smcp' Lowercase to Small Capitals in Latin lookup 3-1" x.sc
EndChar
StartChar: y
Encoding: 121 121 88
Width: 436
Flags: HW
LayerCount: 2
Fore
SplineSet
129 425 m 0
 139 425 149 420 157 410 c 128
 165 400 172 387 178 369 c 128
 184 351 188 332 193 311 c 128
 198 290 201 268 204 242 c 128
 207 216 208 192 210 171 c 128
 212 150 213 127 214 104 c 128
 215 81 216 62 216 50 c 128
 216 38 216 26 216 15 c 1
 227 28 238 43 249 60 c 128
 260 77 272 98 285 122 c 128
 298 146 308 171 316 199 c 128
 324 227 328 253 328 278 c 0
 328 296 327 313 324 328 c 128
 321 343 318 353 315 359 c 128
 312 365 309 373 304 383 c 1
 308 396 314 407 323 414 c 128
 332 421 342 425 353 425 c 0
 382 425 396 399 396 348 c 0
 396 311 388 270 372 226 c 128
 356 182 335 139 309 97 c 128
 283 55 255 15 222 -25 c 128
 189 -65 157 -99 124 -129 c 128
 91 -159 60 -183 29 -201 c 128
 -2 -219 -29 -228 -50 -228 c 0
 -67 -228 -81 -224 -92 -216 c 128
 -103 -208 -108 -199 -108 -188 c 0
 -108 -179 -107 -170 -103 -162 c 128
 -99 -154 -93 -149 -86 -145 c 1
 -79 -149 -67 -153 -50 -157 c 128
 -33 -161 -19 -163 -8 -163 c 0
 43 -163 88 -136 125 -82 c 0
 129 -76 132 -69 135 -60 c 128
 138 -51 140 -40 141 -28 c 128
 142 -16 143 -7 143 0 c 128
 143 7 143 19 143 34 c 128
 143 49 143 59 143 61 c 0
 143 93 142 125 140 157 c 128
 138 189 135 223 131 257 c 128
 127 291 121 318 113 339 c 128
 105 360 95 371 84 371 c 0
 81 371 77 370 72 367 c 128
 67 364 63 361 58 357 c 128
 53 353 48 349 43 344 c 128
 38 339 34 335 30 331 c 128
 26 327 23 323 20 320 c 2
 16 314 l 1
 14 314 12 317 10 322 c 128
 8 327 6 330 6 333 c 1
 14 347 32 367 59 390 c 128
 86 413 109 425 129 425 c 0
EndSplineSet
Substitution2: "'smcp' Lowercase to Small Capitals in Latin lookup 3-1" y.sc
EndChar
StartChar: z
Encoding: 122 122 89
Width: 377
Flags: W
HStem: 0 67<184 255> 31 69<53 167> 324 70<186 303> 357 67<102 176>
VStem: 42 12<292 302>
LayerCount: 2
Fore
SplineSet
142 425 m 0x18
 170 425 193 414 217 405 c 0
 234 399 250 395 271 395 c 0x28
 307 395 351 425 359 425 c 1
 367 421 370 412 370 405 c 0
 370 391 93 94 90 90 c 1
 94 92 114 101 135 101 c 0x58
 156 101 176 93 195 84 c 0
 214 76 231 67 247 67 c 0
 272 67 298 124 304 133 c 1
 313 133 314 125 315 117 c 1
 298 80 259 0 213 0 c 0x88
 190 0 160 11 135 21 c 0
 119 27 87 31 65 31 c 0x48
 37 31 21 10 1 0 c 1
 -5 2 -9 10 -10 19 c 1
 -10 34 283 341 285 345 c 1
 282 343 256 324 224 324 c 0xa8
 203 324 183 333 164 341 c 0
 145 350 128 357 111 357 c 0
 84 357 60 300 54 291 c 1
 47 291 43 298 42 307 c 1
 48 327 97 425 142 425 c 0x18
EndSplineSet
Substitution2: "'smcp' Lowercase to Small Capitals in Latin lookup 3-1" z.sc
EndChar
StartChar: braceleft
Encoding: 123 123 90
Width: 205
Flags: HW
LayerCount: 2
Fore
SplineSet
125 393 m 0
 130 418 124 442 119 466 c 0
 113 491 108 517 114 547 c 0
 133 642 203 705 245 722 c 1
 252 722 258 712 256 703 c 1
 229 690 173 644 163 594 c 0
 156 557 162 532 168 505 c 0
 174 481 179 453 171 414 c 0
 158 351 108 310 83 300 c 1
 104 290 140 249 127 186 c 0
 119 147 104 119 88 95 c 0
 71 68 55 43 48 6 c 0
 38 -44 77 -91 99 -104 c 1
 97 -113 87 -122 80 -122 c 1
 44 -105 -1 -42 18 53 c 0
 24 83 38 109 54 134 c 0
 69 158 84 182 89 207 c 0
 99 259 70 279 37 289 c 1
 36 291 36 296 37 300 c 0
 38 304 38 309 40 311 c 1
 77 321 115 341 125 393 c 0
EndSplineSet
Substitution2: "'smcp' Lowercase to Small Capitals in Latin lookup 3-1" braceleft.sc
EndChar
StartChar: bar
Encoding: 124 124 91
Width: 414
Flags: W
LayerCount: 2
Fore
SplineSet
338 1514 m 1,0,1
 370 1546 370 1546 426 1546 c 0,2,3
 437 1546 437 1546 447 1542 c 128,-1,4
 457 1538 457 1538 456 1532 c 2,5,-1
 120 -212 l 1,6,7
 109 -225 109 -225 82 -235.5 c 128,-1,8
 55 -246 55 -246 28 -246 c 0,9,10
 18 -246 18 -246 8.5 -241.5 c 128,-1,11
 -1 -237 -1 -237 0 -230 c 2,12,-1
 338 1514 l 1,0,1
EndSplineSet
Substitution2: "'smcp' Lowercase to Small Capitals in Latin lookup 3-1" bar.sc
EndChar
StartChar: braceright
Encoding: 125 125 92
Width: 207
Flags: HW
LayerCount: 2
Fore
SplineSet
140 722 m 1
 176 705 223 642 204 547 c 0
 198 517 183 491 167 466 c 0
 152 442 137 418 132 393 c 0
 122 341 152 321 185 311 c 1
 186 309 186 304 185 300 c 0
 184 295 183 292 181 289 c 1
 144 279 106 259 96 207 c 0
 91 182 98 158 103 134 c 0
 109 109 114 83 108 53 c 0
 89 -42 18 -105 -24 -122 c 1
 -31 -122 -37 -113 -35 -104 c 1
 -8 -91 49 -44 59 6 c 0
 66 43 59 68 53 95 c 0
 47 119 42 147 50 186 c 0
 63 249 113 290 138 300 c 1
 117 310 81 351 94 414 c 0
 102 453 117 481 133 505 c 0
 150 532 166 557 173 594 c 0
 183 644 144 690 122 703 c 1
 124 712 133 722 140 722 c 1
EndSplineSet
Substitution2: "'smcp' Lowercase to Small Capitals in Latin lookup 3-1" braceright.sc
EndChar
StartChar: asciitilde
Encoding: 126 126 93
Width: 1090
Flags: HW
LayerCount: 2
Fore
SplineSet
394 708 m 0
 433.333333333 708 471.5 702.5 508.5 691.5 c 128
 545.5 680.5 576.666666667 668.333333333 602 655 c 128
 627.333333333 641.666666667 658.5 629.5 695.5 618.5 c 128
 732.5 607.5 770.666666667 602 810 602 c 0
 832.666666667 602 855.833333333 607 879.5 617 c 128
 903.166666667 627 921 636 933 644 c 128
 945 652 966 667.333333333 996 690 c 1
 1004 682 1008 675.333333333 1008 670 c 0
 1008 636.666666667 979.5 600 922.5 560 c 128
 865.5 520 804 500 738 500 c 0
 698.666666667 500 660.166666667 505.5 622.5 516.5 c 128
 584.833333333 527.5 553 539.666666667 527 553 c 128
 501 566.333333333 469.166666667 578.5 431.5 589.5 c 128
 393.833333333 600.5 355.333333333 606 316 606 c 0
 293.333333333 606 270.166666667 601 246.5 591 c 128
 222.833333333 581 205 572 193 564 c 128
 181 556 160 540.666666667 130 518 c 1
 122 526 118 532.666666667 118 538 c 0
 118 562.666666667 133.333333333 588.5 164 615.5 c 128
 194.666666667 642.5 231.666666667 664.666666667 275 682 c 128
 318.333333333 699.333333333 358 708 394 708 c 0
EndSplineSet
Substitution2: "'smcp' Lowercase to Small Capitals in Latin lookup 3-1" asciitilde.sc
EndChar
StartChar: exclamdown
Encoding: 161 161 95
Width: 406
VWidth: 0
Flags: HW
LayerCount: 2
Fore
SplineSet
0 -538 m 19
 -24 -538 -42.3333333333 -529.333333333 -55 -512 c 128
 -67.6666666667 -494.666666667 -74 -472.666666667 -74 -446 c 0
 -74 -424.666666667 -52.1565989879 -329.615339074 -8.46979696383 -160.846017223 c 0
 51.1767343454 69.717994259 108.666666667 294 164 512 c 0
 167.333333333 525.333333333 172.166666667 536.666666667 178.5 546 c 128
 184.833333333 555.333333333 190.666666667 558.666666667 196 556 c 0
 209.333333333 548.666666667 218.333333333 542.333333333 223 537 c 128
 227.666666667 531.666666667 230 524 230 514 c 1
 150 -94 109.333333333 -402.666666667 108 -412 c 0
 101.333333333 -446 88.5 -475.5 69.5 -500.5 c 128
 50.5 -525.5 27.3333333333 -538 0 -538 c 19
142 738 m 0
 142 774.666666667 155.333333333 807.5 182 836.5 c 128
 208.666666667 865.5 238.666666667 880 272 880 c 0
 297.333333333 880 318 871 334 853 c 128
 350 835 358 812.666666667 358 786 c 0
 358 748.666666667 344.666666667 716.333333333 318 689 c 128
 291.333333333 661.666666667 261.333333333 648 228 648 c 0
 202 648 181.166666667 656.5 165.5 673.5 c 128
 149.833333333 690.5 142 712 142 738 c 0
EndSplineSet
Substitution2: "'smcp' Lowercase to Small Capitals in Latin lookup 3-1" exclamdown.sc
EndChar
StartChar: cent
Encoding: 162 162 96
Width: 716
Flags: W
LayerCount: 2
Fore
SplineSet
508 948 m 17,0,1
 572 948 572 948 570 932 c 1,2,-1
 218 -90 l 1,3,4
 208 -90 208 -90 194.5 -88.5 c 0,5,6
 181 -87 181 -87 168 -82.5 c 0,7,8
 155 -78 155 -78 156 -72 c 1,9,-1
 508 948 l 17,0,1
EndSplineSet
Refer: 66 99 N 1 0 0 1 -12 0 2
EndChar
StartChar: sterling
Encoding: 163 163 97
Width: 436
UnlinkRmOvrlpSave: 1
Flags: HW
LayerCount: 2
Fore
SplineSet
65 312 m 1
 304 312 l 1
 305 311 305 308 304 303 c 128
 303 298 301 293 298 286 c 128
 295 279 291 275 287 273 c 1
 49 273 l 1
 45 283 50 297 65 312 c 1
168 242 m 0
 156 181 129 130 85 86 c 1
 89 87 92 88 95 89 c 128
 98 90 102 91 107 91 c 128
 112 91 117 91 120 91 c 128
 123 91 129 91 137 91 c 128
 145 91 152 91 158 91 c 0
 176 91 200 85 232 75 c 128
 264 65 285 60 295 60 c 0
 304 60 314 63 323 69 c 128
 332 75 338 81 343 86 c 128
 348 91 354 99 362 111 c 128
 370 123 374 130 375 131 c 1
 377 131 379 129 381 126 c 128
 383 123 384 119 384 114 c 0
 384 111 383 108 382 105 c 0
 341 29 298 -8 253 -8 c 0
 232 -8 203 -2 165 10 c 128
 127 22 101 28 87 28 c 0
 66 28 41 16 12 -9 c 1
 7 -9 2 -6 0 -2 c 128
 -2 2 -3 6 -2 10 c 1
 6 21 16 34 29 49 c 128
 42 64 50 74 55 80 c 1
 71 114 86 164 99 231 c 0
 102 244 104 271 106 313 c 128
 108 355 112 386 116 407 c 0
 128 468 155 520 196 560 c 128
 237 600 282 620 331 620 c 0
 363 620 384 608 394 584 c 1
 394 570 390 557 383 545 c 128
 376 533 366 526 355 526 c 0
 347 526 340 529 334 535 c 128
 328 541 324 546 321 553 c 128
 318 560 314 565 308 571 c 128
 302 577 295 579 287 579 c 0
 272 579 259 575 248 567 c 128
 237 559 227 547 220 533 c 128
 213 519 207 505 202 490 c 128
 197 475 193 458 189 439 c 0
 185 419 182 385 178 337 c 128
 174 289 171 257 168 242 c 0
EndSplineSet
EndChar
StartChar: currency
Encoding: 164 164 98
Width: 492
Flags: HW
LayerCount: 2
Fore
SplineSet
231 148 m 0
 252 148 273 158 292 176 c 128
 311 194 327 218 338 246 c 128
 349 274 354 303 354 333 c 0
 354 368 347 396 332 418 c 128
 317 440 298 452 274 452 c 0
 253 452 232 443 213 425 c 128
 194 407 178 383 167 354 c 128
 156 325 150 297 150 267 c 0
 150 232 158 204 173 182 c 128
 188 160 207 148 231 148 c 0
383 444 m 1
 447 498 l 2
 448 499 449 499 451 499 c 0
 456 499 461 495 467 485 c 128
 473 475 476 465 477 455 c 1
 411 400 l 1
 418 380 422 360 422 339 c 0
 422 310 417 283 406 258 c 128
 395 233 382 212 367 194 c 1
 405 138 l 2
 406 137 l 128
 406 136 l 0
 406 131 401 124 390 115 c 128
 379 106 367 101 357 98 c 1
 321 151 l 1
 288 128 254 117 218 117 c 0
 179 117 147 130 122 156 c 1
 64 107 l 2
 63 106 63 106 61 106 c 0
 56 106 51 111 45 121 c 128
 39 131 36 140 35 150 c 1
 94 200 l 1
 86 219 82 240 82 262 c 0
 82 290 87 317 99 344 c 128
 111 371 126 394 143 413 c 1
 106 468 l 2
 106 469 l 128
 105 470 l 0
 105 475 111 481 122 490 c 128
 133 499 144 505 154 508 c 1
 190 454 l 1
 221 474 254 484 289 484 c 0
 327 484 358 471 383 444 c 1
EndSplineSet
EndChar
StartChar: yen
Encoding: 165 165 99
Width: 1184
Flags: HW
LayerCount: 2
Fore
SplineSet
347 432 m 2
 341.666666667 432 339 437.333333333 339 448 c 0
 339 456 341.666666667 466.666666667 347 480 c 128
 352.333333333 493.333333333 358.333333333 502.666666667 365 508 c 1
 857 508 l 2
 861 508 863 503.333333333 863 494 c 0
 863 468.666666667 855 448 839 432 c 1
 347 432 l 2
317 276 m 2
 311.666666667 276 309 281.333333333 309 292 c 0
 309 300 311.666666667 310.666666667 317 324 c 128
 322.333333333 337.333333333 328.333333333 346.666666667 335 352 c 1
 827 352 l 2
 831 352 833 347.333333333 833 338 c 0
 833 312.666666667 825 292 809 276 c 1
 317 276 l 2
467 222 m 1
 523 510 l 1
 526.333333333 531.333333333 525.666666667 549.333333333 521 564 c 2
 361 1046 l 2
 349 1080.66666667 336.5 1107.5 323.5 1126.5 c 128
 310.5 1145.5 293 1162.66666667 271 1178 c 1
 259 1187.33333333 243.5 1194.66666667 224.5 1200 c 128
 205.5 1205.33333333 189.666666667 1208 177 1208 c 1
 174.333333333 1209.33333333 172.833333333 1213.5 172.5 1220.5 c 128
 172.166666667 1227.5 173.5 1235.66666667 176.5 1245 c 128
 179.5 1254.33333333 183 1260.66666667 187 1264 c 1
 207 1263.33333333 230.833333333 1262 258.5 1260 c 128
 286.166666667 1258 311.333333333 1256.5 334 1255.5 c 128
 356.666666667 1254.5 381 1254 407 1254 c 0
 440.333333333 1254 517 1257.33333333 637 1264 c 1
 638.333333333 1256.66666667 637.5 1245.5 634.5 1230.5 c 128
 631.5 1215.5 627.666666667 1208 623 1208 c 0
 601.666666667 1208 577.666666667 1203.33333333 551 1194 c 128
 524.333333333 1184.66666667 509 1169.33333333 505 1148 c 0
 502.333333333 1137.33333333 505.666666667 1118 515 1090 c 2
 667 632 l 1
 725 713.333333333 790.666666667 809.166666667 864 919.5 c 128
 937.333333333 1029.83333333 982.333333333 1100 999 1130 c 1
 1005.66666667 1140 1009.66666667 1149.33333333 1011 1158 c 0
 1011.66666667 1163.33333333 1009.33333333 1169.33333333 1004 1176 c 128
 998.666666667 1182.66666667 986.166666667 1189.33333333 966.5 1196 c 128
 946.833333333 1202.66666667 921.666666667 1206 891 1206 c 1
 888.333333333 1209.33333333 888.166666667 1218.5 890.5 1233.5 c 128
 892.833333333 1248.5 895.666666667 1258 899 1262 c 1
 1005.66666667 1255.33333333 1065.66666667 1252 1079 1252 c 0
 1106.33333333 1252 1130.33333333 1252.5 1151 1253.5 c 128
 1171.66666667 1254.5 1194 1256 1218 1258 c 128
 1242 1260 1261.66666667 1261.33333333 1277 1262 c 1
 1277 1257.33333333 1275 1246.83333333 1271 1230.5 c 128
 1267 1214.16666667 1263.66666667 1206 1261 1206 c 0
 1185 1206 1128.33333333 1180.66666667 1091 1130 c 1
 699 574 l 2
 694.333333333 567.333333333 690.833333333 561 688.5 555 c 128
 686.166666667 549 684.5 541.5 683.5 532.5 c 128
 682.5 523.5 681.666666667 518 681 516 c 2
 621 222 l 2
 606.333333333 149.333333333 600.333333333 102 603 80 c 0
 603.666666667 70.6666666667 618.333333333 63.3333333333 647 58 c 128
 675.666666667 52.6666666667 699.666666667 50 719 50 c 1
 722.333333333 45.3333333333 723 36 721 22 c 128
 719 8 715 -1.33333333333 709 -6 c 1
 589 0.666666666667 520.333333333 4 503 4 c 0
 485 4 414.333333333 0.666666666667 291 -6 c 1
 287 -0.666666666667 286.666666667 8.66666666667 290 22 c 128
 293.333333333 35.3333333333 297.666666667 44.6666666667 303 50 c 1
 322.333333333 50 347.5 52.6666666667 378.5 58 c 128
 409.5 63.3333333333 427 70.6666666667 431 80 c 1
 438.333333333 93.3333333333 450.333333333 140.666666667 467 222 c 1
EndSplineSet
EndChar
StartChar: brokenbar
Encoding: 166 166 100
Width: 206
VWidth: 0
Flags: HW
LayerCount: 2
Fore
SplineSet
166 736 m 1
 176 746 191 752 209 752 c 0
 213 752 216 751 219 750 c 128
 222 749 224 747 224 745 c 2
 156 391 l 1
 152 387 146 382 138 379 c 128
 130 376 121 374 112 374 c 0
 108 374 105 375 102 376 c 128
 99 377 98 380 98 382 c 2
 166 736 l 1
70 242 m 1
 80 252 95 258 113 258 c 0
 117 258 121 257 124 256 c 128
 127 255 128 253 128 251 c 2
 61 -104 l 1
 57 -108 51 -112 42 -115 c 128
 33 -118 25 -120 16 -120 c 0
 13 -120 9 -119 6 -118 c 128
 3 -117 2 -114 2 -112 c 2
 70 242 l 1
EndSplineSet
EndChar
StartChar: section
Encoding: 167 167 101
Width: 385
UnlinkRmOvrlpSave: 1
Flags: HW
LayerCount: 2
Fore
SplineSet
341 638 m 0
 292 638 249 624 213 596 c 128
 177 568 155 535 147 495 c 0
 146 488 145 481 145 474 c 128
 145 467 145 461 146 455 c 128
 147 449 148 443 150 436 c 128
 152 429 155 423 157 418 c 128
 159 413 162 408 166 401 c 128
 170 394 173 389 176 385 c 128
 179 381 182 375 187 369 c 128
 192 363 195 357 198 354 c 128
 201 351 205 346 210 340 c 128
 215 334 219 330 221 327 c 0
 276 261 297 196 285 132 c 0
 283 124 281 116 279 109 c 128
 277 102 274 95 269 88 c 128
 264 81 260 76 258 72 c 128
 256 68 251 62 244 52 c 128
 237 42 232 36 229 32 c 1
 213 20 200 8 192 -3 c 0
 190 -6 188 -9 187 -12 c 128
 186 -15 184 -19 183 -24 c 128
 182 -29 181 -32 180 -34 c 1
 205 -18 237 13 275 58 c 128
 313 103 336 143 342 175 c 1
 344 190 346 203 346 215 c 128
 346 227 345 240 341 253 c 128
 337 266 334 278 330 288 c 128
 326 298 321 309 314 320 c 128
 307 331 301 341 295 349 c 128
 289 357 283 365 276 374 c 0
 216 447 190 501 197 536 c 0
 200 553 211 566 228 575 c 128
 245 584 263 589 280 589 c 0
 290 589 299 586 308 581 c 0
 309 580 311 579 313 578 c 128
 315 577 317 576 318 575 c 128
 319 574 321 573 323 572 c 128
 325 571 327 570 330 570 c 128
 333 570 335 569 338 569 c 0
 345 569 353 574 362 582 c 128
 371 590 375 597 377 604 c 0
 379 615 379 624 377 630 c 1
 367 635 355 638 341 638 c 0
165 529 m 1
 181 541 194 553 202 564 c 0
 204 567 206 571 207 574 c 128
 208 577 210 580 211 585 c 128
 212 590 212 594 213 596 c 1
 188 580 156 548 118 503 c 128
 80 458 57 419 51 387 c 1
 49 372 48 358 48 346 c 128
 48 334 49 321 53 308 c 128
 57 295 60 283 64 273 c 128
 68 263 73 252 80 241 c 128
 87 230 92 221 98 213 c 128
 104 205 111 197 118 188 c 0
 178 115 204 60 197 25 c 0
 194 8 183 -5 165 -14 c 128
 147 -23 130 -27 113 -27 c 0
 104 -27 94 -25 85 -20 c 0
 84 -19 83 -17 81 -16 c 128
 79 -15 77 -14 76 -13 c 128
 75 -12 73 -12 71 -11 c 128
 69 -10 66 -9 63 -9 c 128
 60 -9 58 -8 55 -8 c 0
 48 -8 40 -12 31 -20 c 128
 22 -28 18 -36 16 -43 c 0
 14 -54 14 -62 16 -68 c 1
 26 -73 38 -76 52 -76 c 0
 101 -76 144 -63 180 -35 c 128
 216 -7 239 26 247 66 c 0
 248 73 249 80 249 87 c 128
 249 94 249 101 248 107 c 128
 247 113 245 119 243 126 c 128
 241 133 239 138 237 143 c 128
 235 148 232 154 228 161 c 128
 224 168 221 173 218 177 c 128
 215 181 212 187 207 193 c 128
 202 199 198 204 195 207 c 128
 192 210 188 215 183 221 c 128
 178 227 174 231 172 234 c 0
 117 300 97 366 109 430 c 0
 111 438 113 445 115 452 c 128
 117 459 120 466 125 473 c 128
 130 480 133 486 135 490 c 128
 137 494 143 500 150 510 c 128
 157 520 162 525 165 529 c 1
EndSplineSet
EndChar
StartChar: copyright
Encoding: 169 169 103
Width: 588
Flags: W
HStem: 67 30<192 336> 190 31<261 366> 438 33<290 394> 570 30<280 427>
VStem: 56 29<208 366> 175 54<246 381> 413 21<385 414> 533 28<302 457>
LayerCount: 2
Fore
SplineSet
334 472 m 0
 361 472 404 466 432 453 c 1
 433 451 434 448 434 445 c 16
 435 431 435 405 435 396 c 0
 435 385 422 385 419 385 c 0
 417 385 414 386 413 387 c 1
 413 400 403 438 339 438 c 0
 285 438 229 381 229 308 c 0
 229 249 269 222 305 222 c 0
 379 222 386 260 394 272 c 1
 394 272 395 273 397 273 c 27
 403 273 411 270 411 270 c 1
 410 267 388 212 381 209 c 0
 350 196 319 190 281 190 c 0
 218 190 175 237 175 300 c 0
 175 385 248 472 334 472 c 0
360 601 m 0
 479 601 562 510 562 389 c 0
 562 220 411 67 256 67 c 0
 137 67 56 158 56 279 c 0
 56 448 205 601 360 601 c 0
354 570 m 0
 218 570 85 435 85 285 c 0
 85 179 158 98 263 98 c 0
 399 98 533 233 533 382 c 0
 533 489 459 570 354 570 c 0
EndSplineSet
EndChar
StartChar: ordfeminine
Encoding: 170 170 104
Width: 371
VWidth: 0
Flags: HW
LayerCount: 2
Fore
SplineSet
251 243 m 0
 243 243 237 246 232 253 c 128
 227 260 226 269 226 279 c 0
 226 287 227 299 230 315 c 0
 231 320 232 325 233 329 c 128
 234 333 235 336 235 336 c 1
 223 317 206 297 184 276 c 128
 162 255 143 244 124 244 c 0
 103 244 87 251 75 266 c 128
 63 281 58 300 58 324 c 0
 58 352 64 380 78 408 c 128
 92 436 110 460 131 479 c 128
 152 498 176 514 201 526 c 128
 226 538 250 544 272 544 c 0
 293 544 313 541 331 535 c 1
 285 319 l 1
 283 313 282 306 282 298 c 0
 282 287 284 281 289 281 c 0
 299 281 317 294 343 320 c 1
 344 320 345 318 347 315 c 128
 349 312 350 310 350 308 c 1
 344 299 329 285 307 268 c 128
 285 251 266 243 251 243 c 0
238 517 m 0
 219 517 201 509 181 492 c 128
 161 475 145 454 132 428 c 128
 119 402 113 376 113 351 c 0
 113 306 126 283 151 283 c 0
 169 283 190 300 212 333 c 128
 234 366 249 400 257 435 c 1
 272 507 l 1
 265 514 254 517 238 517 c 0
EndSplineSet
EndChar
StartChar: guillemotleft
Encoding: 171 171 105
Width: 968
VWidth: 0
Flags: W
LayerCount: 2
Fore
SplineSet
800 182 m 1,0,1
 788 161 788 161 758 146 c 1,2,3
 712 206 712 206 617 297.5 c 128,-1,4
 522 389 522 389 434 456 c 1,5,6
 414 469 414 469 414 484 c 0,7,8
 414 515 414 515 444 532 c 0,9,10
 523 577 523 577 593.5 623.5 c 128,-1,11
 664 670 664 670 693 691 c 128,-1,12
 722 712 722 712 799 773 c 128,-1,13
 876 834 876 834 892 846 c 1,14,15
 923 838 923 838 928 816 c 1,16,17
 924 805 924 805 840 725.5 c 128,-1,18
 756 646 756 646 674 572 c 2,19,-1
 592 498 l 1,20,21
 800 198 800 198 800 182 c 1,0,1
440 182 m 1,22,23
 428 161 428 161 398 146 c 1,24,25
 352 206 352 206 257 297.5 c 128,-1,26
 162 389 162 389 74 456 c 1,27,28
 54 469 54 469 54 484 c 0,29,30
 54 515 54 515 84 532 c 0,31,32
 163 577 163 577 233.5 623.5 c 128,-1,33
 304 670 304 670 333 691 c 128,-1,34
 362 712 362 712 439 773 c 128,-1,35
 516 834 516 834 532 846 c 1,36,37
 563 838 563 838 568 816 c 1,38,39
 564 805 564 805 480 725.5 c 128,-1,40
 396 646 396 646 314 572 c 2,41,-1
 232 498 l 1,42,43
 440 198 440 198 440 182 c 1,22,23
EndSplineSet
EndChar
StartChar: logicalnot
Encoding: 172 172 106
Width: 1080
VWidth: 0
Flags: HW
LayerCount: 2
Fore
SplineSet
140 714 m 2
 986 714 l 1
 892 230 l 1
 888 226 878.5 221 863.5 215 c 128
 848.5 209 834.666666667 206 822 206 c 0
 814.666666667 206 808 207.333333333 802 210 c 128
 796 212.666666667 793.333333333 216.666666667 794 222 c 2
 868 628 l 1
 104 628 l 1
 100 638.666666667 98 648 98 656 c 0
 98 672 102.5 685.666666667 111.5 697 c 128
 120.5 708.333333333 130 714 140 714 c 2
EndSplineSet
EndChar
StartChar: registered
Encoding: 174 174 107
Width: 1206
Flags: HW
LayerCount: 2
Fore
SplineSet
689 1058 m 27
 662.333333333 1058 644.666666667 1056.33333333 636 1053 c 128
 627.333333333 1049.66666667 622.333333333 1044.66666667 621 1038 c 2
 593 888 l 2
 593 886.666666667 592.333333333 885.166666667 591 883.5 c 128
 589.666666667 881.833333333 589 880.666666667 589 880 c 0
 589 864 614.333333333 856 665 856 c 0
 694.333333333 856 718.333333333 868.833333333 737 894.5 c 128
 755.666666667 920.166666667 765 949.333333333 765 982 c 0
 765 1032.66666667 739.666666667 1058 689 1058 c 27
709 1108 m 27
 749.666666667 1108 784.5 1097.33333333 813.5 1076 c 128
 842.5 1054.66666667 857 1024.66666667 857 986 c 0
 857 919.333333333 818.333333333 866.666666667 741 828 c 0
 739.666666667 826.666666667 739 824.666666667 739 822 c 2
 739 820 l 1
 743.666666667 790 765 738.666666667 803 666 c 0
 814.333333333 643.333333333 823.333333333 626.5 830 615.5 c 128
 836.666666667 604.5 845.833333333 594.5 857.5 585.5 c 128
 869.166666667 576.5 882.333333333 572 897 572 c 1
 897 562.666666667 895.666666667 555.333333333 893 550 c 1
 885 546 873 544 857 544 c 0
 832.333333333 544 811.833333333 546.5 795.5 551.5 c 128
 779.166666667 556.5 764.5 563.333333333 751.5 572 c 128
 738.5 580.666666667 725.666666667 596.166666667 713 618.5 c 128
 700.333333333 640.833333333 688.666666667 664.166666667 678 688.5 c 128
 667.333333333 712.833333333 653 748.666666667 635 796 c 1
 629.666666667 808 618.333333333 814 601 814 c 0
 585.666666667 814 577 808.666666667 575 798 c 2
 541 620 l 1
 541 598 l 2
 541 589.333333333 543 584 547 582 c 0
 563 574 575.666666667 570 585 570 c 0
 586.333333333 570 587 568 587 564 c 0
 587 561.333333333 585.666666667 554.666666667 583 544 c 1
 532.333333333 546.666666667 499 548 483 548 c 0
 465.666666667 548 429 546.666666667 373 544 c 1
 373 546 372.666666667 548.666666667 372 552 c 128
 371.333333333 555.333333333 371 558 371 560 c 0
 371 561.333333333 371.833333333 563.166666667 373.5 565.5 c 128
 375.166666667 567.833333333 376.333333333 569.333333333 377 570 c 0
 392.333333333 572 403.833333333 573.833333333 411.5 575.5 c 128
 419.166666667 577.166666667 425.5 580.833333333 430.5 586.5 c 128
 435.5 592.166666667 438.5 596.666666667 439.5 600 c 128
 440.5 603.333333333 442.166666667 611.833333333 444.5 625.5 c 128
 446.833333333 639.166666667 449 650.666666667 451 660 c 2
 517 998 l 2
 522.333333333 1027.33333333 525 1046.66666667 525 1056 c 0
 525 1064 519.833333333 1070.33333333 509.5 1075 c 128
 499.166666667 1079.66666667 489.666666667 1082 481 1082 c 0
 478.333333333 1082 477 1083.33333333 477 1086 c 128
 477 1088.66666667 477.333333333 1091 478 1093 c 128
 478.666666667 1095 479.5 1097.16666667 480.5 1099.5 c 128
 481.5 1101.83333333 482.333333333 1104 483 1106 c 1
 489.666666667 1105.33333333 502.333333333 1104.16666667 521 1102.5 c 128
 539.666666667 1100.83333333 555.666666667 1100 569 1100 c 0
 587 1100 610.333333333 1101.33333333 639 1104 c 128
 667.666666667 1106.66666667 691 1108 709 1108 c 27
763 1360 m 128
 855 1360 935.333333333 1335.66666667 1004 1287 c 128
 1072.66666667 1238.33333333 1121.83333333 1172 1151.5 1088 c 128
 1181.16666667 1004 1186.33333333 912.666666667 1167 814 c 0
 1148.33333333 715.333333333 1107.83333333 623.833333333 1045.5 539.5 c 128
 983.166666667 455.166666667 908.166666667 388.5 820.5 339.5 c 128
 732.833333333 290.5 643 266 551 266 c 128
 459 266 378.833333333 290.5 310.5 339.5 c 128
 242.166666667 388.5 193.333333333 455 164 539 c 128
 134.666666667 623 129.666666667 714.666666667 149 814 c 0
 168.333333333 912.666666667 208.833333333 1004 270.5 1088 c 128
 332.166666667 1172 406.666666667 1238.33333333 494 1287 c 128
 581.333333333 1335.66666667 671 1360 763 1360 c 128
753 1296 m 128
 671.666666667 1296 592.5 1274.5 515.5 1231.5 c 128
 438.5 1188.5 372.833333333 1130 318.5 1056 c 128
 264.166666667 982 228.333333333 901.333333333 211 814 c 128
 193.666666667 726.666666667 197.833333333 645.833333333 223.5 571.5 c 128
 249.166666667 497.166666667 292.166666667 438.333333333 352.5 395 c 128
 412.833333333 351.666666667 483.666666667 330 565 330 c 128
 646.333333333 330 725.833333333 351.666666667 803.5 395 c 128
 881.166666667 438.333333333 947.166666667 497.166666667 1001.5 571.5 c 128
 1055.83333333 645.833333333 1091.66666667 726.666666667 1109 814 c 128
 1126.33333333 901.333333333 1122 982 1096 1056 c 128
 1070 1130 1026.66666667 1188.5 966 1231.5 c 128
 905.333333333 1274.5 834.333333333 1296 753 1296 c 128
EndSplineSet
EndChar
StartChar: degree
Encoding: 176 176 109
Width: 259
VWidth: 0
Flags: HW
LayerCount: 2
Fore
SplineSet
123 512 m 0
 123 498 127 486 135 477 c 128
 143 468 155 463 168 463 c 0
 185 463 201 470 215 485 c 128
 229 500 235 516 235 535 c 0
 235 549 231 561 223 570 c 128
 215 579 203 583 190 583 c 0
 172 583 158 576 144 562 c 128
 130 548 123 532 123 512 c 0
88 505 m 0
 88 536 99 562 122 585 c 128
 145 608 170 619 197 619 c 0
 218 619 236 612 250 597 c 128
 264 582 271 564 271 542 c 0
 271 512 259 485 236 462 c 128
 213 439 188 427 161 427 c 0
 140 427 123 434 109 449 c 128
 95 464 88 483 88 505 c 0
EndSplineSet
EndChar
StartChar: plusminus
Encoding: 177 177 110
Width: 477
VWidth: 0
Flags: HW
LayerCount: 2
Fore
SplineSet
394 62 m 2
 396 62 396 60 396 55 c 0
 396 41 393 29 385 21 c 1
 4 21 l 2
 1 21 -1 23 -1 28 c 0
 -1 40 4 51 12 62 c 1
 394 62 l 2
58 299 m 2
 55 299 54 302 54 307 c 0
 54 319 58 330 66 341 c 1
 233 341 l 1
 267 512 l 2
 268 518 273 522 283 524 c 128
 293 526 301 527 307 527 c 0
 311 527 313 526 314 525 c 128
 315 524 316 522 315 520 c 2
 280 341 l 1
 447 341 l 2
 450 341 451 338 451 333 c 0
 451 319 447 307 439 299 c 1
 272 299 l 1
 239 125 l 2
 238 120 234 117 227 114 c 128
 220 111 212 109 204 109 c 128
 196 109 191 112 191 117 c 1
 226 299 l 1
 58 299 l 2
EndSplineSet
EndChar
StartChar: uni00B2
Encoding: 178 178 111
Width: 690
Flags: W
LayerCount: 2
Fore
SplineSet
674 1128 m 0,0,1
 674 1053 674 1053 633 991 c 128,-1,2
 592 929 592 929 510 846 c 0,3,4
 494 829 494 829 474 810.5 c 128,-1,5
 454 792 454 792 434 775 c 128,-1,6
 414 758 414 758 392.5 740.5 c 128,-1,7
 371 723 371 723 351.5 707.5 c 128,-1,8
 332 692 332 692 314 678.5 c 128,-1,9
 296 665 296 665 281 654 c 128,-1,10
 266 643 266 643 255 635 c 128,-1,11
 244 627 244 627 238.5 622.5 c 2,12,-1
 233 618 l 1,13,-1
 470 618 l 2,14,15
 544 618 544 618 590 719 c 1,16,17
 593 728 593 728 608 728 c 0,18,19
 611 728 611 728 623 721 c 128,-1,20
 635 714 635 714 636 712 c 1,21,22
 608 659 608 659 540 510 c 1,23,-1
 100 510 l 1,24,25
 98 512 98 512 95 524.5 c 128,-1,26
 92 537 92 537 92 542 c 1,27,28
 309 740 309 740 406 850 c 0,29,30
 518 977 518 977 518 1090 c 0,31,32
 518 1139 518 1139 483.5 1171.5 c 128,-1,33
 449 1204 449 1204 402 1204 c 0,34,35
 371 1204 371 1204 343.5 1193.5 c 128,-1,36
 316 1183 316 1183 294 1162 c 128,-1,37
 272 1141 272 1141 264.5 1132.5 c 128,-1,38
 257 1124 257 1124 243 1105 c 1,39,40
 237 1105 237 1105 231 1119 c 128,-1,41
 225 1133 225 1133 226 1138 c 1,42,43
 243 1177 243 1177 317 1235 c 128,-1,44
 391 1293 391 1293 480 1293 c 0,45,46
 555 1293 555 1293 614.5 1250 c 128,-1,47
 674 1207 674 1207 674 1128 c 0,0,1
EndSplineSet
EndChar
StartChar: uni00B3
Encoding: 179 179 112
Width: 632
Flags: HW
LayerCount: 2
Fore
SplineSet
458 1296 m 0
 491.333333333 1296 522 1284.33333333 550 1261 c 128
 578 1237.66666667 592 1204.66666667 592 1162 c 0
 592 1124.66666667 576.5 1088.83333333 545.5 1054.5 c 128
 514.5 1020.16666667 479.333333333 992 440 970 c 1
 482.666666667 967.333333333 520.666666667 948.5 554 913.5 c 128
 587.333333333 878.5 604 842 604 804 c 0
 604 754 590.833333333 708.333333333 564.5 667 c 128
 538.166666667 625.666666667 505.833333333 593 467.5 569 c 128
 429.166666667 545 390.833333333 526.5 352.5 513.5 c 128
 314.166666667 500.5 280 494 250 494 c 0
 179.333333333 494 130 504 102 524 c 1
 94 536 90 548 90 560 c 0
 90 578.666666667 97.1666666667 597.333333333 111.5 616 c 128
 125.833333333 634.666666667 140 644 154 644 c 0
 166 644 175.666666667 641.666666667 183 637 c 128
 190.333333333 632.333333333 198.5 623.333333333 207.5 610 c 128
 216.5 596.666666667 221.333333333 589.333333333 222 588 c 0
 240 566.666666667 269.333333333 556 310 556 c 0
 348.666666667 556 383.666666667 575.666666667 415 615 c 128
 446.333333333 654.333333333 462 706.666666667 462 772 c 0
 462 813.333333333 450.666666667 845.666666667 428 869 c 128
 405.333333333 892.333333333 374.666666667 904 336 904 c 0
 312 904 290.666666667 901.333333333 272 896 c 1
 266.666666667 904 264 908.666666667 264 910 c 0
 264 926 264.666666667 935.333333333 266 938 c 1
 321.333333333 948 371.166666667 969.833333333 415.5 1003.5 c 128
 459.833333333 1037.16666667 482 1076 482 1120 c 0
 482 1145.33333333 474.5 1167.66666667 459.5 1187 c 128
 444.5 1206.33333333 424.666666667 1216 400 1216 c 0
 383.333333333 1216 366.666666667 1212 350 1204 c 128
 333.333333333 1196 320.166666667 1187.33333333 310.5 1178 c 128
 300.833333333 1168.66666667 291.666666667 1159.16666667 283 1149.5 c 128
 274.333333333 1139.83333333 269.333333333 1134.66666667 268 1134 c 1
 264 1134 260 1138.16666667 256 1146.5 c 128
 252 1154.83333333 250.666666667 1162 252 1168 c 1
 312.666666667 1253.33333333 381.333333333 1296 458 1296 c 0
EndSplineSet
EndChar
StartChar: mu
Encoding: 181 181 114
Width: 986
Flags: HW
LayerCount: 2
Fore
SplineSet
802 138 m 0
 788 102 764.833333333 68.6666666667 732.5 38 c 0
 700.166666667 7.33333333333 668.666666667 -8 638 -8 c 0
 622.666666667 -8 609.333333333 -4.83333333333 598 1.5 c 0
 586.666666667 7.83333333333 577.333333333 16 570 26 c 0
 562.666666667 36 556.833333333 49.1666666667 552.5 65.5 c 0
 548.166666667 81.8333333333 545.166666667 97.5 543.5 112.5 c 0
 541.833333333 127.5 541 145.833333333 541 167.5 c 0
 541 189.166666667 541.333333333 207.666666667 542 223 c 0
 542.666666667 238.333333333 544 257.333333333 546 280 c 1
 492.666666667 186.666666667 443.166666667 113.666666667 397.5 61 c 0
 351.833333333 8.33333333333 306 -18 260 -18 c 0
 194.666666667 -18 162 46.6666666667 162 176 c 1
 161.333333333 170 154.5 144 141.5 98 c 0
 128.5 52 116 0.666666666667 104 -56 c 0
 92 -112.666666667 86 -160 86 -198 c 0
 86 -255.333333333 108 -318.666666667 152 -388 c 1
 150 -401.333333333 139.5 -413.666666667 120.5 -425 c 0
 101.5 -436.333333333 82.6666666667 -442 64 -442 c 0
 56 -442 47.8333333333 -440.166666667 39.5 -436.5 c 0
 31.1666666667 -432.833333333 22 -426.166666667 12 -416.5 c 0
 2 -406.833333333 -6.16666666667 -391.333333333 -12.5 -370 c 0
 -18.8333333333 -348.666666667 -22 -322.666666667 -22 -292 c 0
 -22 -232.666666667 -2.16666666667 -124.333333333 37.5 33 c 0
 77.1666666667 190.333333333 112 315.333333333 142 408 c 1
 146 426 158.666666667 498.333333333 180 625 c 0
 201.333333333 751.666666667 214 825.333333333 218 846 c 1
 222.666666667 852 229.666666667 858.166666667 239 864.5 c 0
 248.333333333 870.833333333 256.666666667 874 264 874 c 0
 276 874 291.333333333 866.666666667 310 852 c 0
 328.666666667 837.333333333 342 819.333333333 350 798 c 1
 343.333333333 758.666666667 304 641.333333333 232 446 c 1
 221.333333333 395.333333333 216 346.666666667 216 300 c 0
 215.333333333 253.333333333 220.833333333 213.666666667 232.5 181 c 0
 244.166666667 148.333333333 259.333333333 132 278 132 c 0
 293.333333333 132 308.833333333 135.833333333 324.5 143.5 c 0
 340.166666667 151.166666667 356.333333333 164.166666667 373 182.5 c 0
 389.666666667 200.833333333 404.333333333 217.666666667 417 233 c 0
 429.666666667 248.333333333 445 271.166666667 463 301.5 c 0
 481 331.833333333 494.333333333 354.666666667 503 370 c 0
 511.666666667 385.333333333 525.333333333 410 544 444 c 1
 559.333333333 501.333333333 577 572.833333333 597 658.5 c 0
 617 744.166666667 632 806.666666667 642 846 c 1
 646.666666667 852 653.666666667 858.166666667 663 864.5 c 0
 672.333333333 870.833333333 680.666666667 874 688 874 c 0
 700 874 715.333333333 866.666666667 734 852 c 0
 752.666666667 837.333333333 766 819.333333333 774 798 c 1
 622 420 l 1
 602.666666667 338 598.666666667 269.5 610 214.5 c 0
 621.333333333 159.5 648 132 690 132 c 0
 723.333333333 132 756.666666667 148.666666667 790 182 c 1
 794 179.333333333 797.333333333 172.166666667 800 160.5 c 0
 802.666666667 148.833333333 803.333333333 141.333333333 802 138 c 0
EndSplineSet
EndChar
StartChar: paragraph
Encoding: 182 182 115
Width: 471
Flags: W
HStem: -88 42<156 231> 607 36<250 397> 618 23<456 510>
VStem: 62 210<345 518>
LayerCount: 2
Fore
SplineSet
292 644 m 0xd0
 346 644 385 642 420 642 c 0
 455 642 474 644 512 646 c 1
 516 641 511 623 506 618 c 1xb0
 495 618 457 614 452 603 c 0
 444 587 438 559 433 530 c 0
 402 348 395 305 372 182 c 0
 341 22 248 -88 170 -88 c 0
 142 -88 124 -76 117 -63 c 1
 117 -58 117 -53 118 -48 c 0
 121 -28 130 -9 147 -9 c 0
 164 -9 173 -19 184 -31 c 0
 191 -38 198 -46 212 -46 c 0
 250 -46 270 23 300 178 c 1
 367 524 l 2
 373 553 378 586 376 598 c 0
 374 607 365 607 358 607 c 0
 315 607 272 504 272 429 c 0
 272 363 289 333 307 318 c 1
 309 317 316 311 316 309 c 0
 316 284 254 267 224 267 c 0
 105 267 62 361 62 430 c 0
 62 571 209 644 292 644 c 0xd0
EndSplineSet
EndChar
StartChar: periodcentered
Encoding: 183 183 116
Width: 444
VWidth: 0
Flags: HW
LayerCount: 2
Fore
SplineSet
108 504 m 0
 108 540.666666667 122 573.166666667 150 601.5 c 128
 178 629.833333333 208.666666667 644 242 644 c 0
 267.333333333 644 288 635.333333333 304 618 c 128
 320 600.666666667 328 578.666666667 328 552 c 0
 328 515.333333333 314.333333333 482.5 287 453.5 c 128
 259.666666667 424.5 229.333333333 410 196 410 c 0
 170 410 148.833333333 418.833333333 132.5 436.5 c 128
 116.166666667 454.166666667 108 476.666666667 108 504 c 0
EndSplineSet
EndChar
StartChar: uni00B9
Encoding: 185 185 118
Width: 540
Flags: HW
LayerCount: 2
Fore
SplineSet
211 1112 m 1
 204.333333333 1118.66666667 201 1128 201 1140 c 0
 201 1146.66666667 203 1150.66666667 207 1152 c 0
 239.666666667 1167.33333333 280 1187.16666667 328 1211.5 c 128
 376 1235.83333333 415.166666667 1256 445.5 1272 c 128
 475.833333333 1288 491.666666667 1296 493 1296 c 2
 496 1296 l 2
 502 1296 505 1288.33333333 505 1273 c 1
 491.666666667 1245.66666667 480.333333333 1207.33333333 471 1158 c 2
 378 684 l 2
 369.333333333 638.666666667 365.333333333 602.333333333 366 575 c 0
 366.666666667 569.666666667 380.333333333 564.333333333 407 559 c 128
 433.666666667 553.666666667 451.666666667 551 461 551 c 0
 464.333333333 551 465 542 463 524 c 0
 462.333333333 518 460.333333333 512 457 506 c 1
 367 510 301.333333333 512 260 512 c 0
 254 512 204 510 110 506 c 1
 107.333333333 508.666666667 107.166666667 516.833333333 109.5 530.5 c 128
 111.833333333 544.166666667 114.333333333 551 117 551 c 0
 127.666666667 551 146.666666667 553.666666667 174 559 c 128
 201.333333333 564.333333333 216.333333333 569.666666667 219 575 c 0
 227.666666667 594.333333333 234.333333333 617.666666667 239 645 c 2
 313 1024 l 2
 325.482044505 1089.97652095 329.339452899 1127.15522515 324.572225183 1135.53611259 c 0
 322.87945554 1138.51203753 320.355380479 1140 317 1140 c 0
 296.333333333 1140 261 1130.66666667 211 1112 c 1
EndSplineSet
EndChar
StartChar: ordmasculine
Encoding: 186 186 119
Width: 678
Flags: HW
LayerCount: 2
Fore
SplineSet
454 1064 m 0
 413.333333333 1064 376.5 1045 343.5 1007 c 128
 310.5 969 286 924.166666667 270 872.5 c 128
 254 820.833333333 246 770.666666667 246 722 c 0
 246 666 254 621.333333333 270 588 c 128
 286 554.666666667 307.333333333 538 334 538 c 0
 374 538 409.833333333 557.333333333 441.5 596 c 128
 473.166666667 634.666666667 496.5 679.666666667 511.5 731 c 128
 526.5 782.333333333 534 832.666666667 534 882 c 0
 534 1003.33333333 507.333333333 1064 454 1064 c 0
474 1108 m 0
 534 1108 579 1089.33333333 609 1052 c 128
 639 1014.66666667 654 964.666666667 654 902 c 0
 654 854 644 805.333333333 624 756 c 128
 604 706.666666667 577.833333333 662.833333333 545.5 624.5 c 128
 513.166666667 586.166666667 475.5 554.833333333 432.5 530.5 c 128
 389.5 506.166666667 346.666666667 494 304 494 c 0
 244 494 199.333333333 511.666666667 170 547 c 128
 140.666666667 582.333333333 126 631.333333333 126 694 c 0
 126 758 142.5 822.166666667 175.5 886.5 c 128
 208.5 950.833333333 252.333333333 1003.83333333 307 1045.5 c 128
 361.666666667 1087.16666667 417.333333333 1108 474 1108 c 0
EndSplineSet
EndChar
StartChar: guillemotright
Encoding: 187 187 120
Width: 970
VWidth: 0
Flags: HW
LayerCount: 2
Fore
SplineSet
514 810 m 1
 522 824 536 836 556 846 c 1
 586.666666667 806 633.666666667 755.5 697 694.5 c 128
 760.333333333 633.5 821.333333333 580.666666667 880 536 c 1
 893.333333333 527.333333333 900 518 900 508 c 0
 900 487.333333333 890 471.333333333 870 460 c 0
 817.333333333 430 767.5 399.5 720.5 368.5 c 128
 673.5 337.5 640.333333333 315 621 301 c 128
 601.666666667 287 566.333333333 259.666666667 515 219 c 128
 463.666666667 178.333333333 432.666666667 154 422 146 c 1
 401.333333333 151.333333333 389.333333333 161.333333333 386 176 c 1
 388.666666667 183.333333333 418 213.5 474 266.5 c 128
 530 319.5 585.333333333 370.666666667 640 420 c 2
 722 494 l 1
 583.333333333 694 514 799.333333333 514 810 c 1
154 810 m 1
 162 824 176 836 196 846 c 1
 226.666666667 806 273.666666667 755.5 337 694.5 c 128
 400.333333333 633.5 461.333333333 580.666666667 520 536 c 1
 533.333333333 527.333333333 540 518 540 508 c 0
 540 487.333333333 530 471.333333333 510 460 c 0
 457.333333333 430 407.5 399.5 360.5 368.5 c 128
 313.5 337.5 280.333333333 315 261 301 c 128
 241.666666667 287 206.333333333 259.666666667 155 219 c 128
 103.666666667 178.333333333 72.6666666667 154 62 146 c 1
 41.3333333333 151.333333333 29.3333333333 161.333333333 26 176 c 1
 28.6666666667 183.333333333 58 213.5 114 266.5 c 128
 170 319.5 225.333333333 370.666666667 280 420 c 2
 362 494 l 1
 223.333333333 694 154 799.333333333 154 810 c 1
EndSplineSet
EndChar
StartChar: onequarter
Encoding: 188 188 121
Width: 622
VWidth: 0
Flags: HW
LayerCount: 2
Fore
SplineSet
566 396 m 0
 569 396 572 394 574 390 c 128
 576 386 578 384 577 381 c 2
 531 148 l 1
 565 148 l 2
 567 148 568 145 568 138 c 128
 568 131 568 125 567 118 c 0
 566 113 564 109 562 104 c 1
 523 104 l 1
 503 1 l 1
 494 -1 482 -2 468 -2 c 0
 464 -2 461 -2 458 -2 c 128
 455 -2 451 -1 448 -1 c 128
 445 -1 443 -1 441 0 c 128
 439 1 439 2 439 3 c 2
 458 104 l 1
 292 104 l 1
 288 106 286 110 288 117 c 1
 544 389 l 2
 549 394 556 396 566 396 c 0
500 307 m 25
 351 148 l 1
 467 148 l 1
 500 307 l 25
87 543 m 1
 84 546 83 551 83 557 c 0
 83 560 83 561 85 562 c 0
 101 569 122 580 145 592 c 128
 168 604 187 613 202 621 c 128
 217 629 224 633 225 633 c 2
 227 633 l 2
 230 633 231 629 231 622 c 1
 224 609 219 589 214 565 c 2
 169 334 l 2
 165 312 163 294 163 281 c 0
 163 278 170 276 183 273 c 128
 196 270 204 269 209 269 c 0
 211 269 211 265 210 256 c 0
 210 253 210 250 208 247 c 1
 164 249 131 250 111 250 c 0
 108 250 84 249 38 247 c 1
 37 248 37 252 38 259 c 128
 39 266 41 269 42 269 c 0
 47 269 56 270 69 273 c 128
 82 276 90 278 91 281 c 0
 95 290 99 302 101 315 c 2
 137 500 l 2
 143 532 145 550 143 554 c 0
 142 555 141 557 139 557 c 0
 129 557 111 552 87 543 c 1
566 611 m 2
 130 -6 l 1
 114 -7 106 -3 106 4 c 0
 106 5 107 7 108 10 c 1
 544 627 l 1
 559 627 567 623 567 616 c 0
 567 613 567 612 566 611 c 2
EndSplineSet
EndChar
StartChar: onehalf
Encoding: 189 189 122
Width: 1378
VWidth: 0
Flags: HW
LayerCount: 2
Fore
SplineSet
1299 622 m 0
 1299 572 1285.33333333 526.333333333 1258 485 c 128
 1230.66666667 443.666666667 1189.66666667 395.333333333 1135 340 c 0
 1124.33333333 328.666666667 1112.33333333 316.833333333 1099 304.5 c 128
 1085.66666667 292.166666667 1072.33333333 280.333333333 1059 269 c 128
 1045.66666667 257.666666667 1031.83333333 246.166666667 1017.5 234.5 c 128
 1003.16666667 222.833333333 989.5 211.833333333 976.5 201.5 c 128
 963.5 191.166666667 951 181.5 939 172.5 c 128
 927 163.5 916 155.333333333 906 148 c 128
 896 140.666666667 887.333333333 134.333333333 880 129 c 128
 872.666666667 123.666666667 867.166666667 119.5 863.5 116.5 c 2
 858 112 l 1
 1095 112 l 2
 1144.33333333 112 1184.33333333 145.666666667 1215 213 c 1
 1217 219 1223 222 1233 222 c 0
 1235 222 1240 219.666666667 1248 215 c 128
 1256 210.333333333 1260.33333333 207.333333333 1261 206 c 1
 1242.33333333 170.666666667 1210.33333333 103.333333333 1165 4 c 1
 725 4 l 1
 723.666666667 5.33333333333 722 10.1666666667 720 18.5 c 128
 718 26.8333333333 717 32.6666666667 717 36 c 1
 861.666666667 168 966.333333333 270.666666667 1031 344 c 0
 1105.66666667 428.666666667 1143 508.666666667 1143 584 c 0
 1143 616.666666667 1131.5 643.833333333 1108.5 665.5 c 128
 1085.5 687.166666667 1058.33333333 698 1027 698 c 0
 1006.33333333 698 986.833333333 694.5 968.5 687.5 c 128
 950.166666667 680.5 933.666666667 670 919 656 c 128
 904.333333333 642 894.5 632.166666667 889.5 626.5 c 128
 884.5 620.833333333 877.333333333 611.666666667 868 599 c 1
 864 599 860 603.666666667 856 613 c 128
 852 622.333333333 850.333333333 628.666666667 851 632 c 1
 862.333333333 658 892.666666667 690.333333333 942 729 c 128
 991.333333333 767.666666667 1045.66666667 787 1105 787 c 0
 1155 787 1199.83333333 772.666666667 1239.5 744 c 128
 1279.16666667 715.333333333 1299 674.666666667 1299 622 c 0
181 1112 m 1
 174.333333333 1118.66666667 171 1128 171 1140 c 0
 171 1146.66666667 173 1150.66666667 177 1152 c 0
 209.666666667 1167.33333333 250 1187.16666667 298 1211.5 c 128
 346 1235.83333333 385.166666667 1256 415.5 1272 c 128
 445.833333333 1288 461.666666667 1296 463 1296 c 2
 466 1296 l 2
 472 1296 475 1288.33333333 475 1273 c 1
 461.666666667 1245.66666667 450.333333333 1207.33333333 441 1158 c 2
 348 684 l 2
 339.333333333 638.666666667 335.333333333 602.333333333 336 575 c 0
 336.666666667 569.666666667 350.333333333 564.333333333 377 559 c 128
 403.666666667 553.666666667 421.666666667 551 431 551 c 0
 434.333333333 551 435 542 433 524 c 0
 432.333333333 518 430.333333333 512 427 506 c 1
 337 510 271.333333333 512 230 512 c 0
 224 512 174 510 80 506 c 1
 77.3333333333 508.666666667 77.1666666667 516.833333333 79.5 530.5 c 128
 81.8333333333 544.166666667 84.3333333333 551 87 551 c 0
 97.6666666667 551 116.666666667 553.666666667 144 559 c 128
 171.333333333 564.333333333 186.333333333 569.666666667 189 575 c 0
 197.666666667 594.333333333 204.333333333 617.666666667 209 645 c 2
 283 1024 l 2
 295.482044505 1089.97652095 299.339452899 1127.15522515 294.572225183 1135.53611259 c 0
 292.87945554 1138.51203753 290.355380479 1140 287 1140 c 0
 266.333333333 1140 231 1130.66666667 181 1112 c 1
1161 1252 m 2
 269 -12 l 1
 235.666666667 -13.3333333333 219 -6.66666666667 219 8 c 0
 219 10.6666666667 220.333333333 14.6666666667 223 20 c 1
 1117 1284 l 1
 1147.66666667 1284 1163 1276.66666667 1163 1262 c 0
 1163 1256.66666667 1162.33333333 1253.33333333 1161 1252 c 2
EndSplineSet
EndChar
StartChar: threequarters
Encoding: 190 190 123
Width: 1302
VWidth: 0
Flags: HW
LayerCount: 2
Fore
SplineSet
1190 810 m 0
 1196 810 1201.5 806.333333333 1206.5 799 c 128
 1211.5 791.666666667 1213.33333333 785.333333333 1212 780 c 2
 1118 304 l 1
 1188 304 l 2
 1192 304 1194.16666667 297 1194.5 283 c 128
 1194.83333333 269 1194 255.333333333 1192 242 c 0
 1190.66666667 232 1187.33333333 222 1182 212 c 1
 1102 212 l 1
 1062 2 l 1
 1043.33333333 -2 1019.33333333 -4 990 -4 c 0
 982 -4 974.666666667 -3.83333333333 968 -3.5 c 128
 961.333333333 -3.16666666667 955 -2.66666666667 949 -2 c 128
 943 -1.33333333333 938.166666667 -0.333333333333 934.5 1 c 128
 930.833333333 2.33333333333 929.333333333 4 930 6 c 2
 970 212 l 1
 628 212 l 1
 619.333333333 216.666666667 616.666666667 226 620 240 c 1
 1146 796 l 2
 1155.33333333 805.333333333 1170 810 1190 810 c 0
1056 628 m 25
 750 304 l 1
 988 304 l 1
 1056 628 l 25
432 1296 m 0
 465.333333333 1296 496 1284.33333333 524 1261 c 128
 552 1237.66666667 566 1204.66666667 566 1162 c 0
 566 1124.66666667 550.5 1088.83333333 519.5 1054.5 c 128
 488.5 1020.16666667 453.333333333 992 414 970 c 1
 456.666666667 967.333333333 494.666666667 948.5 528 913.5 c 128
 561.333333333 878.5 578 842 578 804 c 0
 578 754 564.833333333 708.333333333 538.5 667 c 128
 512.166666667 625.666666667 479.833333333 593 441.5 569 c 128
 403.166666667 545 364.833333333 526.5 326.5 513.5 c 128
 288.166666667 500.5 254 494 224 494 c 0
 153.333333333 494 104 504 76 524 c 1
 68 536 64 548 64 560 c 0
 64 578.666666667 71.1666666667 597.333333333 85.5 616 c 128
 99.8333333333 634.666666667 114 644 128 644 c 0
 140 644 149.666666667 641.666666667 157 637 c 128
 164.333333333 632.333333333 172.5 623.333333333 181.5 610 c 128
 190.5 596.666666667 195.333333333 589.333333333 196 588 c 0
 214 566.666666667 243.333333333 556 284 556 c 0
 322.666666667 556 357.666666667 575.666666667 389 615 c 128
 420.333333333 654.333333333 436 706.666666667 436 772 c 0
 436 813.333333333 424.666666667 845.666666667 402 869 c 128
 379.333333333 892.333333333 348.666666667 904 310 904 c 0
 286 904 264.666666667 901.333333333 246 896 c 1
 240.666666667 904 238 908.666666667 238 910 c 0
 238 926 238.666666667 935.333333333 240 938 c 1
 295.333333333 948 345.166666667 969.833333333 389.5 1003.5 c 128
 433.833333333 1037.16666667 456 1076 456 1120 c 0
 456 1145.33333333 448.5 1167.66666667 433.5 1187 c 128
 418.5 1206.33333333 398.666666667 1216 374 1216 c 0
 357.333333333 1216 340.666666667 1212 324 1204 c 128
 307.333333333 1196 294.166666667 1187.33333333 284.5 1178 c 128
 274.833333333 1168.66666667 265.666666667 1159.16666667 257 1149.5 c 128
 248.333333333 1139.83333333 243.333333333 1134.66666667 242 1134 c 1
 238 1134 234 1138.16666667 230 1146.5 c 128
 226 1154.83333333 224.666666667 1162 226 1168 c 1
 286.666666667 1253.33333333 355.333333333 1296 432 1296 c 0
1160 1252 m 2
 268 -12 l 1
 234.666666667 -13.3333333333 218 -6.66666666667 218 8 c 0
 218 10.6666666667 219.333333333 14.6666666667 222 20 c 1
 1116 1284 l 1
 1146.66666667 1284 1162 1276.66666667 1162 1262 c 0
 1162 1256.66666667 1161.33333333 1253.33333333 1160 1252 c 2
EndSplineSet
EndChar
StartChar: questiondown
Encoding: 191 191 124
Width: 302
VWidth: 0
Flags: W
HStem: -204 48<28 110> 312 113<162 230>
VStem: -32 50<-145 -44> 142 107<331 405> 155 68<107 187>
LayerCount: 2
Fore
SplineSet
249 381 m 0xf0
 249 344 218 312 186 312 c 0
 161 312 142 332 142 357 c 0
 142 393 176 426 208 426 c 0
 233 426 249 406 249 381 c 0xf0
117 220 m 1
 117 224 122 232 127 235 c 1
 150 235 224 191 224 136 c 3
 224 95 201 73 176 55 c 0
 130 24 106 8 62 -23 c 16
 42 -37 18 -61 18 -98 c 3
 18 -136 39 -156 68 -156 c 0
 111 -156 111 -111 148 -111 c 0
 176 -111 182 -144 182 -162 c 1
 177 -177 135 -204 98 -204 c 0
 25 -204 -32 -139 -32 -78 c 0
 -32 -37 -20 -6 11 23 c 0
 34 44 72 64 123 99 c 0
 147 116 155 131 155 157 c 27xe8
 155 185 128 212 117 220 c 1
EndSplineSet
Substitution2: "'smcp' Lowercase to Small Capitals in Latin lookup 3-1" questiondown.sc
EndChar
StartChar: AE
Encoding: 198 198 131
Width: 766
Flags: HW
LayerCount: 2
Fore
SplineSet
379 300 m 1
 237 300 l 1
 119 128 l 1
 90 86 75 60 75 49 c 0
 75 42 82 36 97 31 c 128
 112 26 123 23 131 23 c 1
 131 22 131 21 131 18 c 128
 131 15 131 10 130 6 c 128
 129 2 129 -1 128 -3 c 1
 120 -3 110 -2 99 -1 c 128
 88 0 77 1 68 1 c 128
 59 1 48 2 36 2 c 0
 24 2 13 1 4 1 c 128
 -5 1 -15 0 -26 -1 c 128
 -37 -2 -48 -2 -58 -3 c 1
 -59 -2 -58 3 -58 11 c 128
 -58 19 -57 23 -55 23 c 0
 -48 23 -37 26 -23 30 c 128
 -9 34 2 38 8 44 c 0
 34 67 59 98 85 136 c 1
 386 572 l 1
 389 579 391 584 391 587 c 0
 391 593 388 598 383 603 c 128
 378 608 371 610 361 610 c 1
 359 612 359 616 359 624 c 128
 359 632 359 638 361 641 c 1
 457 642 l 2
 484 642 531 643 597 645 c 128
 663 647 712 648 746 648 c 1
 746 634 748 620 749 605 c 128
 750 590 751 573 753 556 c 128
 755 539 757 526 758 516 c 1
 755 513 748 511 740 511 c 0
 732 511 729 513 729 518 c 1
 724 555 713 580 697 594 c 128
 681 608 661 615 635 615 c 2
 557 615 l 2
 518 615 496 611 493 604 c 0
 488 592 483 569 479 534 c 2
 459 339 l 2
 459 338 460 337 462 336 c 128
 464 335 466 334 470 334 c 128
 474 334 478 333 482 333 c 128
 486 333 491 333 497 333 c 2
 545 333 l 2
 560 333 571 333 580 333 c 128
 589 333 597 335 604 337 c 128
 611 339 617 341 621 343 c 128
 625 345 628 348 632 354 c 128
 636 360 639 365 641 371 c 128
 643 377 646 384 650 395 c 0
 651 399 652 401 653 403 c 0
 655 408 660 410 668 410 c 0
 675 410 680 408 682 405 c 1
 662 221 l 1
 659 218 654 217 646 217 c 0
 639 217 635 220 634 225 c 0
 630 251 627 268 625 276 c 128
 623 284 619 290 615 293 c 1
 608 298 576 301 520 301 c 0
 477 301 455 298 454 292 c 2
 436 106 l 1
 433 63 433 41 435 39 c 0
 440 34 446 32 454 31 c 128
 462 30 477 29 498 29 c 2
 541 29 l 2
 590 29 628 40 657 60 c 0
 684 79 707 111 726 158 c 1
 728 162 732 164 739 164 c 0
 751 164 759 162 762 158 c 1
 759 151 751 134 738 107 c 128
 725 80 716 58 709 41 c 128
 702 24 696 9 693 -4 c 1
 662 -4 613 -3 547 -2 c 128
 481 -1 427 0 385 0 c 1
 264 -3 l 1
 263 0 263 6 264 15 c 128
 265 24 268 29 270 30 c 1
 279 30 291 32 308 35 c 128
 325 38 336 43 341 49 c 0
 348 57 353 67 356 77 c 128
 359 87 360 102 362 121 c 2
 379 300 l 1
382 333 m 1
 401 537 l 1
 261 333 l 1
 382 333 l 1
EndSplineSet
EndChar
StartChar: Eth
Encoding: 208 208 141
Width: 1368
Flags: W
LayerCount: 2
Fore
SplineSet
159 698 m 1,0,-1
 819 698 l 2,1,2
 825 698 825 698 828 693 c 0,3,4
 831 688 831 688 829 682 c 0,5,6
 821 643 821 643 809 626 c 1,7,-1
 147 626 l 2,8,9
 136 626 136 626 141 648 c 0,10,11
 149 688 149 688 159 698 c 1,0,-1
EndSplineSet
Refer: 35 68 N 1 0 0 1 0 0 2
EndChar
StartChar: multiply
Encoding: 215 215 148
Width: 822
Flags: HW
LayerCount: 2
Fore
SplineSet
54 136 m 0
 48 136 42.1666666667 145.166666667 36.5 163.5 c 128
 30.8333333333 181.833333333 28 199.333333333 28 216 c 1
 336 486 l 2
 338.666666667 488.666666667 340 490.666666667 340 492 c 0
 340 497.333333333 336.666666667 503.333333333 330 510 c 1
 136 776 l 1
 136 788.666666667 143.333333333 802.833333333 158 818.5 c 128
 172.666666667 834.166666667 183.333333333 842 190 842 c 0
 191.333333333 842 192.333333333 841.666666667 193 841 c 128
 193.666666667 840.333333333 194.5 839.166666667 195.5 837.5 c 128
 196.5 835.833333333 197.333333333 834.666666667 198 834 c 2
 406 552 l 2
 408.666666667 549.333333333 411.333333333 548 414 548 c 1
 418 550 l 1
 734 832 l 2
 738 836 742 838 746 838 c 0
 752.666666667 838 758.666666667 829 764 811 c 128
 769.333333333 793 772 774.666666667 772 756 c 1
 466 484 l 1
 462 480 l 1
 462 478.666666667 462.666666667 477.333333333 464 476 c 2
 664 204 l 1
 664 190.666666667 658.5 176 647.5 160 c 128
 636.5 144 627.333333333 136 620 136 c 128
 612.666666667 136 608 138 606 142 c 1
 400 422 l 2
 397.333333333 424.666666667 395.333333333 426 394 426 c 0
 391.333333333 426 388.666666667 424.666666667 386 422 c 2
 64 142 l 2
 60 138 56.6666666667 136 54 136 c 0
EndSplineSet
Substitution2: "'smcp' Lowercase to Small Capitals in Latin lookup 3-1" multiply.sc
EndChar
StartChar: Oslash
Encoding: 216 216 149
Width: 693
Flags: W
HStem: -11 28<255 383> 620 29<332 462> 632 20G<582 602>
VStem: 60 92<146 395> 564 92<240 489>
LayerCount: 2
Fore
SplineSet
115 -13 m 17xb8
 107 -10 89 4 94 10 c 9
 598 651 l 17
 606 649 625 636 620 630 c 9
 115 -13 l 17xb8
EndSplineSet
Refer: 46 79 N 1 0 0 1 0 0 3
EndChar
StartChar: Thorn
Encoding: 222 222 155
Width: 940
Flags: HW
LayerCount: 2
Fore
SplineSet
468 916 m 10
 336 232 l 1
 320 153.333333333 313.333333333 104 316 84 c 0
 316.666666667 74.6666666667 332.5 67 363.5 61 c 128
 394.5 55 419.333333333 52 438 52 c 1
 441.333333333 47.3333333333 441.666666667 37.6666666667 439 23 c 128
 436.333333333 8.33333333333 432 -1.33333333333 426 -6 c 1
 299.333333333 0.666666666667 228 4 212 4 c 0
 194 4 120 0.666666666667 -10 -6 c 1
 -14 -0.666666666667 -14.6666666667 9 -12 23 c 128
 -9.33333333333 37 -5.33333333333 46.6666666667 0 52 c 1
 18.6666666667 52 45 55 79 61 c 128
 113 67 132 74.6666666667 136 84 c 0
 145.333333333 102.666666667 158 152 174 232 c 2
 340 1086 l 2
 354.666666667 1160.66666667 360.666666667 1210 358 1234 c 0
 357.333333333 1243.33333333 341.5 1251 310.5 1257 c 128
 279.5 1263 254.666666667 1266 236 1266 c 1
 232.666666667 1270.66666667 232.333333333 1280.33333333 235 1295 c 128
 237.666666667 1309.66666667 242 1319.33333333 248 1324 c 1
 374.666666667 1317.33333333 447.333333333 1314 466 1314 c 0
 482.666666667 1314 556 1317.33333333 686 1324 c 1
 690 1318.66666667 690.333333333 1309 687 1295 c 128
 683.666666667 1281 679.333333333 1271.33333333 674 1266 c 1
 655.333333333 1266 629.333333333 1263 596 1257 c 128
 562.666666667 1251 544 1243.33333333 540 1234 c 0
 530.666666667 1215.33333333 518 1166 502 1086 c 1
 484 1000 l 1
 521.333333333 1014.66666667 568.666666667 1022 626 1022 c 0
 732.666666667 1022 819.666666667 994.333333333 887 939 c 128
 954.333333333 883.666666667 988 810.666666667 988 720 c 0
 988 636.666666667 966.166666667 560.166666667 922.5 490.5 c 128
 878.833333333 420.833333333 821.333333333 366.333333333 750 327 c 128
 678.666666667 287.666666667 602.666666667 268 522 268 c 0
 502.666666667 268 484.333333333 270.166666667 467 274.5 c 128
 449.666666667 278.833333333 438 283.333333333 432 288 c 1
 421.333333333 298.666666667 416 309.333333333 416 320 c 0
 416 322.666666667 418.666666667 325.333333333 424 328 c 1
 434.666666667 322.666666667 456.666666667 320 490 320 c 0
 527.333333333 320 564.833333333 329 602.5 347 c 128
 640.166666667 365 674.5 389.833333333 705.5 421.5 c 128
 736.5 453.166666667 761.666666667 492.666666667 781 540 c 128
 800.333333333 587.333333333 810 638 810 692 c 0
 810 873.333333333 732.666666667 964 578 964 c 0
 570 964 561.333333333 963.5 552 962.5 c 128
 542.666666667 961.5 531.5 959.5 518.5 956.5 c 128
 505.5 953.5 494.333333333 948.5 485 941.5 c 128
 475.666666667 934.5 470 926 468 916 c 10
EndSplineSet
EndChar
StartChar: germandbls
Encoding: 223 223 156
Width: 488
VWidth: 0
Flags: W
HStem: -228 42<-83 -8> -4 29<290 359> 367 36<43 119> 627 42<266 344>
VStem: 246 56<300 370> 374 62<50 145 471 598>
LayerCount: 2
Fore
SplineSet
199 403 m 0
 173 260 156 165 133 42 c 0
 102 -118 9 -228 -69 -228 c 0
 -97 -228 -115 -216 -122 -203 c 1
 -122 -198 -122 -193 -121 -187 c 0
 -118 -167 -110 -148 -93 -148 c 0
 -76 -148 -67 -159 -56 -171 c 0
 -49 -178 -41 -186 -27 -186 c 0
 11 -186 31 -117 61 38 c 1
 119 367 l 1
 36 367 l 2
 35 367 34 368 34 370 c 0
 34 380 57 403 79 403 c 2
 125 403 l 1
 156 563 249 669 327 669 c 0
 377 669 442 636 442 559 c 0
 442 473 385 442 357 416 c 0
 331 392 302 367 302 344 c 3
 302 318 331 292 354 266 c 0
 393 221 436 184 436 119 c 27
 436 48 378 -4 301 -4 c 3
 242 -4 217 17 203 31 c 1
 201 37 197 49 198 57 c 0
 200 84 216 97 237 97 c 3
 265 97 274 25 322 25 c 0
 361 25 374 55 374 86 c 0
 374 128 326 182 301 211 c 0
 273 243 246 271 246 316 c 0
 246 360 270 371 324 425 c 0
 351 452 375 483 375 534 c 0
 375 594 333 627 293 627 c 0
 250 627 228 559 199 403 c 0
EndSplineSet
Substitution2: "'smcp' Lowercase to Small Capitals in Latin lookup 3-1" germandbls.sc
EndChar
StartChar: ae
Encoding: 230 230 163
Width: 545
VWidth: 0
Flags: W
HStem: -8 53<67 142 318 378> 194 30<299 351> 385 40<168 265 379 490>
VStem: 6 74<52 140> 65 72<297 347> 227 63<153 194> 451 72<308 380>
LayerCount: 2
Fore
SplineSet
411 385 m 3xe6
 349 385 308 295 299 225 c 1
 337 225 451 274 451 346 c 3
 451 370 431 385 411 385 c 3xe6
212 105 m 2
 227 196 l 1
 184 188 153 177 131 166 c 0
 89 144 80 120 80 99 c 0xf6
 80 68 99 45 124 45 c 3
 155 45 211 96 212 105 c 2
245 425 m 3
 285 425 311 391 315 357 c 1
 347 394 405 425 457 425 c 0
 523 425 523 375 523 361 c 3
 523 275 366 204 294 194 c 1
 293 188 290 167 290 154 c 0
 290 92 311 52 358 52 c 3
 399 52 454 115 458 119 c 1
 461 119 469 108 470 100 c 1
 435 50 370 -6 320 -6 c 3
 280 -6 233 21 219 68 c 1
 202 47 114 -8 88 -8 c 3
 47 -8 6 17 6 78 c 0xf6
 6 123 40 160 63 176 c 0
 78 186 191 217 227 229 c 0
 234 231 232 238 235 251 c 2
 246 310 l 2
 248 318 248 326 248 330 c 3
 248 353 228 388 193 388 c 0
 164 388 151 367 138 331 c 0
 126 300 109 287 88 287 c 0
 67 287 65 306 65 315 c 0xee
 65 328 71 340 76 348 c 1
 104 372 182 425 245 425 c 3
EndSplineSet
Substitution2: "'smcp' Lowercase to Small Capitals in Latin lookup 3-1" ae.sc
EndChar
StartChar: eth
Encoding: 240 240 173
Width: 426
VWidth: 0
UnlinkRmOvrlpSave: 1
Flags: HW
LayerCount: 2
Back
SplineSet
246.09375 393.5546875 m 0
 226.5625 393.5546875 208.251953125 385.7421875 191.162109375 370.1171875 c 0
 174.072265625 354.4921875 160.075195312 334.635742188 149.169921875 310.546875 c 0
 138.264648438 286.458007812 129.719726562 260.661132812 123.53515625 233.154296875 c 0
 117.350585938 205.647460938 114.2578125 179.362304688 114.2578125 154.296875 c 0
 114.2578125 114.909179688 119.140625 83.740234375 128.90625 60.791015625 c 0
 138.671875 37.841796875 152.34375 26.3671875 169.921875 26.3671875 c 0
 189.127929688 26.3671875 207.112304688 34.2607421875 223.876953125 50.048828125 c 0
 240.641601562 65.8369140625 254.231445312 85.8564453125 264.6484375 110.107421875 c 0
 275.065429688 134.358398438 283.203125 160.237304688 289.0625 187.744140625 c 0
 294.921875 215.250976562 297.8515625 241.536132812 297.8515625 266.6015625 c 0
 297.8515625 306.640625 293.538085938 337.809570312 284.912109375 360.107421875 c 0
 276.286132812 382.405273438 263.346679688 393.5546875 246.09375 393.5546875 c 0
259.765625 424.8046875 m 0
 297.526367188 424.8046875 326.008789062 411.865234375 345.21484375 385.986328125 c 0
 364.420898438 360.107421875 374.0234375 325.1953125 374.0234375 281.25 c 0
 374.0234375 247.721679688 367.594726562 213.623046875 354.736328125 178.955078125 c 0
 341.877929688 144.287109375 325.276367188 113.525390625 304.931640625 86.669921875 c 0
 284.586914062 59.814453125 260.7421875 37.841796875 233.3984375 20.751953125 c 0
 206.0546875 3.662109375 178.7109375 -4.8828125 151.3671875 -4.8828125 c 0
 113.606445312 -4.8828125 85.2861328125 7.4873046875 66.40625 32.2265625 c 0
 47.5263671875 56.9658203125 38.0859375 91.1455078125 38.0859375 134.765625 c 0
 38.0859375 168.293945312 44.43359375 202.555664062 57.12890625 237.548828125 c 0
 69.82421875 272.541992188 86.3447265625 303.7109375 106.689453125 331.0546875 c 0
 127.034179688 358.3984375 150.797851562 380.859375 177.978515625 398.4375 c 0
 205.159179688 416.015625 232.421875 424.8046875 259.765625 424.8046875 c 0
EndSplineSet
Fore
SplineSet
152 497 m 17
 149 500 146 505 144 512 c 128
 142 519 142 524 144 528 c 1
 384 688 l 1
 387 685 390 679 392 672 c 128
 394 665 395 659 394 657 c 1
 152 497 l 17
253 425 m 0
 278 425 296 422 306 416 c 1
 307 436 303 459 296 483 c 128
 289 507 278 531 264 554 c 128
 250 577 231 599 208 618 c 128
 185 637 160 649 132 656 c 1
 133 660 134 664 136 667 c 128
 138 670 142 672 145 672 c 1
 183 665 217 652 247 631 c 128
 277 610 302 585 321 555 c 128
 340 525 354 493 364 457 c 128
 374 421 379 384 379 345 c 0
 379 304 375 264 366 227 c 128
 357 190 345 157 330 129 c 128
 315 101 298 77 278 57 c 128
 258 37 238 21 216 11 c 128
 194 1 171 -5 149 -5 c 0
 132 -5 118 -2 105 4 c 128
 92 10 81 17 73 26 c 128
 65 35 57 45 52 58 c 128
 47 71 43 83 41 96 c 128
 39 109 38 123 38 137 c 0
 38 158 41 182 48 208 c 128
 55 234 65 260 78 285 c 128
 91 310 107 333 124 354 c 128
 141 375 160 392 183 405 c 128
 206 418 229 425 253 425 c 0
245 394 m 0
 224 394 203 383 183 362 c 128
 163 341 147 310 134 273 c 128
 121 236 114 196 114 154 c 0
 114 141 115 128 116 115 c 128
 117 102 120 88 124 74 c 128
 128 60 134 49 142 40 c 128
 150 31 160 26 171 26 c 0
 203 26 233 50 259 97 c 128
 285 144 298 202 298 267 c 0
 298 306 297 332 295 345 c 0
 293 358 287 369 277 379 c 128
 267 389 256 394 245 394 c 0
EndSplineSet
Substitution2: "'smcp' Lowercase to Small Capitals in Latin lookup 3-1" eth.sc
EndChar
StartChar: divide
Encoding: 247 247 180
Width: 1014
VWidth: 0
Flags: HW
LayerCount: 2
Fore
SplineSet
74 448 m 2
 68.6666666667 448 66 454.666666667 66 468 c 0
 66 496 72.6666666667 520.666666667 86 542 c 1
 928 542 l 2
 932 542 934 536.666666667 934 526 c 0
 934 500.666666667 926 474.666666667 910 448 c 1
 74 448 l 2
588 980 m 27
 608.666666667 980 626.166666667 972 640.5 956 c 128
 654.833333333 940 662 921.333333333 662 900 c 0
 662 868 651.5 840 630.5 816 c 128
 609.5 792 584 780 554 780 c 0
 533.333333333 780 516.833333333 788.833333333 504.5 806.5 c 128
 492.166666667 824.166666667 486 844.666666667 486 868 c 0
 486 898.666666667 495.666666667 925 515 947 c 128
 534.333333333 969 558.666666667 980 588 980 c 27
440 208 m 27
 460.666666667 208 477.833333333 200 491.5 184 c 128
 505.166666667 168 512 149.333333333 512 128 c 0
 512 96 501.833333333 68 481.5 44 c 128
 461.166666667 20 436 8 406 8 c 0
 385.333333333 8 368.833333333 16.8333333333 356.5 34.5 c 128
 344.166666667 52.1666666667 338 72.6666666667 338 96 c 0
 338 126.666666667 347.666666667 153 367 175 c 128
 386.333333333 197 410.666666667 208 440 208 c 27
EndSplineSet
Substitution2: "'smcp' Lowercase to Small Capitals in Latin lookup 3-1" divide.sc
EndChar
StartChar: oslash
Encoding: 248 248 181
Width: 828
VWidth: 0
Flags: HW
LayerCount: 2
Fore
SplineSet
104 0 m 17
 94.6666666667 4.66666666667 85.1666666667 11.1666666667 75.5 19.5 c 0
 65.8333333333 27.8333333333 62.6666666667 34.6666666667 66 40 c 2
 682 838 l 1
 687.333333333 835.333333333 693 832 699 828 c 0
 705 824 710.666666667 819.166666667 716 813.5 c 0
 721.333333333 807.833333333 722.666666667 803.333333333 720 800 c 2
 104 0 l 17
EndSplineSet
Refer: 78 111 N 1 0 0 1 0 0 2
Substitution2: "'smcp' Lowercase to Small Capitals in Latin lookup 3-1" oslash.sc
EndChar
StartChar: thorn
Encoding: 254 254 187
Width: 898
Flags: HW
LayerCount: 2
Fore
SplineSet
443 1184 m 1
 441 1170 424.666666667 1085.33333333 394 930 c 128
 363.333333333 774.666666667 347.666666667 695.333333333 347 692 c 1
 475 810.666666667 573.666666667 870 643 870 c 0
 759 870 817 789.333333333 817 628 c 0
 817 527.333333333 792.166666667 427.166666667 742.5 327.5 c 128
 692.833333333 227.833333333 628.666666667 146.666666667 550 84 c 128
 471.333333333 21.3333333333 392.333333333 -10 313 -10 c 0
 262.333333333 -10 231.666666667 -1.33333333333 221 16 c 1
 155 -290 l 2
 151 -308 149 -326.666666667 149 -346 c 0
 149 -353.333333333 151.5 -362.166666667 156.5 -372.5 c 128
 161.5 -382.833333333 168.333333333 -389.333333333 177 -392 c 0
 193.666666667 -396 225 -398 271 -398 c 1
 275 -398.666666667 276.166666667 -407.666666667 274.5 -425 c 128
 272.833333333 -442.333333333 269.666666667 -452 265 -454 c 1
 256.333333333 -454 244.333333333 -453.666666667 229 -453 c 128
 213.666666667 -452.333333333 202.333333333 -452 195 -452 c 0
 97 -452 -1.66666666667 -458 -101 -470 c 1
 -105.666666667 -468.666666667 -107.833333333 -459.5 -107.5 -442.5 c 128
 -107.166666667 -425.5 -104.333333333 -415.333333333 -99 -412 c 1
 -63 -412 -36.3333333333 -401.333333333 -19 -380 c 1
 -7 -364 3.66666666667 -335.333333333 13 -294 c 1
 171 500 l 1
 75 404 l 1
 67 414 63 427.333333333 63 444 c 0
 63 449.333333333 65 454 69 458 c 2
 187 584 l 1
 289 1120 l 2
 290.333333333 1128 292.666666667 1140.16666667 296 1156.5 c 128
 299.333333333 1172.83333333 302 1186.83333333 304 1198.5 c 128
 306 1210.16666667 307 1219.33333333 307 1226 c 0
 307 1251.33333333 266.333333333 1264 185 1264 c 1
 182.333333333 1268 182 1275 184 1285 c 128
 186 1295 189 1302 193 1306 c 1
 266.333333333 1312.66666667 354.333333333 1334.66666667 457 1372 c 1
 465 1367.33333333 469 1354.66666667 469 1334 c 0
 469 1320.66666667 460.333333333 1270.66666667 443 1184 c 1
563 760 m 0
 531 760 490.666666667 743.166666667 442 709.5 c 128
 393.333333333 675.833333333 355 639.333333333 327 600 c 1
 261 262 l 2
 250.333333333 206 255.333333333 158.333333333 276 119 c 128
 296.666666667 79.6666666667 323 60 355 60 c 0
 409 60 460.833333333 89 510.5 147 c 128
 560.166666667 205 599 276 627 360 c 128
 655 444 669 526 669 606 c 0
 669 708.666666667 633.666666667 760 563 760 c 0
EndSplineSet
Substitution2: "'smcp' Lowercase to Small Capitals in Latin lookup 3-1" thorn.sc
EndChar
StartChar: Aogonek
Encoding: 260 260 302
Width: 572
Flags: HW
LayerCount: 2
Fore
SplineSet
476 59 m 0
 478 49 486 40 500 34 c 128
 514 28 524 25 531 25 c 1
 532 21 532 17 531 10 c 128
 530 3 529 -1 528 -3 c 1
 521 -3 516 -2 512 -2 c 128
 508 -2 507 -1 506 -1 c 128
 505 -1 503 -0 502 -0 c 128
 501 0 499 0 496 0 c 128
 491 0 491 0 481 0 c 0
 456 0 432 -5 408 -16 c 128
 384 -27 365 -40 350 -55 c 128
 335 -70 322 -85 313 -100 c 128
 304 -115 299 -127 299 -136 c 0
 299 -157 310 -167 330 -167 c 0
 343 -167 355 -164 368 -158 c 128
 381 -152 391 -145 398 -139 c 128
 405 -133 410 -130 411 -130 c 0
 414 -131 414 -135 412 -143 c 128
 410 -151 407 -157 405 -159 c 0
 366 -203 329 -225 296 -225 c 0
 282 -225 270 -219 261 -209 c 128
 252 -199 247 -188 247 -174 c 0
 247 -157 252 -138 265 -116 c 128
 278 -94 291 -77 304 -62 c 128
 317 -47 333 -30 352 -11 c 0
 354 -9 358 -4 365 2 c 128
 372 8 377 13 379 15 c 128
 381 17 383 22 385 29 c 128
 387 36 388 43 388 52 c 0
 388 77 388 94 386 104 c 2
 364 250 l 1
 170 250 l 1
 137 190 114 148 100 122 c 1
 81 86 72 62 72 49 c 0
 72 44 75 39 80 36 c 128
 85 33 92 30 100 29 c 128
 108 28 115 27 120 26 c 128
 125 25 129 25 132 25 c 1
 133 24 133 19 132 12 c 128
 131 5 130 0 128 -3 c 1
 119 -3 110 -2 100 -1 c 128
 90 0 81 1 72 1 c 128
 63 1 54 2 42 2 c 0
 30 2 18 1 9 1 c 128
 0 1 -11 0 -22 -1 c 128
 -33 -2 -44 -3 -54 -3 c 1
 -55 -2 -54 3 -53 10 c 128
 -52 17 -50 21 -48 25 c 1
 -41 25 -31 28 -19 31 c 128
 -7 34 2 38 7 44 c 0
 23 61 43 91 68 136 c 2
 337 619 l 2
 341 626 347 633 356 639 c 128
 365 645 371 647 376 647 c 0
 378 647 380 647 381 645 c 1
 465 123 l 1
 468 101 472 80 476 59 c 0
188 282 m 1
 359 282 l 1
 321 522 l 1
 188 282 l 1
EndSplineSet
EndChar
StartChar: aogonek
Encoding: 261 261 303
Width: 898
Flags: HW
LayerCount: 2
Fore
SplineSet
518 790 m 0
 468 790 417 765.5 365 716.5 c 128
 313 667.5 270.166666667 604.833333333 236.5 528.5 c 128
 202.833333333 452.166666667 186 376.666666667 186 302 c 0
 186 171.333333333 220 106 288 106 c 0
 320 106 355.833333333 129.5 395.5 176.5 c 128
 435.166666667 223.5 470.666666667 281.166666667 502 349.5 c 128
 533.333333333 417.833333333 555.333333333 484 568 548 c 2
 610 760 l 1
 602 769.333333333 588.5 776.666666667 569.5 782 c 128
 550.5 787.333333333 533.333333333 790 518 790 c 0
816 176 m 1
 810 165.333333333 794.166666667 147.166666667 768.5 121.5 c 128
 742.833333333 95.8333333333 716.666666667 72 690 50 c 0
 665.333333333 30 640.666666667 8.66666666667 616 -14 c 128
 591.333333333 -36.6666666667 563 -64.1666666667 531 -96.5 c 128
 499 -128.833333333 473.166666667 -161.166666667 453.5 -193.5 c 128
 433.833333333 -225.833333333 424 -254 424 -278 c 0
 424 -320.666666667 444.666666667 -342 486 -342 c 0
 513.333333333 -342 539.833333333 -335.666666667 565.5 -323 c 128
 591.166666667 -310.333333333 611.5 -297.666666667 626.5 -285 c 128
 641.5 -272.333333333 650 -266 652 -266 c 0
 658.666666667 -267.333333333 659.5 -276.5 654.5 -293.5 c 128
 649.5 -310.5 644.666666667 -321.333333333 640 -326 c 0
 560 -415.333333333 486 -460 418 -460 c 0
 388.666666667 -460 364.333333333 -450.166666667 345 -430.5 c 128
 325.666666667 -410.833333333 316 -387.333333333 316 -360 c 0
 316 -313.333333333 338 -257 382 -191 c 128
 426 -125 476 -64 532 -8 c 1
 501.333333333 4 486 37.3333333333 486 92 c 0
 486 113.333333333 490.666666667 148.666666667 500 198 c 1
 505.333333333 230 508.666666667 250.666666667 510 260 c 1
 498 238 482.166666667 213.5 462.5 186.5 c 128
 442.833333333 159.5 419.5 130.333333333 392.5 99 c 128
 365.5 67.6666666667 336.166666667 41.6666666667 304.5 21 c 128
 272.833333333 0.333333333333 243.333333333 -10 216 -10 c 0
 162 -10 118.833333333 11.6666666667 86.5 55 c 128
 54.1666666667 98.3333333333 38 155.333333333 38 226 c 0
 38 309.333333333 56.3333333333 391.5 93 472.5 c 128
 129.666666667 553.5 176.166666667 622.5 232.5 679.5 c 128
 288.833333333 736.5 350.666666667 782.5 418 817.5 c 128
 485.333333333 852.5 549.333333333 870 610 870 c 0
 666.666666667 870 718.666666667 861.333333333 766 844 c 1
 644 212 l 1
 638.666666667 190.666666667 636 169.333333333 636 148 c 0
 636 114.666666667 642.666666667 98 656 98 c 0
 662.666666667 98 670.833333333 100.833333333 680.5 106.5 c 128
 690.166666667 112.166666667 699.833333333 119 709.5 127 c 128
 719.166666667 135 729.166666667 144 739.5 154 c 128
 749.833333333 164 758.666666667 173 766 181 c 128
 773.333333333 189 780.166666667 196.5 786.5 203.5 c 2
 796 214 l 1
 799.333333333 214 803.5 209.166666667 808.5 199.5 c 128
 813.5 189.833333333 816 182 816 176 c 1
EndSplineSet
Substitution2: "'smcp' Lowercase to Small Capitals in Latin lookup 3-1" aogonek.sc
EndChar
StartChar: dcroat
Encoding: 273 273 408
Width: 892
Flags: HW
LayerCount: 2
Fore
SplineSet
512 1130 m 1
 970 1130 l 2
 976.666666667 1130 978.666666667 1124.66666667 976 1114 c 0
 972.666666667 1097.33333333 965.333333333 1080 954 1062 c 1
 494 1062 l 2
 491.333333333 1062 489.666666667 1064.66666667 489 1070 c 0
 488.333333333 1075.33333333 488.666666667 1080 490 1084 c 0
 493.333333333 1102 500.666666667 1117.33333333 512 1130 c 1
EndSplineSet
Refer: 67 100 N 1 0 0 1 0 0 2
Substitution2: "'smcp' Lowercase to Small Capitals in Latin lookup 3-1" dcroat.sc
EndChar
StartChar: Eogonek
Encoding: 280 280 319
Width: 541
Flags: W
HStem: -225 58<226 300> -3 32<-2 68 155 308> 309 32<210 361> 615 26<117 174 264 457>
VStem: 191 53<-189 -108> 374 28<225 265> 493 28<511 577>
LayerCount: 2
Fore
SplineSet
412 -4 m 1
 319 -4 244 -87 244 -136 c 0
 244 -151 250 -167 274 -167 c 0
 320 -167 349 -130 355 -130 c 0
 363 -130 352 -156 349 -159 c 0
 324 -187 282 -225 241 -225 c 0
 212 -225 191 -202 191 -176 c 0
 191 -124 253 -29 309 -3 c 1
 248 -2 178 0 103 0 c 0
 60 0 30 -3 -5 -3 c 1
 -9 2 -5 20 -0 25 c 1
 11 25 61 30 66 41 c 0
 74 57 79 84 85 113 c 2
 166 530 l 2
 172 559 176 587 174 603 c 0
 173 614 126 618 115 618 c 1
 112 623 115 641 121 646 c 1
 158 644 192 642 228 642 c 0
 313 642 422 648 521 648 c 1
 518 599 521 560 521 516 c 1
 518 513 511 511 504 511 c 0
 497 511 493 513 493 518 c 0
 488 596 455 615 407 615 c 2
 329 615 l 2
 318 615 270 614 265 604 c 0
 257 588 250 560 245 534 c 2
 209 347 l 2
 208 342 227 341 247 341 c 2
 295 341 l 2
 382 341 380 347 408 411 c 0
 410 416 417 418 424 418 c 0
 431 418 436 416 438 413 c 1
 402 229 l 1
 400 227 394 225 387 225 c 0
 380 225 375 227 374 232 c 0
 371 288 368 295 361 301 c 0
 352 308 301 309 267 309 c 0
 242 309 201 309 199 300 c 2
 161 106 l 2
 158 91 149 44 154 39 c 0
 164 29 179 29 217 29 c 2
 260 29 l 2
 310 29 350 39 381 60 c 0
 407 78 433 106 457 158 c 0
 459 162 465 164 472 164 c 0
 481 164 491 161 493 158 c 1
 466 105 427 39 412 -4 c 1
EndSplineSet
EndChar
StartChar: eogonek
Encoding: 281 281 320
Width: 354
Flags: W
HStem: -225 58<54 127> -6 58<121 138> 188 24<103 144> 385 40<192 292>
VStem: 20 52<-166 -121> 22 76<75 212 213 236> 260 72<306 380>
LayerCount: 2
Fore
SplineSet
103 213 m 1xf2
 141 213 260 274 260 346 c 0
 260 372 238 385 219 385 c 0
 152 385 108 263 103 213 c 1xf2
20 -176 m 0xfa
 19 -128 112 -29 138 -6 c 1
 135 -6 133 -6 130 -6 c 0
 61 -6 22 45 22 136 c 0xf6
 22 281 156 425 268 425 c 0
 318 425 332 393 332 364 c 0
 332 270 162 188 101 188 c 1
 100 185 99 162 99 157 c 0
 99 97 117 52 166 52 c 0
 210 52 264 116 267 119 c 1
 270 119 278 106 278 100 c 1
 273 91 259 74 238 53 c 0
 184 0 71 -97 71 -136 c 0
 71 -151 78 -167 102 -167 c 0
 148 -167 177 -130 183 -130 c 0
 191 -130 180 -156 177 -159 c 0
 152 -187 109 -225 68 -225 c 0
 39 -225 20 -202 20 -176 c 0xfa
EndSplineSet
Substitution2: "'smcp' Lowercase to Small Capitals in Latin lookup 3-1" eogonek.sc
EndChar
StartChar: Hbar
Encoding: 294 294 402
Width: 669
Flags: W
HStem: -3 28<-3 66 155 213 361 430 520 577> 309 39<210 488> 461 33<104 652> 618 28<118 175 265 334 482 539 630 698>
LayerCount: 2
Fore
SplineSet
113 494 m 1
 137 494 640 494 652 494 c 0
 655 494 656 490 655 486 c 0
 654 481 650 469 645 461 c 1
 621 461 116 461 104 461 c 0
 101 461 102 468 103 472 c 0
 104 477 106 486 113 494 c 1
EndSplineSet
Refer: 39 72 N 1 0 0 1 1 0 2
EndChar
StartChar: hbar
Encoding: 295 295 403
Width: 458
Flags: HW
LayerCount: 2
Fore
SplineSet
87 552 m 1
 311 552 l 2
 314 552 314 549 313 544 c 0
 311 536 309 528 303 519 c 1
 78 519 l 2
 77 519 76 519 76 522 c 0
 76 525 75 527 76 529 c 0
 78 538 81 546 87 552 c 1
EndSplineSet
Refer: 71 104 N 1 0 0 1 0 0 2
Substitution2: "'smcp' Lowercase to Small Capitals in Latin lookup 3-1" hbar.sc
EndChar
StartChar: Iogonek
Encoding: 302 302 339
Width: 305
Flags: W
HStem: -225 58<21 94> -3 28<-5 64 155 209> 618 28<116 173 264 332>
VStem: -14 52<-189 -104>
LayerCount: 2
Fore
SplineSet
213 25 m 1
 215 21 209 1 207 -3 c 1
 191 -3 176 -6 161 -10 c 0
 91 -31 38 -95 38 -136 c 0
 38 -151 44 -167 68 -167 c 0
 114 -167 143 -130 149 -130 c 0
 157 -130 147 -156 144 -159 c 0
 119 -187 76 -225 35 -225 c 0
 6 -225 -14 -202 -14 -176 c 0
 -14 -115 49 -24 105 2 c 1
 70 2 32 -1 -6 -3 c 1
 -10 2 -6 20 -1 25 c 1
 10 25 60 30 65 41 c 0
 73 57 78 84 84 113 c 2
 165 530 l 2
 171 559 176 587 174 603 c 0
 173 614 125 618 114 618 c 1
 111 623 114 641 120 646 c 1
 157 644 192 642 227 642 c 0
 262 642 296 644 334 646 c 1
 338 641 333 623 328 618 c 1
 317 618 268 614 263 603 c 0
 255 587 250 559 244 530 c 2
 163 113 l 2
 157 84 151 57 153 41 c 0
 154 30 202 25 213 25 c 1
EndSplineSet
EndChar
StartChar: iogonek
Encoding: 303 303 340
Width: 256
Flags: W
HStem: -225 58<39 112> 371 54<95 158> 533 98<124 187>
VStem: 4 53<-189 -106> 112 73<295 374> 113 86<545 621>
LayerCount: 2
Fore
SplineSet
164 631 m 0xf4
 185 631 199 613 199 592 c 0
 199 562 176 533 146 533 c 0
 125 533 113 554 113 575 c 0
 113 604 135 631 164 631 c 0xf4
213 86 m 1
 208 77 186 54 165 35 c 0
 113 -12 57 -86 57 -136 c 0
 57 -151 63 -167 87 -167 c 0
 133 -167 162 -130 168 -130 c 0
 176 -130 165 -156 162 -159 c 0
 137 -187 95 -225 54 -225 c 0
 25 -225 4 -202 4 -176 c 0
 4 -127 60 -42 91 -6 c 1
 89 -6 87 -6 85 -6 c 0
 64 -6 52 16 52 45 c 0
 52 53 55 76 59 97 c 2
 108 315 l 2
 109 321 112 342 112 347 c 0
 112 356 113 371 103 371 c 0
 82 371 37 317 34 314 c 1
 31 314 24 327 24 333 c 1
 35 352 101 425 147 425 c 0
 168 425 186 403 186 374 c 0xf8
 186 366 183 343 179 322 c 2
 129 104 l 2
 127 94 125 77 125 72 c 0
 125 63 125 48 135 48 c 0
 156 48 200 101 203 104 c 1
 206 104 213 92 213 86 c 1
EndSplineSet
Substitution2: "'smcp' Lowercase to Small Capitals in Latin lookup 3-1" iogonek.sc
EndChar
StartChar: dotlessi
Encoding: 305 305 233
Width: 524
Flags: HW
LayerCount: 2
Fore
SplineSet
222 646 m 1
 227.333333333 678 230 699.333333333 230 710 c 0
 230 743.333333333 223.333333333 760 210 760 c 0
 203.333333333 760 195.166666667 757.166666667 185.5 751.5 c 128
 175.833333333 745.833333333 166.166666667 739 156.5 731 c 128
 146.833333333 723 136.833333333 714 126.5 704 c 128
 116.166666667 694 107.333333333 685 100 677 c 128
 92.6666666667 669 85.8333333333 661.5 79.5 654.5 c 2
 70 644 l 1
 66.6666666667 644 62.5 648.833333333 57.5 658.5 c 128
 52.5 668.166666667 50 676 50 682 c 1
 67.3333333333 711.333333333 103.5 750 158.5 798 c 128
 213.5 846 261.333333333 870 302 870 c 0
 323.333333333 870 341.666666667 860 357 840 c 128
 372.333333333 820 380 795.333333333 380 766 c 0
 380 744.666666667 375.333333333 709.333333333 366 660 c 1
 264 212 l 1
 258.666666667 185.333333333 256 164 256 148 c 0
 256 114.666666667 262.666666667 98 276 98 c 0
 282.666666667 98 290.833333333 100.833333333 300.5 106.5 c 128
 310.166666667 112.166666667 319.833333333 119 329.5 127 c 128
 339.166666667 135 349.166666667 144 359.5 154 c 128
 369.833333333 164 378.666666667 173 386 181 c 128
 393.333333333 189 400.166666667 196.5 406.5 203.5 c 2
 416 214 l 1
 419.333333333 214 423.5 209.166666667 428.5 199.5 c 128
 433.5 189.833333333 436 182 436 176 c 1
 419.333333333 148 381.833333333 109.666666667 323.5 61 c 128
 265.166666667 12.3333333333 215.333333333 -12 174 -12 c 0
 153.333333333 -12 136.833333333 -2.33333333333 124.5 17 c 128
 112.166666667 36.3333333333 106 61.3333333333 106 92 c 0
 106 113.333333333 110.666666667 148.666666667 120 198 c 1
 222 646 l 1
EndSplineSet
Substitution2: "'smcp' Lowercase to Small Capitals in Latin lookup 3-1" dotlessi.sc
EndChar
